<svg xmlns="http://www.w3.org/2000/svg" xmlns:xlink="http://www.w3.org/1999/xlink" viewBox="0 0 49.69 42.92"><defs><style>.cls-1{fill:url(#linear-gradient);}.cls-2{opacity:0.6;fill:url(#linear-gradient-2);}.cls-3{clip-path:url(#clip-path);}.cls-4{fill:url(#linear-gradient-4);}.cls-5{fill:url(#linear-gradient-5);}.cls-6{fill:url(#linear-gradient-6);}.cls-7{fill:url(#linear-gradient-7);}.cls-8{fill:url(#linear-gradient-8);}.cls-9{fill:url(#linear-gradient-9);}</style><linearGradient id="linear-gradient" x1="21.86" y1="6.53" x2="26.59" y2="40.48" gradientTransform="translate(1.41 -1.43) rotate(3.51)" gradientUnits="userSpaceOnUse"><stop offset="0.01" stop-color="#9fbdd1"/><stop offset="1" stop-color="#dbe4ea"/></linearGradient><linearGradient id="linear-gradient-2" x1="25.47" y1="42.62" x2="32.84" y2="14.43" gradientTransform="matrix(1, 0, 0, 1, 0, 0)" xlink:href="#linear-gradient"/><clipPath id="clip-path"><rect id="_Rectangle_" data-name="&lt;Rectangle&gt;" class="cls-1" x="3.47" y="5.52" width="41.15" height="33.49" rx="3.29" ry="3.29" transform="translate(-1.32 1.52) rotate(-3.51)"/></clipPath><linearGradient id="linear-gradient-4" x1="39.95" y1="-4.81" x2="2.91" y2="21.08" gradientTransform="translate(0.44 -1.45) rotate(3.51)" gradientUnits="userSpaceOnUse"><stop offset="0" stop-color="#b664f4"/><stop offset="1" stop-color="#03a9f4"/></linearGradient><linearGradient id="linear-gradient-5" x1="24.18" y1="-6.34" x2="6.92" y2="10.09" gradientUnits="userSpaceOnUse"><stop offset="0.01" stop-color="#fa709a"/><stop offset="1" stop-color="#fee140"/></linearGradient><linearGradient id="linear-gradient-6" x1="29.62" y1="-0.63" x2="12.35" y2="15.8" xlink:href="#linear-gradient-5"/><linearGradient id="linear-gradient-7" x1="34.72" y1="4.73" x2="17.45" y2="21.16" xlink:href="#linear-gradient-5"/><linearGradient id="linear-gradient-8" x1="18.56" y1="13.51" x2="18.11" y2="41" gradientUnits="userSpaceOnUse"><stop offset="0" stop-color="#515575"/><stop offset="1" stop-color="#607d8b"/></linearGradient><linearGradient id="linear-gradient-9" x1="31.55" y1="13.73" x2="31.1" y2="41.21" xlink:href="#linear-gradient-8"/></defs><title>agenda</title><g id="Layer_2" data-name="Layer 2"><g id="agenda"><rect class="cls-2" x="9.53" y="10.64" width="40.16" height="32.28" rx="3.23" ry="3.23"/><rect id="_Rectangle_2" data-name="&lt;Rectangle&gt;" class="cls-1" x="3.47" y="5.52" width="41.15" height="33.49" rx="3.29" ry="3.29" transform="translate(-1.32 1.52) rotate(-3.51)"/><g class="cls-3"><rect class="cls-4" x="0.26" y="1.44" width="47.31" height="9.92" transform="translate(-0.35 1.48) rotate(-3.51)"/></g><path class="cls-5" d="M10.9,11.39a2,2,0,0,1-2-1.85L8.56,3.65a2,2,0,0,1,1.86-2.1,2,2,0,0,1,2.1,1.85l.36,5.89A2,2,0,0,1,11,11.39Z"/><path class="cls-6" d="M23.13,10.64a2,2,0,0,1-2-1.86l-.36-5.89a2,2,0,0,1,4-.24l.36,5.89a2,2,0,0,1-1.86,2.1Z"/><path class="cls-7" d="M34.6,9.94a2,2,0,0,1-2-1.86l-.36-5.89A2,2,0,0,1,34.11.09,2,2,0,0,1,36.21,2l.37,5.89a2,2,0,0,1-1.86,2.1Z"/><path class="cls-8" d="M24.71,33a1.35,1.35,0,0,1-1.26,1.48l-9.07.76A1.35,1.35,0,0,1,12.9,34a1.6,1.6,0,0,1,.29-1l7.45-11.28a3,3,0,0,0-4.58-3.53,3,3,0,0,0-1.22,2.6,1.41,1.41,0,0,1-1.31,1.52A1.43,1.43,0,0,1,12,21,5.6,5.6,0,0,1,13.31,17v0a5.92,5.92,0,0,1,6.43-1.78A5.82,5.82,0,0,1,23.06,18a5,5,0,0,1,.06,4.88L17,32.25l6.24-.52A1.38,1.38,0,0,1,24.71,33Z"/><path class="cls-9" d="M37.51,27.72a5.79,5.79,0,0,1-5.15,6.09,5.86,5.86,0,0,1-6.24-4.51,1.56,1.56,0,0,1,1.12-1.73c.75-.06,1.6.5,1.64,1.07A3,3,0,0,0,32.13,31,2.75,2.75,0,0,0,34.69,28a2.91,2.91,0,0,0-3-2.76,1.33,1.33,0,0,1-1.48-1.28,1.35,1.35,0,0,1,1.25-1.54A2.88,2.88,0,0,0,34,19.14a2.76,2.76,0,0,0-3-2.59,3.23,3.23,0,0,0-2.84,2.5c-.11.76-.68,1.44-1.44,1.3a1.53,1.53,0,0,1-1.39-1.49,5.89,5.89,0,0,1,5.44-5.08,5.62,5.62,0,0,1,6.08,5.12,5.74,5.74,0,0,1-1.62,4.59A5.75,5.75,0,0,1,37.51,27.72Z"/></g></g></svg>