<svg xmlns="http://www.w3.org/2000/svg" xmlns:xlink="http://www.w3.org/1999/xlink" viewBox="0 0 44.06 44.06"><defs><style>.cls-1{fill:url(#linear-gradient);}.cls-2{fill:#fff;}.cls-3{fill:#181818;}.cls-4{fill:#ff5722;}.cls-5{fill:#524e4d;}.cls-6{fill:#7a7674;}</style><linearGradient id="linear-gradient" x1="21.39" y1="53.98" x2="22.39" y2="3.98" gradientUnits="userSpaceOnUse"><stop offset="0" stop-color="#b664f4"/><stop offset="1" stop-color="#03a9f4"/></linearGradient></defs><title>attendance</title><g id="Layer_2" data-name="Layer 2"><g id="attendance"><circle class="cls-1" cx="22.03" cy="22.03" r="22.03"/><circle class="cls-2" cx="22.03" cy="22.03" r="17.86"/><path class="cls-3" d="M29.49,16.94a1.67,1.67,0,1,0-2.36-2.37l-6.34,6.34,2.36,2.36Z"/><path class="cls-4" d="M21,21.57,11.62,31a1,1,0,1,0,1.48,1.47L22.5,23Z"/><path class="cls-3" d="M14.72,12.36a1.67,1.67,0,1,0-2.36,2.36l8.55,8.55,2.36-2.36Z"/><path class="cls-5" d="M22,24.64A2.61,2.61,0,1,1,24.64,22,2.61,2.61,0,0,1,22,24.64Z"/><path class="cls-6" d="M9.92,23.08H8.35a1,1,0,0,1,0-2.09H9.92a1,1,0,0,1,0,2.09Z"/><path class="cls-6" d="M22,11a1,1,0,0,1-1-1V8.35a1,1,0,0,1,2.09,0V9.92A1,1,0,0,1,22,11Z"/><path class="cls-6" d="M35.71,23.08H34.14a1,1,0,0,1,0-2.09h1.57a1,1,0,0,1,0,2.09Z"/><path class="cls-6" d="M22,36.75a1,1,0,0,1-1-1V34.14a1,1,0,0,1,2.09,0v1.57A1,1,0,0,1,22,36.75Z"/></g></g></svg>