<svg xmlns="http://www.w3.org/2000/svg" xmlns:xlink="http://www.w3.org/1999/xlink" viewBox="0 0 48.65 48.65"><defs><style>.cls-1{fill:url(#linear-gradient);}.cls-2{fill:url(#linear-gradient-2);}</style><linearGradient id="linear-gradient" x1="22.48" y1="53.67" x2="24.4" y2="23.21" gradientUnits="userSpaceOnUse"><stop offset="0.01" stop-color="#b6b6b6"/><stop offset="1" stop-color="#e2e2e2"/></linearGradient><linearGradient id="linear-gradient-2" x1="24.37" y1="18.39" x2="24.21" y2="35" xlink:href="#linear-gradient"/></defs><title>backup_na</title><g id="Layer_2" data-name="Layer 2"><g id="backup_na"><path class="cls-1" d="M47.93,30.21A24.33,24.33,0,0,0,2.44,13.71l12.92,5.37L15.59,21,0,23.38c0,.31,0,.63,0,.95a24.32,24.32,0,0,0,43.46,15L33.07,26l.85-1.7ZM24.32,27.86a4.42,4.42,0,1,1,4.42-4.42A4.43,4.43,0,0,1,24.32,27.86Z"/><path class="cls-2" d="M24.32,34A10.51,10.51,0,1,1,34.83,23.44,10.52,10.52,0,0,1,24.32,34Zm0-19.25a8.75,8.75,0,1,0,8.75,8.74A8.75,8.75,0,0,0,24.32,14.7Z"/></g></g></svg>