<svg xmlns="http://www.w3.org/2000/svg" xmlns:xlink="http://www.w3.org/1999/xlink" viewBox="0 0 43.62 55.98"><defs><style>.cls-1{fill:url(#linear-gradient);}.cls-2{fill:url(#linear-gradient-2);}.cls-3{fill:url(#linear-gradient-3);}.cls-4{fill:url(#linear-gradient-4);}.cls-5{fill:url(#linear-gradient-5);}.cls-6{fill:url(#linear-gradient-6);}.cls-7{fill:url(#linear-gradient-7);}.cls-8{fill:#fff;}.cls-9{fill:url(#linear-gradient-8);}.cls-10{fill:url(#linear-gradient-9);}.cls-11{fill:url(#linear-gradient-10);}</style><linearGradient id="linear-gradient" x1="18.53" y1="52.74" x2="20.12" y2="9.89" gradientUnits="userSpaceOnUse"><stop offset="0.01" stop-color="#9fbdd1"/><stop offset="1" stop-color="#dbe4ea"/></linearGradient><linearGradient id="linear-gradient-2" x1="17.12" y1="12.42" x2="24.04" y2="43.64" gradientUnits="userSpaceOnUse"><stop offset="0" stop-color="#515575"/><stop offset="1" stop-color="#607d8b"/></linearGradient><linearGradient id="linear-gradient-3" x1="13.27" y1="13.28" x2="20.18" y2="44.49" xlink:href="#linear-gradient-2"/><linearGradient id="linear-gradient-4" x1="16.86" y1="12.48" x2="23.78" y2="43.7" xlink:href="#linear-gradient-2"/><linearGradient id="linear-gradient-5" x1="16.6" y1="12.54" x2="23.52" y2="43.75" xlink:href="#linear-gradient-2"/><linearGradient id="linear-gradient-6" x1="16.34" y1="12.59" x2="23.26" y2="43.81" xlink:href="#linear-gradient-2"/><linearGradient id="linear-gradient-7" x1="29.91" y1="33.37" x2="22.71" y2="55.69" gradientUnits="userSpaceOnUse"><stop offset="0" stop-color="#b664f4"/><stop offset="1" stop-color="#03a9f4"/></linearGradient><linearGradient id="linear-gradient-8" x1="30.47" y1="35.46" x2="44.15" y2="53.18" gradientUnits="userSpaceOnUse"><stop offset="0.01" stop-color="#fa709a"/><stop offset="1" stop-color="#fee140"/></linearGradient><linearGradient id="linear-gradient-9" x1="35.42" y1="39.67" x2="44.51" y2="51.44" xlink:href="#linear-gradient-8"/><linearGradient id="linear-gradient-10" x1="33.38" y1="41.25" x2="42.47" y2="53.02" xlink:href="#linear-gradient-8"/></defs><title>blog_admin</title><g id="Layer_2" data-name="Layer 2"><g id="blog_admin"><path class="cls-1" d="M37.51,32.24l1.55,9.93a3.6,3.6,0,0,1-3,4.11l-25.78,4a3.63,3.63,0,0,1-4.12-3L0,8.19a3.63,3.63,0,0,1,3-4.12L28.83,0a3.61,3.61,0,0,1,4.11,3l4.33,27.67Z"/><path class="cls-2" d="M5.73,22.12a.85.85,0,0,1-.13-1.68l25.81-4a.84.84,0,1,1,.26,1.66l-25.81,4Z"/><path class="cls-3" d="M5.11,18.15a.84.84,0,0,1-.83-.72.85.85,0,0,1,.7-1l17.49-2.73a.84.84,0,1,1,.26,1.66L5.24,18.14Z"/><path class="cls-4" d="M6.38,26.27a.84.84,0,0,1-.13-1.67l25.81-4a.85.85,0,0,1,.26,1.67l-25.81,4Z"/><path class="cls-5" d="M7,30.43a.84.84,0,0,1-.13-1.67l25.81-4A.85.85,0,0,1,33,26.39l-25.81,4Z"/><path class="cls-6" d="M7.68,34.59a.84.84,0,0,1-.13-1.67l25.81-4a.85.85,0,0,1,.26,1.67l-25.81,4Z"/><g id="Settings"><path class="cls-7" d="M36.4,44.35a.68.68,0,0,0-.67-.52,2.31,2.31,0,0,1-1.59-4,.58.58,0,0,0,.07-.79,10.15,10.15,0,0,0-1.66-1.68.59.59,0,0,0-.8.07,2.41,2.41,0,0,1-2.61.58,2.31,2.31,0,0,1-1.41-2.27.58.58,0,0,0-.52-.61,10.26,10.26,0,0,0-2.35,0,.58.58,0,0,0-.52.6,2.33,2.33,0,0,1-1.43,2.23,2.42,2.42,0,0,1-2.6-.59.59.59,0,0,0-.79-.06A10.27,10.27,0,0,0,17.83,39a.59.59,0,0,0,.06.8,2.31,2.31,0,0,1,.59,2.61,2.43,2.43,0,0,1-2.28,1.42.58.58,0,0,0-.61.51,10.52,10.52,0,0,0,0,2.38.69.69,0,0,0,.69.52,2.29,2.29,0,0,1,2.15,1.43,2.32,2.32,0,0,1-.59,2.59.59.59,0,0,0-.06.79,11,11,0,0,0,1.66,1.68.58.58,0,0,0,.79-.07A2.41,2.41,0,0,1,22.85,53a2.31,2.31,0,0,1,1.41,2.27.58.58,0,0,0,.52.61A9.66,9.66,0,0,0,26,56a10.93,10.93,0,0,0,1.15-.06.59.59,0,0,0,.52-.6,2.33,2.33,0,0,1,1.43-2.24,2.44,2.44,0,0,1,2.6.59.58.58,0,0,0,.79.07,10.68,10.68,0,0,0,1.69-1.67.59.59,0,0,0-.06-.8,2.31,2.31,0,0,1-.59-2.61,2.35,2.35,0,0,1,2.14-1.42h.13a.59.59,0,0,0,.62-.51A10.52,10.52,0,0,0,36.4,44.35ZM26,49a3.49,3.49,0,1,1,3.49-3.49A3.49,3.49,0,0,1,26,49Z"/></g><path class="cls-8" d="M32.78,37.66l-.78.56a1.57,1.57,0,0,1-2.16-.35L18.3,22.05l-.78.33a.63.63,0,0,1-.88-.49l-.36-2.62c-.21-1.16-.45-2.15.46-2.79h0c.9-.65,1.78-.19,2.83.45l2.17,1.2a.54.54,0,0,1,.2.74l-.43.72L33.13,35.53A1.51,1.51,0,0,1,32.78,37.66Z"/><path class="cls-9" d="M42.32,49.94l-1.61,1.14a3.17,3.17,0,0,1-4.39-.7l-6.95-9.53c-1.33-1.82-3.66-2.43.94-5.7h0c5.11-3.64,4.45-.9,5.78.92L43,45.6A3.09,3.09,0,0,1,42.32,49.94Z"/><path class="cls-10" d="M41.29,48.46a.94.94,0,0,1-.76-.39L33.91,39a1,1,0,0,1,.21-1.32.94.94,0,0,1,1.31.21L42.05,47a.94.94,0,0,1-.76,1.5Z"/><path class="cls-11" d="M39.18,50a.94.94,0,0,1-.76-.39l-6.61-9.06a.94.94,0,0,1,.2-1.32,1,1,0,0,1,1.32.21l6.61,9.06a1,1,0,0,1-.21,1.32A.93.93,0,0,1,39.18,50Z"/></g></g></svg>