<svg xmlns="http://www.w3.org/2000/svg" xmlns:xlink="http://www.w3.org/1999/xlink" viewBox="0 0 47.94 46.94"><defs><style>.cls-1{fill:url(#linear-gradient);}.cls-2{isolation:isolate;}.cls-3{clip-path:url(#clip-path);}.cls-4{fill:#fff;}.cls-5{opacity:0.7;mix-blend-mode:multiply;fill:url(#linear-gradient-3);}.cls-6{fill:url(#linear-gradient-4);}</style><linearGradient id="linear-gradient" x1="30.75" y1="19.88" x2="38.93" y2="43.64" gradientUnits="userSpaceOnUse"><stop offset="0.01" stop-color="#aeaeae"/><stop offset="1" stop-color="#838383"/></linearGradient><clipPath id="clip-path"><path id="_Clipping_Path_" data-name="&lt;Clipping Path&gt;" class="cls-1" d="M21,26.19v9A6.85,6.85,0,0,0,27.83,42h8.52a2.39,2.39,0,0,1,1.69.7l4,4a.81.81,0,0,0,1.37-.57V43.29A2.66,2.66,0,0,1,44.68,41a6.83,6.83,0,0,0,3.26-5.82v-9a6.84,6.84,0,0,0-6.83-6.82H27.83A6.84,6.84,0,0,0,21,26.19Z"/></clipPath><linearGradient id="linear-gradient-3" x1="18.93" y1="14.87" x2="33.21" y2="28.75" xlink:href="#linear-gradient"/><linearGradient id="linear-gradient-4" x1="1.5" y1="1.75" x2="30.98" y2="30.39" gradientUnits="userSpaceOnUse"><stop offset="0.01" stop-color="#9e9e9e"/><stop offset="1" stop-color="#d8d8d8"/></linearGradient></defs><title>chat_na</title><g class="cls-2"><g id="Layer_2" data-name="Layer 2"><g id="chat_na"><path id="_Clipping_Path_2" data-name="&lt;Clipping Path&gt;" class="cls-1" d="M21,26.19v9A6.85,6.85,0,0,0,27.83,42h8.52a2.39,2.39,0,0,1,1.69.7l4,4a.81.81,0,0,0,1.37-.57V43.29A2.66,2.66,0,0,1,44.68,41a6.83,6.83,0,0,0,3.26-5.82v-9a6.84,6.84,0,0,0-6.83-6.82H27.83A6.84,6.84,0,0,0,21,26.19Z"/><g class="cls-3"><path class="cls-4" d="M30,29.84a.72.72,0,0,0-.72.82,5.28,5.28,0,0,0,10.43,0,.73.73,0,0,0-.73-.82Z"/><circle class="cls-4" cx="43.83" cy="29.91" r="1.4"/><circle class="cls-4" cx="25.28" cy="29.91" r="1.4"/><path class="cls-5" d="M18.92,15.76H35.33a0,0,0,0,1,0,0V21a8.89,8.89,0,0,1-8.89,8.89H18.92a0,0,0,0,1,0,0V15.76A0,0,0,0,1,18.92,15.76Z"/></g><path class="cls-6" d="M33.87,8.58V19.91a8.61,8.61,0,0,1-8.58,8.59H14.58a3,3,0,0,0-2.13.88l-5,5a1,1,0,0,1-1.71-.72V30.08a3.36,3.36,0,0,0-1.63-2.85A8.59,8.59,0,0,1,0,19.91V8.58A8.6,8.6,0,0,1,8.58,0H25.29A8.6,8.6,0,0,1,33.87,8.58Z"/><path class="cls-4" d="M22.58,13.17a.91.91,0,0,1,.91,1,6.63,6.63,0,0,1-13.11,0,.91.91,0,0,1,.91-1Z"/><circle class="cls-4" cx="5.17" cy="13.26" r="1.76"/><circle class="cls-4" cx="28.49" cy="13.26" r="1.76"/></g></g></g></svg>