<svg xmlns="http://www.w3.org/2000/svg" xmlns:xlink="http://www.w3.org/1999/xlink" viewBox="0 0 50.77 46.23"><defs><style>.cls-1{fill:#dce4ea;}.cls-2{clip-path:url(#clip-path);}.cls-3{fill:url(#linear-gradient);}.cls-4{fill:none;stroke:#ffd00d;stroke-linecap:round;stroke-linejoin:round;stroke-width:4px;}.cls-5{fill:url(#linear-gradient-2);}.cls-6{fill:url(#linear-gradient-3);}.cls-7{fill:url(#linear-gradient-4);}.cls-8{fill:url(#linear-gradient-5);}.cls-9{fill:#fff;}.cls-10{fill:#181818;}.cls-11{fill:#ff5722;}.cls-12{fill:#524e4d;}.cls-13{fill:#7a7674;}</style><clipPath id="clip-path"><rect id="_Rectangle_" data-name="&lt;Rectangle&gt;" class="cls-1" x="3.51" y="5.57" width="41.54" height="33.8" rx="3.12" ry="3.12" transform="translate(-1.33 1.53) rotate(-3.51)"/></clipPath><linearGradient id="linear-gradient" x1="0.06" y1="6.21" x2="48.41" y2="6.71" gradientTransform="translate(0.44 -1.47) rotate(3.51)" gradientUnits="userSpaceOnUse"><stop offset="0" stop-color="#b664f4"/><stop offset="1" stop-color="#03a9f4"/></linearGradient><linearGradient id="linear-gradient-2" x1="6.36" y1="14.22" x2="14.86" y2="28.22" gradientTransform="translate(1.28 -0.59) rotate(3.51)" gradientUnits="userSpaceOnUse"><stop offset="0" stop-color="#515575"/><stop offset="1" stop-color="#607d8b"/></linearGradient><linearGradient id="linear-gradient-3" x1="12.21" y1="10.67" x2="20.71" y2="24.67" gradientTransform="translate(1.27 -1.06) rotate(3.51)" xlink:href="#linear-gradient-2"/><linearGradient id="linear-gradient-4" x1="3.36" y1="16.05" x2="11.86" y2="30.05" gradientTransform="translate(1.81 -0.64) rotate(3.51)" xlink:href="#linear-gradient-2"/><linearGradient id="linear-gradient-5" x1="37.78" y1="13.45" x2="40.95" y2="53.28" gradientUnits="userSpaceOnUse"><stop offset="0.01" stop-color="#fa709a"/><stop offset="1" stop-color="#fee140"/></linearGradient></defs><title>course_progress</title><g id="Layer_2" data-name="Layer 2"><g id="course_progress"><rect id="_Rectangle_2" data-name="&lt;Rectangle&gt;" class="cls-1" x="3.51" y="5.57" width="41.54" height="33.8" rx="3.12" ry="3.12" transform="translate(-1.33 1.53) rotate(-3.51)"/><g class="cls-2"><rect class="cls-3" x="0.26" y="1.45" width="47.75" height="10.01" transform="translate(-0.35 1.49) rotate(-3.51)"/></g><line class="cls-4" x1="10.64" y1="3.56" x2="11" y2="9.5"/><line class="cls-4" x1="22.98" y1="2.8" x2="23.35" y2="8.74"/><line class="cls-4" x1="34.56" y1="2.09" x2="34.92" y2="8.03"/><rect class="cls-5" x="7.01" y="17.14" width="6.45" height="6.92" rx="1.66" ry="1.66" transform="translate(-1.24 0.67) rotate(-3.51)"/><rect class="cls-6" x="14.73" y="16.67" width="6.45" height="6.92" rx="1.66" ry="1.66" transform="translate(-1.2 1.14) rotate(-3.51)"/><rect class="cls-7" x="8.06" y="25.65" width="6.45" height="6.92" rx="1.66" ry="1.66" transform="translate(-1.76 0.75) rotate(-3.51)"/><circle class="cls-8" cx="39.49" cy="34.94" r="11.28"/><circle class="cls-9" cx="39.49" cy="34.94" r="9.14"/><path class="cls-10" d="M43.14,32.11A.86.86,0,1,0,41.86,31l-3,3.44,1.28,1.13Z"/><path class="cls-11" d="M39,34.74l-4.51,5.1a.53.53,0,0,0,0,.75.53.53,0,0,0,.75-.05l4.51-5.09Z"/><path class="cls-10" d="M35.45,30.23a.87.87,0,0,0-1.21.07.86.86,0,0,0,.08,1.21L39,35.61l1.13-1.28Z"/><path class="cls-12" d="M39.57,36.28A1.34,1.34,0,0,1,38.16,35a1.33,1.33,0,1,1,1.41,1.26Z"/><path class="cls-13" d="M33.33,35.86l-.8,0a.54.54,0,0,1-.06-1.07l.8-.05a.54.54,0,0,1,.06,1.07Z"/><path class="cls-13" d="M39.14,29.29a.53.53,0,0,1-.56-.5l0-.81a.53.53,0,0,1,.5-.56.54.54,0,0,1,.57.5l0,.8A.54.54,0,0,1,39.14,29.29Z"/><path class="cls-13" d="M46.51,35.05l-.8.05a.54.54,0,0,1-.56-.5.53.53,0,0,1,.5-.57l.8-.05a.54.54,0,1,1,.06,1.07Z"/><path class="cls-13" d="M40,42.47a.53.53,0,0,1-.56-.5l0-.8a.53.53,0,1,1,1.06-.07l.05.8A.53.53,0,0,1,40,42.47Z"/></g></g></svg>