<svg xmlns="http://www.w3.org/2000/svg" xmlns:xlink="http://www.w3.org/1999/xlink" viewBox="0 0 42 42.67"><defs><style>.cls-1{fill:url(#linear-gradient);}.cls-2{fill:url(#linear-gradient-2);}.cls-3{fill:#fff;}.cls-4{fill:url(#linear-gradient-3);}.cls-5{fill:url(#linear-gradient-4);}</style><linearGradient id="linear-gradient" x1="20.75" y1="42.61" x2="20.1" y2="2.84" gradientUnits="userSpaceOnUse"><stop offset="0" stop-color="#575757"/><stop offset="1" stop-color="#767676"/></linearGradient><linearGradient id="linear-gradient-2" x1="22.75" y1="39.33" x2="22.75" y2="3.44" gradientUnits="userSpaceOnUse"><stop offset="0.01" stop-color="#b6b6b6"/><stop offset="1" stop-color="#e2e2e2"/></linearGradient><linearGradient id="linear-gradient-3" x1="20.34" y1="49.39" x2="21.75" y2="17.49" gradientUnits="userSpaceOnUse"><stop offset="0" stop-color="#8c8c8c"/><stop offset="1" stop-color="#7f7f7f"/></linearGradient><linearGradient id="linear-gradient-4" x1="26.43" y1="17.93" x2="27.45" y2="17.93" gradientUnits="userSpaceOnUse"><stop offset="0.01" stop-color="#aeaeae"/><stop offset="1" stop-color="#838383"/></linearGradient></defs><title>dropbox_na</title><g id="Layer_2" data-name="Layer 2"><g id="dropbox_na"><path class="cls-1" d="M34.1,25l1,7.68a2.79,2.79,0,0,1-2.38,3.12L12.81,38.5a2.8,2.8,0,0,1-3.13-2.38L5.6,5.85A2.78,2.78,0,0,1,8,2.72L27.93,0a2.77,2.77,0,0,1,3.12,2.38l2.89,21.41Z"/><path class="cls-2" d="M34.68,28.35l-.86,7.7a2.78,2.78,0,0,1-3.07,2.45l-20-2.24a2.78,2.78,0,0,1-2.45-3.07l3.4-30.36A2.78,2.78,0,0,1,14.76.38l20,2.24a2.78,2.78,0,0,1,2.45,3.07L34.81,27.16Z"/><path class="cls-3" d="M31.39,16.46h-.06L15.22,14.65a.52.52,0,0,1,.12-1l16.11,1.81a.52.52,0,0,1-.06,1Z"/><path class="cls-3" d="M26.48,13.4h-.06L15.5,12.17a.52.52,0,1,1,.12-1l10.92,1.22a.52.52,0,0,1-.06,1Z"/><path class="cls-3" d="M31.1,19.06H31l-16.11-1.8a.52.52,0,0,1-.46-.58.51.51,0,0,1,.58-.46L31.16,18a.52.52,0,0,1,.46.57A.53.53,0,0,1,31.1,19.06Z"/><path class="cls-3" d="M30.81,21.65h-.06l-16.11-1.8a.53.53,0,0,1-.46-.58.51.51,0,0,1,.58-.46l16.11,1.8a.52.52,0,0,1-.06,1Z"/><path class="cls-3" d="M30.52,24.25h-.06L14.35,22.44a.52.52,0,0,1,.12-1l16.11,1.81a.52.52,0,0,1,.46.58A.53.53,0,0,1,30.52,24.25Z"/><path class="cls-4" d="M42,36.47a6.21,6.21,0,0,1-4.87,6.06,6.35,6.35,0,0,1-1.32.14H9.94v0a10.17,10.17,0,0,1-2-20.07,10.16,10.16,0,0,1,19.21-.08,10.16,10.16,0,0,1,8.09,7.81c.21,0,.41,0,.62,0A6.19,6.19,0,0,1,42,36.47Z"/><path class="cls-5" d="M27.45,17.87V18h-1A4.25,4.25,0,0,0,27.45,17.87Z"/></g></g></svg>