<svg xmlns="http://www.w3.org/2000/svg" xmlns:xlink="http://www.w3.org/1999/xlink" viewBox="0 0 43.33 48.32"><defs><style>.cls-1{fill:#fff;}.cls-2{isolation:isolate;}.cls-3{fill:#3f51b5;}.cls-4{fill:url(#linear-gradient);}.cls-5{fill:url(#linear-gradient-2);}.cls-6{fill:url(#linear-gradient-3);}.cls-7{fill:url(#linear-gradient-4);}.cls-8{opacity:0.8;mix-blend-mode:multiply;}.cls-9{fill:url(#linear-gradient-5);}.cls-10{fill:url(#linear-gradient-6);}.cls-11{fill:url(#linear-gradient-7);}.cls-12{fill:url(#linear-gradient-8);}.cls-13{clip-path:url(#clip-path);}.cls-14{fill:url(#linear-gradient-9);}.cls-15{fill:url(#linear-gradient-10);}.cls-16{fill:url(#linear-gradient-11);}.cls-17{fill:url(#linear-gradient-12);}</style><linearGradient id="linear-gradient" x1="22.27" y1="5.84" x2="13.28" y2="10.76" gradientUnits="userSpaceOnUse"><stop offset="0.01" stop-color="#9fbdd1"/><stop offset="1" stop-color="#dbe4ea"/></linearGradient><linearGradient id="linear-gradient-2" x1="7.79" y1="8.83" x2="22.7" y2="8.83" xlink:href="#linear-gradient"/><linearGradient id="linear-gradient-3" x1="9.89" y1="13.15" x2="24.79" y2="13.15" xlink:href="#linear-gradient"/><linearGradient id="linear-gradient-4" x1="20.01" y1="12.65" x2="20.01" y2="4.1" gradientTransform="matrix(0.99, 0.13, -0.13, 0.99, 4.66, 1.85)" xlink:href="#linear-gradient"/><linearGradient id="linear-gradient-5" x1="20.17" y1="6.59" x2="33.81" y2="9.78" xlink:href="#linear-gradient"/><linearGradient id="linear-gradient-6" x1="19.09" y1="11.25" x2="32.73" y2="14.43" xlink:href="#linear-gradient"/><linearGradient id="linear-gradient-7" x1="8.94" y1="38.49" x2="25.42" y2="9.55" gradientTransform="matrix(0.99, 0.13, -0.13, 0.99, 4.66, 1.85)" gradientUnits="userSpaceOnUse"><stop offset="0" stop-color="#b664f4"/><stop offset="1" stop-color="#03a9f4"/></linearGradient><linearGradient id="linear-gradient-8" x1="43.64" y1="43.42" x2="22.56" y2="28.85" gradientTransform="translate(-0.02 0.2)" xlink:href="#linear-gradient"/><clipPath id="clip-path"><rect id="_Rectangle_" data-name="&lt;Rectangle&gt;" class="cls-1" x="17.48" y="24.62" width="22.91" height="15.79" rx="0.3" ry="0.3" transform="translate(-1.62 1.51) rotate(-2.92)"/></clipPath><linearGradient id="linear-gradient-9" x1="34.2" y1="32.02" x2="36.66" y2="46.75" gradientUnits="userSpaceOnUse"><stop offset="0.01" stop-color="#2af598"/><stop offset="1" stop-color="#08aeea"/></linearGradient><linearGradient id="linear-gradient-10" x1="22.07" y1="30.64" x2="24.53" y2="45.37" xlink:href="#linear-gradient-9"/><linearGradient id="linear-gradient-11" x1="36.68" y1="24.81" x2="35.31" y2="30.75" gradientUnits="userSpaceOnUse"><stop offset="0.01" stop-color="#fa709a"/><stop offset="1" stop-color="#fee140"/></linearGradient><linearGradient id="linear-gradient-12" x1="54.76" y1="39.94" x2="54.35" y2="59.1" gradientTransform="translate(50.26 -23.39) rotate(90)" xlink:href="#linear-gradient-11"/></defs><title>folder_document</title><g class="cls-2"><g id="Layer_2" data-name="Layer 2"><g id="folder_document"><path class="cls-3" d="M27.15,36.75l-.7-.1-22.29-3a2.43,2.43,0,0,1-2.08-2.72L4.74,11.24A2.41,2.41,0,0,1,7.45,9.17l1.94.26A1.28,1.28,0,0,0,10.83,8.3h0a1,1,0,0,1,1.07-.83l2.68.36"/><path class="cls-4" d="M9.78,19.47l-4.87-10a2.06,2.06,0,0,1,1-2.75L19.24.21a2.06,2.06,0,0,1,2.75,1l5,10.23"/><path class="cls-5" d="M8.55,12.84a.75.75,0,0,1-.33-1.43L21.61,4.9a.76.76,0,0,1,1,.35.75.75,0,0,1-.35,1L8.88,12.77A.78.78,0,0,1,8.55,12.84Z"/><path class="cls-6" d="M10.64,17.16a.76.76,0,0,1-.68-.43.77.77,0,0,1,.35-1l13.4-6.5a.74.74,0,0,1,1,.35.76.76,0,0,1-.35,1L11,17.08A.64.64,0,0,1,10.64,17.16Z"/><path class="cls-7" d="M13.61,14.22,15.12,3a2.8,2.8,0,0,1,3-2.57L31.77,2.23A2.8,2.8,0,0,1,33.94,5.5l-1.48,11"/><g class="cls-8"><path class="cls-9" d="M31.25,9.21h-.11l-14.75-2a.76.76,0,1,1,.2-1.5l14.76,2a.76.76,0,0,1-.1,1.51Z"/></g><g class="cls-8"><path class="cls-10" d="M30.6,14h-.1L15.75,12a.75.75,0,0,1-.65-.85.74.74,0,0,1,.85-.65l14.75,2a.75.75,0,0,1-.1,1.5Z"/></g><path class="cls-11" d="M27.05,36.89,3.49,33.72a1.64,1.64,0,0,1-1.2-2.6l8.17-15.59a3.82,3.82,0,0,1,3.59-2l23.56,3.18a1.63,1.63,0,0,1,1.2,2.6L30.64,34.94A3.83,3.83,0,0,1,27.05,36.89Z"/><rect class="cls-12" x="16.63" y="23.78" width="24.61" height="19.38" rx="1.35" ry="1.35" transform="translate(-1.66 1.52) rotate(-2.92)"/><rect id="_Rectangle_2" data-name="&lt;Rectangle&gt;" class="cls-1" x="17.48" y="24.62" width="22.91" height="15.79" rx="0.3" ry="0.3" transform="translate(-1.62 1.51) rotate(-2.92)"/><g class="cls-13"><ellipse class="cls-14" cx="35.58" cy="40.26" rx="7.75" ry="8.06"/><ellipse class="cls-15" cx="23.45" cy="38.88" rx="7.75" ry="8.06"/><ellipse class="cls-16" cx="35.88" cy="28.3" rx="2.48" ry="2.58"/></g><path class="cls-17" d="M22.74,28.81l-18.53-11A2.8,2.8,0,0,0,0,20.25V42.16a2.79,2.79,0,0,0,4.21,2.4l18.53-11A2.79,2.79,0,0,0,22.74,28.81Z"/></g></g></g></svg>