<svg xmlns="http://www.w3.org/2000/svg" xmlns:xlink="http://www.w3.org/1999/xlink" viewBox="0 0 44.05 44.34"><defs><style>.cls-1{fill:#575757;}.cls-2,.cls-4,.cls-6{fill:none;stroke-linecap:round;stroke-linejoin:round;}.cls-2{stroke:#000;stroke-width:1.2px;}.cls-3{fill:#e2e2e2;}.cls-4{stroke:#676767;}.cls-4,.cls-6{stroke-width:1.51px;}.cls-5{fill:url(#linear-gradient);}.cls-6{stroke:#a5a5a5;}.cls-7{fill:url(#linear-gradient-2);}</style><linearGradient id="linear-gradient" x1="23.74" y1="20.61" x2="23.74" y2="9.98" gradientUnits="userSpaceOnUse"><stop offset="0" stop-color="#575757"/><stop offset="1" stop-color="#767676"/></linearGradient><linearGradient id="linear-gradient-2" x1="9.97" y1="52.75" x2="30.47" y2="16.75" gradientUnits="userSpaceOnUse"><stop offset="0" stop-color="#8c8c8c"/><stop offset="1" stop-color="#7f7f7f"/></linearGradient></defs><title>folder_document_na</title><g id="Layer_2" data-name="Layer 2"><g id="folder_document_na"><path class="cls-1" d="M32.37,44.15H3.51a3,3,0,0,1-3-3V16.43a3,3,0,0,1,3-3H5.94a1.61,1.61,0,0,0,1.6-1.63h0a1.18,1.18,0,0,1,1.18-1.2h3.36"/><line class="cls-2" x1="14.86" y1="20.57" x2="33.38" y2="20.57"/><line class="cls-2" x1="14.86" y1="26.54" x2="33.38" y2="26.54"/><path class="cls-3" d="M8.09,25.75.42,14.2a2.58,2.58,0,0,1,.72-3.55L16.55.42a2.58,2.58,0,0,1,3.55.72l7.82,11.79"/><line class="cls-4" x1="5.35" y1="16.84" x2="20.78" y2="6.6"/><line class="cls-4" x1="8.65" y1="21.82" x2="24.08" y2="11.58"/><path class="cls-5" d="M11.94,18.63V4.51A3.47,3.47,0,0,1,15.15.84H32.33a3.48,3.48,0,0,1,3.22,3.67V18.25"/><line class="cls-6" x1="14.2" y1="8.59" x2="32.72" y2="8.59"/><line class="cls-6" x1="14.2" y1="14.56" x2="32.72" y2="14.56"/><path class="cls-7" d="M32.27,44.34H2.7C1,44.34.19,43,.79,41.34L8.28,20.77a4.75,4.75,0,0,1,4.1-3H41.94c1.66,0,2.52,1.35,1.91,3L36.37,41.34A4.76,4.76,0,0,1,32.27,44.34Z"/></g></g></svg>