<svg xmlns="http://www.w3.org/2000/svg" xmlns:xlink="http://www.w3.org/1999/xlink" viewBox="0 0 50.09 41.94"><defs><style>.cls-1{fill:url(#linear-gradient);}.cls-2{isolation:isolate;}.cls-3{fill:#005e69;}.cls-4{clip-path:url(#clip-path);}.cls-5{fill:#fff;}.cls-6{fill:#fb957c;opacity:0.45;mix-blend-mode:multiply;}.cls-7{fill:url(#linear-gradient-3);}</style><linearGradient id="linear-gradient" x1="3.2" y1="24.96" x2="27.75" y2="-0.3" gradientUnits="userSpaceOnUse"><stop offset="0.01" stop-color="#fa709a"/><stop offset="1" stop-color="#fee140"/></linearGradient><clipPath id="clip-path"><path id="_Clipping_Path_" data-name="&lt;Clipping Path&gt;" class="cls-1" d="M31,4.87V19.79a4.87,4.87,0,0,1-4.88,4.87H14l-4.73,5v-5H4.87A4.87,4.87,0,0,1,0,19.79V4.87A4.87,4.87,0,0,1,4.87,0H26.08A4.87,4.87,0,0,1,31,4.87Z"/></clipPath><linearGradient id="linear-gradient-3" x1="46.89" y1="37.22" x2="22.34" y2="11.95" gradientUnits="userSpaceOnUse"><stop offset="0.01" stop-color="#2af598"/><stop offset="1" stop-color="#08aeea"/></linearGradient></defs><title>forum</title><g class="cls-2"><g id="Layer_2" data-name="Layer 2"><g id="forum"><circle class="cls-3" cx="35.27" cy="23.82" r="8.97"/><path id="_Clipping_Path_2" data-name="&lt;Clipping Path&gt;" class="cls-1" d="M31,4.87V19.79a4.87,4.87,0,0,1-4.88,4.87H14l-4.73,5v-5H4.87A4.87,4.87,0,0,1,0,19.79V4.87A4.87,4.87,0,0,1,4.87,0H26.08A4.87,4.87,0,0,1,31,4.87Z"/><g class="cls-4"><path class="cls-5" d="M25.15,7.43H5.88a.76.76,0,0,1-.76-.76.75.75,0,0,1,.76-.75H25.15a.75.75,0,0,1,.76.75A.76.76,0,0,1,25.15,7.43Z"/><path class="cls-5" d="M25.15,13H5.88a.76.76,0,1,1,0-1.52H25.15a.76.76,0,1,1,0,1.52Z"/><path class="cls-5" d="M25.15,18.58H5.88a.76.76,0,0,1-.76-.76.75.75,0,0,1,.76-.75H25.15a.75.75,0,0,1,.76.75A.76.76,0,0,1,25.15,18.58Z"/><path class="cls-6" d="M35.59,29.41H17.35V14A4.08,4.08,0,0,1,21.43,10H35.59Z"/></g><path class="cls-7" d="M50.09,17.13V32a4.88,4.88,0,0,1-4.87,4.88H40.85v5l-4.72-5H24A4.87,4.87,0,0,1,19.14,32V17.13A4.87,4.87,0,0,1,24,12.25H45.22A4.87,4.87,0,0,1,50.09,17.13Z"/><path class="cls-5" d="M24.94,19.68H44.21a.76.76,0,1,0,0-1.51H24.94a.76.76,0,1,0,0,1.51Z"/><path class="cls-5" d="M24.94,25.26H44.21a.76.76,0,0,0,0-1.52H24.94a.76.76,0,0,0,0,1.52Z"/><path class="cls-5" d="M24.94,30.83H44.21a.76.76,0,1,0,0-1.51H24.94a.76.76,0,1,0,0,1.51Z"/></g></g></g></svg>