<svg xmlns="http://www.w3.org/2000/svg" xmlns:xlink="http://www.w3.org/1999/xlink" viewBox="0 0 45.14 52.17"><defs><style>.cls-1{fill:url(#linear-gradient);}.cls-2{isolation:isolate;}.cls-3{clip-path:url(#clip-path);}.cls-4{fill:#3f51b5;opacity:0.3;mix-blend-mode:multiply;}.cls-5{fill:#eaeaea;}.cls-6{fill:none;stroke:#a3bdc9;stroke-linecap:round;stroke-linejoin:round;stroke-width:1.46px;}.cls-7{fill:#fff;}.cls-8{fill:#ffd00d;}</style><linearGradient id="linear-gradient" x1="38.02" y1="-5.81" x2="19.35" y2="36.52" gradientTransform="translate(-5.46 6.38) rotate(-13.79)" gradientUnits="userSpaceOnUse"><stop offset="0.01" stop-color="#2af598"/><stop offset="1" stop-color="#08aeea"/></linearGradient><clipPath id="clip-path"><path id="_Rectangle_" data-name="&lt;Rectangle&gt;" class="cls-1" d="M14.11,3.33H38.65a2.06,2.06,0,0,1,2.06,2.06V45.78a2.45,2.45,0,0,1-2.45,2.45H12.9a6.32,6.32,0,0,1-6.32-6.32v-31a7.54,7.54,0,0,1,7.54-7.54Z" transform="translate(6.83 -4.89) rotate(13.79)"/></clipPath></defs><title>glossary</title><g class="cls-2"><g id="Layer_2" data-name="Layer 2"><g id="glossary"><path id="_Rectangle_2" data-name="&lt;Rectangle&gt;" class="cls-1" d="M14.11,3.33H38.65a2.06,2.06,0,0,1,2.06,2.06V45.78a2.45,2.45,0,0,1-2.45,2.45H12.9a6.32,6.32,0,0,1-6.32-6.32v-31a7.54,7.54,0,0,1,7.54-7.54Z" transform="translate(6.83 -4.89) rotate(13.79)"/><g class="cls-3"><polygon class="cls-4" points="17.14 0.11 7.11 37.6 0 38.36 9.39 1.36 17.14 0.11"/><path class="cls-5" d="M34,52.12,6,45.23c-2.57-.63-4-3.65-3.3-6.7l.06-.24c.73-3,3.39-4.94,5.89-4.32L36.8,40.89A2.49,2.49,0,0,1,38.34,44l-1.49,6.05A2.5,2.5,0,0,1,34,52.12Z"/></g><line class="cls-6" x1="33.46" y1="45.94" x2="7.32" y2="39.53"/><path class="cls-7" d="M23,29.58a1.31,1.31,0,0,1-1.21-1.16L21.61,26l-5.24-1.41-1.5,1.95a1,1,0,0,1-1.23.5L13.4,27a1.3,1.3,0,0,1-.4-1.63l8.05-11.58a1.16,1.16,0,0,1,1.26-.49,1.09,1.09,0,0,1,.8,1l.92,14A1.1,1.1,0,0,1,23,29.58Zm-1.46-5.9-.41-6-3.42,5Z"/><path class="cls-7" d="M36.38,27.36a5.59,5.59,0,1,1-10.8-2.9v0l2.59-9.63a1.1,1.1,0,0,1,2.13.57l-1.44,5.35a5.6,5.6,0,0,1,7.51,6.63Zm-2.13-.57A3.38,3.38,0,0,0,27.72,25v0a3.39,3.39,0,1,0,6.54,1.76Z"/><polyline class="cls-8" points="18.07 0 14.36 15.14 19.38 12.42 23.3 17.58 27.01 2.44"/></g></g></g></svg>