<svg xmlns="http://www.w3.org/2000/svg" xmlns:xlink="http://www.w3.org/1999/xlink" viewBox="0 0 52.22 52.11"><defs><style>.cls-1{fill:url(#linear-gradient);}.cls-2{fill:url(#linear-gradient-2);}.cls-3,.cls-6{fill:none;stroke-linecap:round;stroke-linejoin:round;}.cls-3{stroke:#a5a5a5;stroke-width:1.63px;}.cls-4{fill:#fff;}.cls-5{fill:url(#linear-gradient-3);}.cls-6{stroke:#fff;stroke-width:2.33px;}</style><linearGradient id="linear-gradient" x1="17.82" y1="26.25" x2="-3.84" y2="27.58" gradientTransform="translate(1.41 0.12) rotate(-0.32)" gradientUnits="userSpaceOnUse"><stop offset="0.01" stop-color="#b6b6b6"/><stop offset="1" stop-color="#e2e2e2"/></linearGradient><linearGradient id="linear-gradient-2" x1="23.44" y1="70.88" x2="28.44" y2="13.88" gradientUnits="userSpaceOnUse"><stop offset="0" stop-color="#575757"/><stop offset="1" stop-color="#767676"/></linearGradient><linearGradient id="linear-gradient-3" x1="37.1" y1="25.56" x2="47.1" y2="51.89" gradientUnits="userSpaceOnUse"><stop offset="0.01" stop-color="#aeaeae"/><stop offset="1" stop-color="#838383"/></linearGradient></defs><title>gradebook_na</title><g id="Layer_2" data-name="Layer 2"><g id="gradebook_na"><path class="cls-1" d="M41.11,28.46l3.8,8.95A3.5,3.5,0,0,1,43.06,42L19.8,51.84A3.49,3.49,0,0,1,15.23,50L.28,14.7a3.49,3.49,0,0,1,1.85-4.57L25.38.28A3.49,3.49,0,0,1,30,2.13l10.58,25Z"/><path class="cls-2" d="M44.85,31.79l1.5,9.61a3.49,3.49,0,0,1-2.91,4L18.49,49.29a3.5,3.5,0,0,1-4-2.91L8.59,8.51a3.49,3.49,0,0,1,2.9-4l25-3.9a3.49,3.49,0,0,1,4,2.91l4.19,26.78Z"/><line class="cls-3" x1="16.07" y1="30.46" x2="41.04" y2="26.55"/><line class="cls-3" x1="15.46" y1="26.62" x2="32.39" y2="23.97"/><line class="cls-3" x1="16.69" y1="34.48" x2="41.67" y2="30.58"/><line class="cls-3" x1="17.32" y1="38.51" x2="42.3" y2="34.6"/><line class="cls-3" x1="17.95" y1="42.53" x2="42.93" y2="38.63"/><path class="cls-4" d="M23.26,20.6A1.05,1.05,0,0,1,22,20.15l-.91-1.69-4.27.67L16.37,21a.81.81,0,0,1-.74.76l-.19,0a1,1,0,0,1-.81-1.06l2.11-11A.92.92,0,0,1,17.5,9a.86.86,0,0,1,.92.5l5.18,9.87A.88.88,0,0,1,23.26,20.6Zm-3-3.82-2.24-4.24-.88,4.72Z"/><path class="cls-4" d="M28.75,12l.39,2.46,2.43-.38a.88.88,0,0,1,.27,1.73l-2.43.38.38,2.42a.88.88,0,0,1-1.73.27l-.38-2.42-2.45.39A.88.88,0,1,1,25,15.12l2.45-.39L27,12.27A.88.88,0,1,1,28.75,12Z"/><circle class="cls-5" cx="42.93" cy="40.91" r="9.29"/><polyline class="cls-6" points="37.71 42.88 40.82 46.08 47.55 36.66"/></g></g></svg>