<svg xmlns="http://www.w3.org/2000/svg" xmlns:xlink="http://www.w3.org/1999/xlink" viewBox="0 0 45.16 54"><defs><style>.cls-1{fill:url(#linear-gradient);}.cls-2{fill:url(#linear-gradient-2);}.cls-3{fill:url(#linear-gradient-3);}.cls-4{fill:url(#linear-gradient-4);}.cls-5{fill:url(#linear-gradient-5);}.cls-6{fill:url(#linear-gradient-6);}.cls-7{fill:url(#linear-gradient-7);}.cls-8{fill:url(#linear-gradient-8);}.cls-9{fill:url(#linear-gradient-9);}.cls-10{fill:url(#linear-gradient-10);}.cls-11{fill:url(#linear-gradient-11);}.cls-12{fill:url(#linear-gradient-12);}.cls-13{fill:url(#linear-gradient-13);}.cls-14{fill:url(#linear-gradient-14);}.cls-15{fill:url(#linear-gradient-15);}</style><linearGradient id="linear-gradient" x1="7.6" y1="49.34" x2="13.89" y2="17.47" gradientUnits="userSpaceOnUse"><stop offset="0.01" stop-color="#85ffbd"/><stop offset="1" stop-color="#fffb7d"/></linearGradient><linearGradient id="linear-gradient-2" x1="-0.87" y1="47.67" x2="5.43" y2="15.8" xlink:href="#linear-gradient"/><linearGradient id="linear-gradient-3" x1="24.33" y1="52.65" x2="30.63" y2="20.78" xlink:href="#linear-gradient"/><linearGradient id="linear-gradient-4" x1="11.48" y1="50.11" x2="17.78" y2="18.24" xlink:href="#linear-gradient"/><linearGradient id="linear-gradient-5" x1="31.58" y1="10.46" x2="33.5" y2="53.86" gradientUnits="userSpaceOnUse"><stop offset="0.01" stop-color="#2af598"/><stop offset="1" stop-color="#08aeea"/></linearGradient><linearGradient id="linear-gradient-6" x1="17.59" y1="11.08" x2="19.51" y2="54.48" xlink:href="#linear-gradient-5"/><linearGradient id="linear-gradient-7" x1="43.68" y1="9.93" x2="45.6" y2="53.33" xlink:href="#linear-gradient-5"/><linearGradient id="linear-gradient-8" x1="30.63" y1="10.51" x2="32.55" y2="53.91" xlink:href="#linear-gradient-5"/><linearGradient id="linear-gradient-9" x1="23.53" y1="15.29" x2="25.26" y2="63.69" gradientUnits="userSpaceOnUse"><stop offset="0" stop-color="#b664f4"/><stop offset="1" stop-color="#03a9f4"/></linearGradient><linearGradient id="linear-gradient-10" x1="9.71" y1="15.79" x2="11.44" y2="64.18" xlink:href="#linear-gradient-9"/><linearGradient id="linear-gradient-11" x1="35.82" y1="14.86" x2="37.55" y2="63.25" xlink:href="#linear-gradient-9"/><linearGradient id="linear-gradient-12" x1="22.76" y1="15.32" x2="24.49" y2="63.72" xlink:href="#linear-gradient-9"/><linearGradient id="linear-gradient-13" x1="21.77" y1="17.37" x2="22.58" y2="0.85" gradientUnits="userSpaceOnUse"><stop offset="0.01" stop-color="#fa709a"/><stop offset="1" stop-color="#fee140"/></linearGradient><linearGradient id="linear-gradient-14" x1="22.94" y1="16.33" x2="23.5" y2="5.01" xlink:href="#linear-gradient-13"/><linearGradient id="linear-gradient-15" x1="21.56" y1="16.33" x2="22.11" y2="5.01" xlink:href="#linear-gradient-13"/></defs><title>group</title><g id="Layer_2" data-name="Layer 2"><g id="group"><path class="cls-1" d="M13.08,30.52c3.82,0,6.92-3.76,6.92-8.41s-1-8.4-6.92-8.4-6.93,3.76-6.93,8.4S9.25,30.52,13.08,30.52Z"/><path class="cls-2" d="M0,43.36Z"/><path class="cls-3" d="M26.15,43.58Z"/><path class="cls-4" d="M26.13,43C26,34.93,25,32.63,16.87,31.17a4.85,4.85,0,0,1-3.79,1.45,4.86,4.86,0,0,1-3.8-1.45C1.29,32.61.17,34.88,0,42.76c0,.64,0,.67,0,.6v.85s1.93,3.88,13.08,3.88,13.07-3.88,13.07-3.88v-.63A4.23,4.23,0,0,1,26.13,43Z"/><path class="cls-5" d="M32.09,30.52c3.82,0,6.92-3.76,6.92-8.41s-1-8.4-6.92-8.4-6.92,3.76-6.92,8.4S28.27,30.52,32.09,30.52Z"/><path class="cls-6" d="M19,43.36Z"/><path class="cls-7" d="M45.16,43.58c0-.08,0-.54,0,0Z"/><path class="cls-8" d="M45.15,43C45,34.93,44,32.63,35.88,31.17a4.85,4.85,0,0,1-3.79,1.45,4.85,4.85,0,0,1-3.79-1.45c-8,1.44-9.12,3.71-9.27,11.59,0,.64,0,.67,0,.6,0,.14,0,.4,0,.85,0,0,1.92,3.88,13.07,3.88s13.07-3.88,13.07-3.88v-.63C45.16,43.63,45.16,43.54,45.15,43Z"/><path class="cls-9" d="M24,36.43c3.83,0,6.92-3.76,6.92-8.41s-1-8.4-6.92-8.4-6.92,3.76-6.92,8.4S20.16,36.43,24,36.43Z"/><path class="cls-10" d="M10.91,49.27Z"/><path class="cls-11" d="M37.06,49.49Z"/><path class="cls-12" d="M37,48.93c-.13-8.09-1.18-10.39-9.27-11.85A4.85,4.85,0,0,1,24,38.53a4.85,4.85,0,0,1-3.79-1.45c-8,1.44-9.11,3.71-9.26,11.59,0,.64,0,.67,0,.6v.85S12.83,54,24,54s13.08-3.88,13.08-3.88v-.63S37.05,49.45,37,48.93Z"/><path class="cls-13" d="M28,4.91a5.72,5.72,0,0,1-1.75,5,4.55,4.55,0,0,0-1.37,3.36h0a1.66,1.66,0,0,1-1.66,1.66H21.6A1.61,1.61,0,0,1,20,13.31h0A4.37,4.37,0,0,0,18.57,10,5.71,5.71,0,0,1,23,0,5.77,5.77,0,0,1,28,4.91Z"/><rect class="cls-14" x="22.89" y="4.42" width="0.77" height="10.25" rx="0.38" ry="0.38"/><rect class="cls-15" x="21.51" y="4.42" width="0.77" height="10.25" rx="0.38" ry="0.38"/></g></g></svg>