<svg xmlns="http://www.w3.org/2000/svg" xmlns:xlink="http://www.w3.org/1999/xlink" viewBox="0 0 50.5 42.19"><defs><style>.cls-1{fill:url(#linear-gradient);}.cls-2{fill:#fff;}.cls-3{fill:#1aaaa6;}.cls-4{fill:url(#linear-gradient-2);}.cls-5{fill:none;stroke:#fff;stroke-linecap:round;stroke-linejoin:round;stroke-width:1.51px;}</style><linearGradient id="linear-gradient" x1="11.57" y1="41.78" x2="18.62" y2="12.41" gradientUnits="userSpaceOnUse"><stop offset="0.01" stop-color="#fa709a"/><stop offset="1" stop-color="#fee140"/></linearGradient><linearGradient id="linear-gradient-2" x1="35.06" y1="38.83" x2="35.06" y2="2.2" gradientUnits="userSpaceOnUse"><stop offset="0.01" stop-color="#2af598"/><stop offset="1" stop-color="#08aeea"/></linearGradient></defs><title>info</title><g id="Layer_2" data-name="Layer 2"><g id="info"><circle class="cls-1" cx="15.09" cy="27.1" r="15.09"/><path class="cls-2" d="M16.65,21.68a2.53,2.53,0,0,1-1.86.75,2.6,2.6,0,0,1-1.89-.77,2.48,2.48,0,0,1-.74-1.79,2.42,2.42,0,0,1,.74-1.78,2.56,2.56,0,0,1,1.89-.77,2.5,2.5,0,0,1,1.87.77,2.37,2.37,0,0,1,.76,1.78A2.49,2.49,0,0,1,16.65,21.68ZM14.83,37A2.47,2.47,0,0,1,13,36.3a2.38,2.38,0,0,1-.73-1.75v-9A2.37,2.37,0,0,1,13,23.87a2.48,2.48,0,0,1,1.84-.76h0a2.53,2.53,0,0,1,2.55,2.48v9a2.3,2.3,0,0,1-.73,1.73,2.47,2.47,0,0,1-1.82.75Z"/><polygon class="cls-3" points="34.51 23.57 28.84 29.62 28.84 23.45 34.51 23.57"/><rect class="cls-4" x="19.62" width="30.88" height="24.61" rx="4.86" ry="4.86"/><line class="cls-5" x1="25.48" y1="6.66" x2="44.7" y2="6.66"/><line class="cls-5" x1="25.48" y1="12.22" x2="44.7" y2="12.22"/><line class="cls-5" x1="25.48" y1="17.78" x2="44.7" y2="17.78"/></g></g></svg>