<svg xmlns="http://www.w3.org/2000/svg" xmlns:xlink="http://www.w3.org/1999/xlink" viewBox="0 0 49.48 45.76"><defs><style>.cls-1{fill:#a5a5a5;}.cls-2{fill:url(#linear-gradient);}.cls-3{fill:url(#linear-gradient-2);}.cls-4{fill:#a6a6a6;}</style><linearGradient id="linear-gradient" x1="29.31" y1="10.05" x2="13.02" y2="32.12" gradientUnits="userSpaceOnUse"><stop offset="0.01" stop-color="#aeaeae"/><stop offset="1" stop-color="#838383"/></linearGradient><linearGradient id="linear-gradient-2" x1="47.76" y1="3.37" x2="25.69" y2="25.18" gradientUnits="userSpaceOnUse"><stop offset="0.01" stop-color="#9e9e9e"/><stop offset="1" stop-color="#d8d8d8"/></linearGradient></defs><title>links_na</title><g id="Layer_2" data-name="Layer 2"><g id="links_na"><path class="cls-1" d="M8,44.55,2.42,40.36a6.08,6.08,0,0,1-1.21-8.49l13.15-17.5a6.07,6.07,0,0,1,8.49-1.2l5.57,4.18a6.06,6.06,0,0,1,1.21,8.49L16.48,43.34A6.06,6.06,0,0,1,8,44.55ZM20.48,16.33a2.11,2.11,0,0,0-3,.42L4.37,34.25a2.11,2.11,0,0,0,.42,3l5.58,4.19a2.11,2.11,0,0,0,3-.42l13.15-17.5a2.12,2.12,0,0,0-.42-3Z"/><path class="cls-2" d="M28.42,17.36l-1.08-.83-3.16-2.37-1.33-1a6.07,6.07,0,0,0-8.49,1.2L1.22,31.87a6.06,6.06,0,0,0,1.2,8.49L8,44.55a6.07,6.07,0,0,0,8.49-1.2L25.31,31.6l-3.17-2.37L13.32,41a2.11,2.11,0,0,1-3,.42L4.79,37.2a2.1,2.1,0,0,1-.41-3l13.14-17.5a2.12,2.12,0,0,1,3-.43l1.32,1L25,19.7l1.09.81a2.11,2.11,0,0,1,.42,3l-1.95,2.6,3.15,2.37,2-2.59A6.07,6.07,0,0,0,28.42,17.36Z"/><path class="cls-3" d="M47.06,5.4,41.48,1.21A6.07,6.07,0,0,0,33,2.43L24.18,14.16,21.8,17.32l-1.95,2.61a6.07,6.07,0,0,0,1.2,8.49l1.09.81,2.38-3.16-1.09-.81a2.12,2.12,0,0,1-.42-3L25,19.7l2.38-3.17L36.15,4.79a2.14,2.14,0,0,1,3-.42l5.57,4.19a2.14,2.14,0,0,1,.42,3L32,29a2.13,2.13,0,0,1-3,.41l-1.33-1L25.31,31.6l1.32,1a6.07,6.07,0,0,0,8.49-1.21l13.15-17.5A6.07,6.07,0,0,0,47.06,5.4Z"/><path class="cls-4" d="M24.52,26.07l-2.38,3.16-1.09-.81a4.91,4.91,0,0,1-.63-.57l2.36-3.42a2.17,2.17,0,0,0,.65.83Z"/><path class="cls-4" d="M29.88,29.83l-2.31,3.34a5.36,5.36,0,0,1-.94-.57l-1.32-1,2.36-3.16,1.33,1A2.48,2.48,0,0,0,29.88,29.83Z"/></g></g></svg>