<svg xmlns="http://www.w3.org/2000/svg" xmlns:xlink="http://www.w3.org/1999/xlink" viewBox="0 0 39.09 42.47"><defs><style>.cls-1{fill:url(#linear-gradient);}.cls-2{fill:url(#linear-gradient-2);}.cls-3{fill:url(#linear-gradient-3);}.cls-4{fill:url(#linear-gradient-4);}.cls-5{fill:url(#linear-gradient-5);}</style><linearGradient id="linear-gradient" x1="18.74" y1="59.76" x2="19.6" y2="17.06" gradientUnits="userSpaceOnUse"><stop offset="0.01" stop-color="#9fbdd1"/><stop offset="1" stop-color="#dbe4ea"/></linearGradient><linearGradient id="linear-gradient-2" x1="19.2" y1="0.31" x2="22.71" y2="39.88" gradientUnits="userSpaceOnUse"><stop offset="0.01" stop-color="#2af598"/><stop offset="1" stop-color="#08aeea"/></linearGradient><linearGradient id="linear-gradient-3" x1="3.27" y1="1.73" x2="6.78" y2="41.29" xlink:href="#linear-gradient-2"/><linearGradient id="linear-gradient-4" x1="31.06" y1="-0.74" x2="34.57" y2="38.82" xlink:href="#linear-gradient-2"/><linearGradient id="linear-gradient-5" x1="17.27" y1="0.41" x2="20.79" y2="40.1" xlink:href="#linear-gradient-2"/></defs><title>members</title><g id="Layer_2" data-name="Layer 2"><g id="members"><circle class="cls-1" cx="19.55" cy="19.55" r="19.55"/><path class="cls-2" d="M20.44,23.65c4.1,0,7.42-4,7.42-9s-1.09-9-7.42-9-7.42,4-7.42,9S16.34,23.65,20.44,23.65Z"/><path class="cls-3" d="M6.43,37.4Z"/><path class="cls-4" d="M34.45,37.64Z"/><path class="cls-5" d="M34.47,37c0-.3,0-.6-.07-.88-.06-.87,0-1.73-.07-2.6a11,11,0,0,0-1.43-5.18c-1.43-2.28-4.54-3.47-7.1-3.79a2.56,2.56,0,0,0-2,.36,5.93,5.93,0,0,1-3.36.94A5.93,5.93,0,0,1,17.08,25a2.56,2.56,0,0,0-2-.36C7.69,26.16,6.6,28.76,6.45,36.76c0,.69,0,.72,0,.65a2.49,2.49,0,0,0,.86,1.88c1.41,1.22,5,3.18,13.15,3.18,4.38,0,9.2-.21,12.86-2.92a3.05,3.05,0,0,0,.89-.9A2.81,2.81,0,0,0,34.47,37Z"/></g></g></svg>