<svg xmlns="http://www.w3.org/2000/svg" xmlns:xlink="http://www.w3.org/1999/xlink" viewBox="0 0 53.44 33.63"><defs><style>.cls-1{fill:url(#linear-gradient);}.cls-2{isolation:isolate;}.cls-3{clip-path:url(#clip-path);}.cls-4{fill:#fff;}.cls-5{opacity:0.8;mix-blend-mode:multiply;fill:url(#linear-gradient-3);}.cls-6{fill:url(#linear-gradient-4);}</style><linearGradient id="linear-gradient" x1="-159.49" y1="13.97" x2="-187.12" y2="-30.98" gradientTransform="translate(200.19 43.02)" gradientUnits="userSpaceOnUse"><stop offset="0.01" stop-color="#9e9e9e"/><stop offset="1" stop-color="#d8d8d8"/></linearGradient><clipPath id="clip-path"><rect id="_Rectangle_" data-name="&lt;Rectangle&gt;" class="cls-1" x="2.19" y="2.19" width="25.07" height="25.07" rx="5.05" ry="5.05" transform="translate(-4.32 6.3) rotate(-21.14)"/></clipPath><linearGradient id="linear-gradient-3" x1="-170.82" y1="-18.55" x2="-181.62" y2="-28.83" gradientTransform="translate(201.93 37.71)" xlink:href="#linear-gradient"/><linearGradient id="linear-gradient-4" x1="-149.8" y1="8.33" x2="-177.42" y2="-36.63" gradientTransform="translate(203.31 34.65)" xlink:href="#linear-gradient"/></defs><title>notebook_na</title><g class="cls-2"><g id="Layer_2" data-name="Layer 2"><g id="notebook_na"><rect id="_Rectangle_2" data-name="&lt;Rectangle&gt;" class="cls-1" x="2.19" y="2.19" width="25.07" height="25.07" rx="5.05" ry="5.05" transform="translate(-4.32 6.3) rotate(-21.14)"/><g class="cls-3"><path class="cls-4" d="M20.54,8.11,5.85,13.79a.9.9,0,0,1-.64-1.68L19.89,6.43a.9.9,0,1,1,.65,1.68Z"/><path class="cls-4" d="M22.32,12.71,7.63,18.39A.9.9,0,0,1,7,16.71L21.67,11a.9.9,0,1,1,.65,1.68Z"/><path class="cls-4" d="M24.4,18.08,9.71,23.76a.89.89,0,0,1-1.16-.52.9.9,0,0,1,.51-1.16L23.75,16.4a.9.9,0,0,1,.65,1.68Z"/><path class="cls-5" d="M29.16,7.58h1.32a6.07,6.07,0,0,1,6.07,6.07V19.8a6.07,6.07,0,0,1-6.07,6.07H24.91a1.82,1.82,0,0,1-1.82-1.82V13.65a6.07,6.07,0,0,1,6.07-6.07Z" transform="translate(-4.02 11.88) rotate(-21.14)"/></g><rect class="cls-6" x="26.18" y="6.36" width="25.07" height="25.07" rx="5.05" ry="5.05" transform="translate(-4.21 15.23) rotate(-21.14)"/><path class="cls-4" d="M44.53,12.28,29.84,18a.9.9,0,1,1-.65-1.68L43.88,10.6a.9.9,0,0,1,.65,1.68Z"/><path class="cls-4" d="M46.31,16.88,31.62,22.56A.9.9,0,1,1,31,20.88L45.66,15.2a.9.9,0,0,1,.65,1.68Z"/><path class="cls-4" d="M48.38,22.25,33.69,27.93a.91.91,0,0,1-1.16-.52A.9.9,0,0,1,33,26.25l14.69-5.68a.89.89,0,0,1,1.16.51A.9.9,0,0,1,48.38,22.25Z"/></g></g></g></svg>