<svg xmlns="http://www.w3.org/2000/svg" xmlns:xlink="http://www.w3.org/1999/xlink" viewBox="0 0 51.77 44.89"><defs><style>.cls-1{fill:url(#linear-gradient);}.cls-2{clip-path:url(#clip-path);}.cls-3{fill:#767676;}.cls-4{fill:none;stroke:#676767;stroke-linecap:round;stroke-linejoin:round;stroke-width:1.32px;}.cls-5{fill:url(#linear-gradient-3);}.cls-6{fill:url(#linear-gradient-4);}</style><linearGradient id="linear-gradient" x1="22.97" y1="-24.38" x2="22.97" y2="24.59" gradientTransform="translate(3.62 -3.19) rotate(8.61)" gradientUnits="userSpaceOnUse"><stop offset="0.01" stop-color="#b6b6b6"/><stop offset="1" stop-color="#e2e2e2"/></linearGradient><clipPath id="clip-path"><rect id="_Rectangle_" data-name="&lt;Rectangle&gt;" class="cls-1" x="8.1" y="1.55" width="29.74" height="41.79" rx="3.22" ry="3.22" transform="translate(-3.1 3.69) rotate(-8.61)"/></clipPath><linearGradient id="linear-gradient-3" x1="15.95" y1="6.05" x2="10.28" y2="16.22" gradientUnits="userSpaceOnUse"><stop offset="0.01" stop-color="#9e9e9e"/><stop offset="1" stop-color="#d8d8d8"/></linearGradient><linearGradient id="linear-gradient-4" x1="50.3" y1="19.65" x2="32.8" y2="45.32" xlink:href="#linear-gradient-3"/></defs><title>quiz_na</title><g id="Layer_2" data-name="Layer 2"><g id="quiz_na"><rect id="_Rectangle_2" data-name="&lt;Rectangle&gt;" class="cls-1" x="8.1" y="1.55" width="29.74" height="41.79" rx="3.22" ry="3.22" transform="translate(-3.1 3.69) rotate(-8.61)"/><g class="cls-2"><path class="cls-3" d="M11.11,10.15l-9.6,1.46L0,1.65,10.87,0,12.19,8.7A1.28,1.28,0,0,1,11.11,10.15Z"/></g><line class="cls-4" x1="14.94" y1="11.75" x2="32.69" y2="9.06"/><line class="cls-4" x1="15.28" y1="13.98" x2="25.6" y2="12.42"/><line class="cls-4" x1="16.4" y1="21.41" x2="26.72" y2="19.85"/><line class="cls-4" x1="17.53" y1="28.84" x2="27.85" y2="27.28"/><line class="cls-4" x1="18.65" y1="36.28" x2="28.97" y2="34.71"/><line class="cls-4" x1="16.06" y1="19.18" x2="33.82" y2="16.49"/><line class="cls-4" x1="17.19" y1="26.61" x2="34.94" y2="23.93"/><line class="cls-4" x1="18.32" y1="34.05" x2="36.07" y2="31.36"/><rect class="cls-4" x="9.19" y="12.14" width="4.24" height="4.24" rx="0.54" ry="0.54" transform="translate(-2.01 1.85) rotate(-8.61)"/><rect class="cls-4" x="10.32" y="19.57" width="4.24" height="4.24" rx="0.54" ry="0.54" transform="translate(-3.11 2.11) rotate(-8.61)"/><rect class="cls-4" x="11.44" y="27" width="4.24" height="4.24" rx="0.54" ry="0.54" transform="translate(-4.21 2.36) rotate(-8.61)"/><rect class="cls-4" x="12.57" y="34.44" width="4.24" height="4.24" rx="0.54" ry="0.54" transform="matrix(0.99, -0.15, 0.15, 0.99, -5.31, 2.61)"/><path class="cls-5" d="M12.17,16.06a.73.73,0,0,1-.4-.13l-2-1.53a.66.66,0,0,1,.79-1.05l1.39,1.05,2.61-5.14a.66.66,0,1,1,1.17.6l-3,5.84a.66.66,0,0,1-.44.34Z"/><path class="cls-6" d="M39.87,44.45a2.13,2.13,0,0,1-1.3-.44L32,39a2.17,2.17,0,1,1,2.62-3.45L39.12,39l8.56-16.86a2.16,2.16,0,0,1,3.86,2L41.8,43.27a2.19,2.19,0,0,1-1.44,1.13A2.72,2.72,0,0,1,39.87,44.45Z"/></g></g></svg>