<svg xmlns="http://www.w3.org/2000/svg" xmlns:xlink="http://www.w3.org/1999/xlink" viewBox="0 0 49.3 51.1"><defs><style>.cls-1{fill:url(#linear-gradient);}.cls-2{fill:url(#linear-gradient-2);}.cls-3{fill:url(#linear-gradient-3);}.cls-4{fill:url(#linear-gradient-4);}.cls-5{fill:url(#linear-gradient-5);}</style><linearGradient id="linear-gradient" x1="28.77" y1="-2.84" x2="14.38" y2="41.81" gradientUnits="userSpaceOnUse"><stop offset="0" stop-color="#b664f4"/><stop offset="1" stop-color="#03a9f4"/></linearGradient><linearGradient id="linear-gradient-2" x1="30.08" y1="37.39" x2="5.47" y2="10.95" gradientTransform="translate(12.34 52.89) rotate(-111.91)" gradientUnits="userSpaceOnUse"><stop offset="0.01" stop-color="#9fbdd1"/><stop offset="1" stop-color="#dbe4ea"/></linearGradient><linearGradient id="linear-gradient-3" x1="18.51" y1="27.6" x2="39.1" y2="54.29" gradientTransform="translate(12.34 52.89) rotate(-111.91)" gradientUnits="userSpaceOnUse"><stop offset="0.01" stop-color="#fa709a"/><stop offset="1" stop-color="#fee140"/></linearGradient><linearGradient id="linear-gradient-4" x1="25.95" y1="33.94" x2="39.65" y2="51.66" xlink:href="#linear-gradient-3"/><linearGradient id="linear-gradient-5" x1="22.88" y1="36.32" x2="36.57" y2="54.04" xlink:href="#linear-gradient-3"/></defs><title>references</title><g id="Layer_2" data-name="Layer 2"><g id="references"><g id="Settings"><path class="cls-1" d="M41.75,19.12a1.35,1.35,0,0,0-1.34-1,4.63,4.63,0,0,1-3.17-8,1.16,1.16,0,0,0,.13-1.58,21,21,0,0,0-3.32-3.35,1.16,1.16,0,0,0-1.59.13,4.84,4.84,0,0,1-5.22,1.18,4.65,4.65,0,0,1-2.83-4.55,1.17,1.17,0,0,0-1-1.22,20.61,20.61,0,0,0-4.71,0,1.17,1.17,0,0,0-1,1.2A4.66,4.66,0,0,1,14.76,6.3,4.83,4.83,0,0,1,9.58,5.12,1.16,1.16,0,0,0,8,5,20.28,20.28,0,0,0,4.61,8.34a1.16,1.16,0,0,0,.13,1.59,4.66,4.66,0,0,1,1.17,5.22A4.85,4.85,0,0,1,1.35,18,1.14,1.14,0,0,0,.14,19a21.13,21.13,0,0,0,0,4.77,1.38,1.38,0,0,0,1.37,1,4.6,4.6,0,0,1,4.31,2.87,4.63,4.63,0,0,1-1.17,5.18,1.16,1.16,0,0,0-.12,1.58,20.18,20.18,0,0,0,3.31,3.35,1.15,1.15,0,0,0,1.59-.12,4.83,4.83,0,0,1,5.22-1.18A4.66,4.66,0,0,1,17.48,41a1.16,1.16,0,0,0,1,1.22,19.53,19.53,0,0,0,2.42.14,19.83,19.83,0,0,0,2.3-.13,1.16,1.16,0,0,0,1-1.19,4.66,4.66,0,0,1,2.87-4.47,4.85,4.85,0,0,1,5.19,1.18,1.17,1.17,0,0,0,1.58.13,20.6,20.6,0,0,0,3.38-3.35A1.15,1.15,0,0,0,37.15,33,4.63,4.63,0,0,1,36,27.75a4.68,4.68,0,0,1,4.28-2.84h.26a1.15,1.15,0,0,0,1.22-1A20.57,20.57,0,0,0,41.75,19.12ZM21,28.48a7,7,0,1,1,7-7A7,7,0,0,1,21,28.48Z"/></g><path class="cls-2" d="M35.72,16.4l1.23.79a2.35,2.35,0,0,1,.73,3.2l-15.62,25,.9.89a1,1,0,0,1-.18,1.51l-3.46,2c-1.51,1-2.76,1.83-4.16.93h0c-1.41-.9-1.26-2.38-1-4.21l.46-3.7a.79.79,0,0,1,.91-.7l1.26.19L32.56,17.11A2.28,2.28,0,0,1,35.72,16.4Z"/><path class="cls-3" d="M44.61.74l2.5,1.6a4.8,4.8,0,0,1,1.48,6.54l-9.4,15.05c-1.8,2.89-1.33,6.49-8.5,1.9h0c-8-5.1-3.75-5.71-2-8.59l9.4-15.06A4.67,4.67,0,0,1,44.61.74Z"/><path class="cls-4" d="M43.12,3A1.42,1.42,0,0,1,43,4.29L34.06,18.62a1.42,1.42,0,1,1-2.4-1.5L40.6,2.8a1.42,1.42,0,0,1,1.95-.46A1.46,1.46,0,0,1,43.12,3Z"/><path class="cls-5" d="M46.4,5.12a1.4,1.4,0,0,1-.12,1.27L37.34,20.72a1.42,1.42,0,1,1-2.4-1.5L43.88,4.9a1.42,1.42,0,0,1,1.95-.46A1.44,1.44,0,0,1,46.4,5.12Z"/></g></g></svg>