<svg xmlns="http://www.w3.org/2000/svg" xmlns:xlink="http://www.w3.org/1999/xlink" viewBox="0 0 46.07 51.27"><defs><style>.cls-1{fill:url(#linear-gradient);}.cls-2{fill:url(#linear-gradient-2);}.cls-3{clip-path:url(#clip-path);}.cls-4{fill:#696969;}.cls-5{fill:#eaeaea;}.cls-6{fill:none;stroke:#b7b7b7;stroke-linecap:round;stroke-linejoin:round;stroke-width:1.46px;}.cls-7{fill:#c9c9c9;}.cls-8{clip-path:url(#clip-path-2);}.cls-9{fill:#6d6d6d;}.cls-10{fill:#cecece;}</style><linearGradient id="linear-gradient" x1="24.03" y1="12.87" x2="30.18" y2="43.15" gradientTransform="translate(6.59 -4.87) rotate(11.44)" gradientUnits="userSpaceOnUse"><stop offset="0" stop-color="#8c8c8c"/><stop offset="1" stop-color="#7f7f7f"/></linearGradient><linearGradient id="linear-gradient-2" x1="23.11" y1="38.11" x2="14.81" y2="0.15" gradientTransform="translate(4.47 -3.41) rotate(11.44)" gradientUnits="userSpaceOnUse"><stop offset="0.01" stop-color="#dadada"/><stop offset="1" stop-color="#666"/></linearGradient><clipPath id="clip-path"><path id="_Rectangle_" data-name="&lt;Rectangle&gt;" class="cls-1" d="M21,11.92H39.64A2.06,2.06,0,0,1,41.69,14V46.54A2.45,2.45,0,0,1,39.25,49H19.83a6.32,6.32,0,0,1-6.32-6.32V19.45A7.54,7.54,0,0,1,21,11.92Z" transform="translate(-5.49 6.08) rotate(-11.44)"/></clipPath><clipPath id="clip-path-2"><path id="_Rectangle_2" data-name="&lt;Rectangle&gt;" class="cls-2" d="M12.69,2.06H31.28a2.06,2.06,0,0,1,2.06,2.06V36.68a2.45,2.45,0,0,1-2.45,2.45H11.48a6.32,6.32,0,0,1-6.32-6.32V9.6a7.54,7.54,0,0,1,7.54-7.54Z" transform="translate(-3.7 4.23) rotate(-11.44)"/></clipPath></defs><title>scorms_na</title><g id="Layer_2" data-name="Layer 2"><g id="scorms_na"><path id="_Rectangle_3" data-name="&lt;Rectangle&gt;" class="cls-1" d="M21,11.92H39.64A2.06,2.06,0,0,1,41.69,14V46.54A2.45,2.45,0,0,1,39.25,49H19.83a6.32,6.32,0,0,1-6.32-6.32V19.45A7.54,7.54,0,0,1,21,11.92Z" transform="translate(-5.49 6.08) rotate(-11.44)"/><g class="cls-3"><polygon class="cls-4" points="13.71 13.57 19.41 45.1 14.37 48.17 8.36 17.23 13.71 13.57"/><path class="cls-5" d="M44.64,46.47,21.23,51.2c-2.13.44-4.3-1.29-4.82-3.84l0-.2c-.5-2.49.8-4.88,2.89-5.3l23.48-4.75A2,2,0,0,1,45,38.9l1,5A2.07,2.07,0,0,1,44.64,46.47Z"/></g><line class="cls-6" x1="42.03" y1="42.06" x2="20.24" y2="46.47"/><polyline class="cls-7" points="12.52 8.55 15.08 21.16 17.87 17.36 22.61 19.84 20.06 7.22"/><path id="_Rectangle_4" data-name="&lt;Rectangle&gt;" class="cls-2" d="M12.69,2.06H31.28a2.06,2.06,0,0,1,2.06,2.06V36.68a2.45,2.45,0,0,1-2.45,2.45H11.48a6.32,6.32,0,0,1-6.32-6.32V9.6a7.54,7.54,0,0,1,7.54-7.54Z" transform="translate(-3.7 4.23) rotate(-11.44)"/><g class="cls-8"><polygon class="cls-9" points="5.35 3.71 11.05 35.24 6.01 38.31 0 7.37 5.35 3.71"/><path class="cls-5" d="M36.28,36.61l-23.4,4.73c-2.14.44-4.31-1.29-4.82-3.84l0-.2c-.51-2.49.79-4.88,2.88-5.3l23.49-4.75A2.06,2.06,0,0,1,36.64,29l1,5A2.06,2.06,0,0,1,36.28,36.61Z"/></g><line class="cls-6" x1="33.67" y1="32.2" x2="11.89" y2="36.61"/><polyline class="cls-10" points="6.01 3.3 8.56 15.91 11.36 12.12 16.1 14.59 13.55 1.98"/></g></g></svg>