<svg xmlns="http://www.w3.org/2000/svg" xmlns:xlink="http://www.w3.org/1999/xlink" viewBox="0 0 46.52 57.16"><defs><style>.cls-1{fill:url(#linear-gradient);}.cls-2{fill:url(#linear-gradient-2);}.cls-3{fill:url(#linear-gradient-3);}.cls-4{fill:url(#linear-gradient-4);}.cls-5{fill:url(#linear-gradient-5);}.cls-6{fill:url(#linear-gradient-6);}.cls-7{fill:url(#linear-gradient-7);}.cls-8{fill:url(#linear-gradient-8);}.cls-9{fill:url(#linear-gradient-9);}</style><linearGradient id="linear-gradient" x1="230.41" y1="11.99" x2="232" y2="-30.87" gradientTransform="translate(-199.54 -46.6) rotate(22.05)" gradientUnits="userSpaceOnUse"><stop offset="0.01" stop-color="#b6b6b6"/><stop offset="1" stop-color="#e2e2e2"/></linearGradient><linearGradient id="linear-gradient-2" x1="229" y1="-28.33" x2="235.92" y2="2.89" gradientTransform="translate(-199.54 -46.6) rotate(22.05)" gradientUnits="userSpaceOnUse"><stop offset="0" stop-color="#575757"/><stop offset="1" stop-color="#767676"/></linearGradient><linearGradient id="linear-gradient-3" x1="225.15" y1="-27.48" x2="232.06" y2="3.74" xlink:href="#linear-gradient-2"/><linearGradient id="linear-gradient-4" x1="228.74" y1="-28.28" x2="235.66" y2="2.94" xlink:href="#linear-gradient-2"/><linearGradient id="linear-gradient-5" x1="228.48" y1="-28.22" x2="235.4" y2="3" xlink:href="#linear-gradient-2"/><linearGradient id="linear-gradient-6" x1="228.23" y1="-28.16" x2="235.14" y2="3.06" xlink:href="#linear-gradient-2"/><linearGradient id="linear-gradient-7" x1="17.43" y1="42.62" x2="46.52" y2="42.62" gradientUnits="userSpaceOnUse"><stop offset="0.01" stop-color="#aeaeae"/><stop offset="1" stop-color="#838383"/></linearGradient><linearGradient id="linear-gradient-8" x1="31" y1="55.34" x2="33.07" y2="24.53" gradientUnits="userSpaceOnUse"><stop offset="0.01" stop-color="#d3d3d3"/><stop offset="1" stop-color="#eee"/></linearGradient><linearGradient id="linear-gradient-9" x1="33.54" y1="42.18" x2="42.83" y2="23.11" xlink:href="#linear-gradient-7"/></defs><title>statistics_na</title><g id="Layer_2" data-name="Layer 2"><g id="statistics_na"><path class="cls-1" d="M34.81,39.14l-2.29,9.78a3.62,3.62,0,0,1-4.33,2.69L2.78,45.67A3.62,3.62,0,0,1,.09,41.34l9-38.56A3.62,3.62,0,0,1,13.44.09L38.85,6a3.62,3.62,0,0,1,2.69,4.33L35.16,37.64Z"/><path class="cls-2" d="M9.16,17.82a.84.84,0,0,1,.5-1.6l25.44,6a.85.85,0,0,1,.63,1,.84.84,0,0,1-1,.63L9.28,17.86Z"/><path class="cls-3" d="M10.07,13.91a.83.83,0,0,1-.5-1,.85.85,0,0,1,1-.63l17.23,4a.84.84,0,0,1,.63,1,.83.83,0,0,1-1,.62L10.2,14Z"/><path class="cls-4" d="M8.2,21.92a.85.85,0,0,1-.51-1,.86.86,0,0,1,1-.63l25.43,5.95a.84.84,0,1,1-.39,1.64L8.32,22Z"/><path class="cls-5" d="M7.24,26a.83.83,0,0,1-.5-1,.84.84,0,0,1,1-.63l25.43,5.95A.84.84,0,0,1,32.8,32L7.36,26.06Z"/><path class="cls-6" d="M6.28,30.12a.84.84,0,0,1,.51-1.6l25.43,5.95a.84.84,0,0,1,.63,1,.85.85,0,0,1-1,.63L6.4,30.16Z"/><circle class="cls-7" cx="31.97" cy="42.62" r="14.55"/><circle class="cls-8" cx="31.97" cy="40.83" r="14.55"/><path class="cls-9" d="M45.77,36.2,32,39.48V26.28A14.56,14.56,0,0,1,45.77,36.2Z"/></g></g></svg>