<svg xmlns="http://www.w3.org/2000/svg" xmlns:xlink="http://www.w3.org/1999/xlink" viewBox="0 0 44.96 46.83"><defs><style>.cls-1{isolation:isolate;}.cls-2{fill:url(#linear-gradient);}.cls-3{fill:#ff9800;opacity:0.3;mix-blend-mode:multiply;}.cls-4{fill:url(#linear-gradient-2);}.cls-5{fill:#ffd00d;}.cls-6{fill:url(#linear-gradient-3);}.cls-7{fill:url(#linear-gradient-4);}.cls-8{fill:url(#linear-gradient-5);}</style><linearGradient id="linear-gradient" x1="19.76" y1="28.11" x2="28.93" y2="43.61" gradientUnits="userSpaceOnUse"><stop offset="0.01" stop-color="#fa709a"/><stop offset="1" stop-color="#fee140"/></linearGradient><linearGradient id="linear-gradient-2" x1="26.93" y1="-4.67" x2="37.59" y2="14.33" xlink:href="#linear-gradient"/><linearGradient id="linear-gradient-3" x1="26.37" y1="6.32" x2="32.87" y2="18.65" xlink:href="#linear-gradient"/><linearGradient id="linear-gradient-4" x1="35.82" y1="-2.82" x2="37.16" y2="17.02" gradientUnits="userSpaceOnUse"><stop offset="0" stop-color="#b664f4"/><stop offset="1" stop-color="#03a9f4"/></linearGradient><linearGradient id="linear-gradient-5" x1="27.97" y1="3" x2="11.8" y2="43.5" xlink:href="#linear-gradient-4"/></defs><title>valves</title><g class="cls-1"><g id="Layer_2" data-name="Layer 2"><g id="valves"><path class="cls-2" d="M24.27,27.92l6.92,8.13c2.38,2.8,2.07,7.42-.86,9.48a5.75,5.75,0,0,1-1.06.59l-.86.36a4.81,4.81,0,0,1-6.35-3.15L17.54,30.19"/><polygon class="cls-3" points="27.83 32.1 19.57 36.09 17.54 30.19 24.27 27.93 27.83 32.1"/><path class="cls-4" d="M35.55,16.28a1,1,0,0,1-.49-1.87,3.55,3.55,0,0,0-3.51-6.18,1,1,0,0,1-1.37-.38,1,1,0,0,1,.38-1.36,5.56,5.56,0,0,1,5.49,9.66A1,1,0,0,1,35.55,16.28Z"/><path class="cls-5" d="M7.07,34.43a4.55,4.55,0,1,1-5-7.59"/><path class="cls-6" d="M25.72,10.46a4.55,4.55,0,1,1,5,7.59"/><path class="cls-7" d="M38.88,20.8a1,1,0,0,1-.5-1.87,9,9,0,0,0,3.4-12.34,9,9,0,0,0-12.34-3.4,1,1,0,0,1-1.37-.38,1,1,0,0,1,.38-1.36A11.05,11.05,0,1,1,39.37,20.67,1,1,0,0,1,38.88,20.8Z"/><path class="cls-8" d="M24.06,5,35.81,22.58a3,3,0,0,1-1.6,4.57l-24.4,7.7a3,3,0,0,1-3.36-1.11L2.38,28.13a3,3,0,0,1,.15-3.74L19.24,4.76A3,3,0,0,1,24.06,5Z"/></g></g></g></svg>