<svg xmlns="http://www.w3.org/2000/svg" xmlns:xlink="http://www.w3.org/1999/xlink" viewBox="0 0 40.34 49.82"><defs><style>.cls-1{fill:url(#linear-gradient);}.cls-2{fill:url(#linear-gradient-2);}.cls-3{fill:url(#linear-gradient-3);}.cls-4{fill:url(#linear-gradient-4);}.cls-5{fill:url(#linear-gradient-5);}</style><linearGradient id="linear-gradient" x1="-43.05" y1="15.6" x2="-33.81" y2="29.24" gradientTransform="matrix(0.99, -0.13, 0.13, 0.99, 67.23, -1.79)" gradientUnits="userSpaceOnUse"><stop offset="0.01" stop-color="#9e9e9e"/><stop offset="1" stop-color="#d8d8d8"/></linearGradient><linearGradient id="linear-gradient-2" x1="-64.2" y1="34.23" x2="-74.38" y2="44.27" gradientTransform="matrix(0.99, -0.13, 0.13, 0.99, 67.23, -1.79)" gradientUnits="userSpaceOnUse"><stop offset="0" stop-color="#575757"/><stop offset="1" stop-color="#767676"/></linearGradient><linearGradient id="linear-gradient-3" x1="-30.32" y1="0.75" x2="-40.58" y2="9.65" xlink:href="#linear-gradient"/><linearGradient id="linear-gradient-4" x1="-59.06" y1="28.67" x2="-68.3" y2="39.79" xlink:href="#linear-gradient"/><linearGradient id="linear-gradient-5" x1="12.35" y1="15.41" x2="29.01" y2="28.89" gradientUnits="userSpaceOnUse"><stop offset="0.01" stop-color="#b6b6b6"/><stop offset="1" stop-color="#e2e2e2"/></linearGradient></defs><title>wiki_na</title><g id="Layer_2" data-name="Layer 2"><g id="wiki_na"><path class="cls-1" d="M27.92,37.76a1.4,1.4,0,0,1-1-.27,1.41,1.41,0,0,1-.26-2l9.92-13A4.66,4.66,0,0,0,35.67,16l-3.06-2.34a1.4,1.4,0,0,1,1.7-2.22l3.06,2.33a7.49,7.49,0,0,1,1.41,10.5l-9.92,13A1.39,1.39,0,0,1,27.92,37.76Z"/><path class="cls-2" d="M1.58,49.81a1.38,1.38,0,0,1-1-.28,1.4,1.4,0,0,1-.26-2l3.06-4a1.4,1.4,0,0,1,2.23,1.7l-3.07,4A1.41,1.41,0,0,1,1.58,49.81Z"/><path class="cls-3" d="M27.42,6.22l4-5.28A2.41,2.41,0,0,1,34.82.49L39.4,4a2.41,2.41,0,0,1,.45,3.37l-3.93,5.15"/><path class="cls-4" d="M6,33.42,2.2,42.1a1.94,1.94,0,0,0,.6,2.31l2.54,1.94a1.93,1.93,0,0,0,2.42-.07l7.14-6.07Z"/><path class="cls-5" d="M22.3,33.46l-6,7.88a1.94,1.94,0,0,1-2.72.36L5,35.17a1.94,1.94,0,0,1-.37-2.72L24.59,6.34a5,5,0,0,1,6.93-.93L35.3,8.29a5,5,0,0,1,.93,6.93L22.3,33.46"/></g></g></svg>