<svg xmlns="http://www.w3.org/2000/svg" xmlns:xlink="http://www.w3.org/1999/xlink" viewBox="0 0 45.86 43.59"><defs><style>.cls-1{fill:url(#linear-gradient);}.cls-2{fill:url(#linear-gradient-2);}.cls-3{fill:#fff;}.cls-4{fill:url(#linear-gradient-3);}.cls-5{fill:url(#linear-gradient-4);}.cls-6{fill:url(#linear-gradient-5);}.cls-7{fill:url(#linear-gradient-6);}</style><linearGradient id="linear-gradient" x1="29.7" y1="-7.5" x2="15.2" y2="49.86" gradientTransform="translate(-6.82 10.11) rotate(-21.12)" gradientUnits="userSpaceOnUse"><stop offset="0.01" stop-color="#2af598"/><stop offset="1" stop-color="#08aeea"/></linearGradient><linearGradient id="linear-gradient-2" x1="46.97" y1="-1.79" x2="32.43" y2="55.75" xlink:href="#linear-gradient"/><linearGradient id="linear-gradient-3" x1="15.11" y1="9.34" x2="9.76" y2="25.94" gradientUnits="userSpaceOnUse"><stop offset="0" stop-color="#b664f4"/><stop offset="1" stop-color="#03a9f4"/></linearGradient><linearGradient id="linear-gradient-4" x1="16.38" y1="26.01" x2="17.36" y2="6.12" gradientUnits="userSpaceOnUse"><stop offset="0.01" stop-color="#fa709a"/><stop offset="1" stop-color="#fee140"/></linearGradient><linearGradient id="linear-gradient-5" x1="17.81" y1="24.77" x2="18.48" y2="11.12" xlink:href="#linear-gradient-4"/><linearGradient id="linear-gradient-6" x1="16.12" y1="24.77" x2="16.79" y2="11.12" xlink:href="#linear-gradient-4"/></defs><title>works</title><g id="Layer_2" data-name="Layer 2"><g id="works"><path class="cls-1" d="M41.35,12.18a23.67,23.67,0,0,1,2.12,12,1,1,0,0,1-.1.42.91.91,0,0,1-.43.34,15.7,15.7,0,0,1-3.18,1.22c-1,.27-2,.29-3,.57a2.54,2.54,0,0,0-1.48,1,2.22,2.22,0,0,0,0,2.11,3.76,3.76,0,0,0,1.52,1.54,6.93,6.93,0,0,0,2.42.92,1.08,1.08,0,0,1,.7,1.67,21.78,21.78,0,1,1,1.48-21.77Z"/><path class="cls-2" d="M31.73,6.33c.48.77,2,1.55,2.76,2.11a38.49,38.49,0,0,0,4.35,2.93c1.6.86,3.27,1.62,4.83,2.54a4.06,4.06,0,0,1,2.17,2.73,4.17,4.17,0,0,1-1.32,3.22A9.86,9.86,0,0,1,38.05,23c-.65.05-.95-3.26-1.1-3.9a46.18,46.18,0,0,0-1.31-4.49A41.73,41.73,0,0,0,31.73,6.33Z"/><path class="cls-3" d="M11.47,6.12a18,18,0,0,0-3,2.7,20.36,20.36,0,0,0-5.13,9.81c-.6,3.87,1.38,8,5.95,8.86a9.66,9.66,0,0,0,7.65-2c2.1-1.72,3.3-4.24,5.53-5.82s5.23-2.24,7-4.51c2.79-3.5,1.33-8.68-2.83-10.69a15.69,15.69,0,0,0-8.15-1.13A15.34,15.34,0,0,0,11.47,6.12Z"/><circle class="cls-3" cx="36.66" cy="14.07" r="2.56"/><g id="Settings"><path class="cls-4" d="M19.94,17.5a.5.5,0,0,0-.5-.38,1.72,1.72,0,0,1-1.61-1.07,1.75,1.75,0,0,1,.43-1.93.42.42,0,0,0,0-.58,7.28,7.28,0,0,0-1.23-1.25.43.43,0,0,0-.59.05,1.83,1.83,0,0,1-1.95.44,1.75,1.75,0,0,1-1-1.7.43.43,0,0,0-.38-.45,7.32,7.32,0,0,0-1.75,0,.43.43,0,0,0-.39.44,1.72,1.72,0,0,1-1.06,1.66A1.8,1.8,0,0,1,8,12.29a.46.46,0,0,0-.59,0,8.27,8.27,0,0,0-1.26,1.25.43.43,0,0,0,0,.59A1.71,1.71,0,0,1,6.61,16a1.79,1.79,0,0,1-1.69,1.06.42.42,0,0,0-.45.38,7.49,7.49,0,0,0,0,1.77.5.5,0,0,0,.51.38,1.72,1.72,0,0,1,1.16,3,.43.43,0,0,0,0,.58,7.65,7.65,0,0,0,1.23,1.25.43.43,0,0,0,.59-.05A1.82,1.82,0,0,1,9.86,24a1.75,1.75,0,0,1,1.06,1.69.43.43,0,0,0,.38.46,8.88,8.88,0,0,0,.9,0,6.15,6.15,0,0,0,.85,0,.44.44,0,0,0,.39-.44A1.72,1.72,0,0,1,14.5,24a1.8,1.8,0,0,1,1.93.44.46.46,0,0,0,.59,0,8.27,8.27,0,0,0,1.26-1.25.43.43,0,0,0-.05-.59,1.73,1.73,0,0,1-.44-1.94,1.75,1.75,0,0,1,1.6-1.06h.09a.43.43,0,0,0,.46-.38A7.49,7.49,0,0,0,19.94,17.5ZM12.22,21a2.6,2.6,0,1,1,2.59-2.6A2.6,2.6,0,0,1,12.22,21Z"/></g><path class="cls-5" d="M24,11a6.83,6.83,0,0,1-2.13,6,5.46,5.46,0,0,0-1.67,4.05h0a2,2,0,0,1-2,2h-2a1.94,1.94,0,0,1-1.95-1.93h0a5.19,5.19,0,0,0-1.74-3.95A6.85,6.85,0,0,1,10.08,12,7,7,0,0,1,24,11Z"/><rect class="cls-6" x="17.74" y="10.42" width="0.94" height="12.34" rx="0.34" ry="0.34"/><rect class="cls-7" x="16.05" y="10.42" width="0.94" height="12.34" rx="0.34" ry="0.34"/></g></g></svg>