<?xml version="1.0" encoding="utf-8"?>
<!-- Generator: Adobe Illustrator 18.1.1, SVG Export Plug-In . SVG Version: 6.00 Build 0)  -->
<svg version="1.1" id="Capa_1" xmlns="http://www.w3.org/2000/svg" xmlns:xlink="http://www.w3.org/1999/xlink" x="0px" y="0px"
	 viewBox="0 0 68.5 62.5" enable-background="new 0 0 68.5 62.5" xml:space="preserve">
<ellipse opacity="0.2" fill="#515151" cx="28.3" cy="58.6" rx="23.2" ry="2"/>
<g>
	<g>
		
			<path fill="#3EB49D" stroke="#3B3C3D" stroke-width="0.9317" stroke-linecap="round" stroke-linejoin="round" stroke-miterlimit="10" d="
			M41.5,39.7c0,0,20-6.3,22-4.2c2,2.2,4.9,8.5,0.2,15.7s-31.1-2.8-31.1-2.8L41.5,39.7z"/>
		
			<line fill="none" stroke="#348C7B" stroke-width="0.9317" stroke-linecap="round" stroke-linejoin="round" stroke-miterlimit="10" x1="63.6" y1="39.2" x2="45" y2="40.5"/>
		
			<path fill="none" stroke="#348C7B" stroke-width="0.9317" stroke-linecap="round" stroke-linejoin="round" stroke-miterlimit="10" d="
			M40.6,49.9c0,0,4.7-7.5,4.1-9.1"/>
		
			<line fill="none" stroke="#348C7B" stroke-width="0.9317" stroke-linecap="round" stroke-linejoin="round" stroke-miterlimit="10" x1="64" y1="42.1" x2="42.9" y2="42.5"/>
		
			<path fill="none" stroke="#348C7B" stroke-width="0.9317" stroke-linecap="round" stroke-linejoin="round" stroke-miterlimit="10" d="
			M64.4,45c0,0-9.6,0.6-12.7,0.5c-2.7-0.1-10.6-1.2-10.6-1.2"/>
		
			<path fill="none" stroke="#348C7B" stroke-width="0.9317" stroke-linecap="round" stroke-linejoin="round" stroke-miterlimit="10" d="
			M63.2,48.6c0,0-10.4,0.4-13.9,0.2C46.6,48.6,38.6,47,38.6,47"/>
		
			<path fill="none" stroke="#348C7B" stroke-width="0.9317" stroke-linecap="round" stroke-linejoin="round" stroke-miterlimit="10" d="
			M59.6,36.6c0,0,1.7,10.3-2,15.9"/>
		
			<path fill="none" stroke="#348C7B" stroke-width="0.9317" stroke-linecap="round" stroke-linejoin="round" stroke-miterlimit="10" d="
			M56.9,36.8c0,0,1.1,9.4-2.4,15.9"/>
		
			<path fill="none" stroke="#348C7B" stroke-width="0.9317" stroke-linecap="round" stroke-linejoin="round" stroke-miterlimit="10" d="
			M54.3,37.4c0,0,0.5,11.1-2.9,15.1"/>
		
			<path fill="none" stroke="#348C7B" stroke-width="0.9317" stroke-linecap="round" stroke-linejoin="round" stroke-miterlimit="10" d="
			M51.7,38c0,0-0.8,9.8-3.6,13.7"/>
		
			<path fill="none" stroke="#348C7B" stroke-width="0.9317" stroke-linecap="round" stroke-linejoin="round" stroke-miterlimit="10" d="
			M48.8,38.7c0,0-2.3,10.4-4.1,12.2"/>
	</g>
	<path fill="#CE4845" stroke="#3B3C3D" stroke-miterlimit="10" d="M40.1,11.3h-1c-2,0-3.7-1.7-3.7-3.7v-1c0-2,1.7-3.7,3.7-3.7h1
		c2,0,3.7,1.7,3.7,3.7v1C43.8,9.6,42.2,11.3,40.1,11.3z"/>
	
		<circle fill="#F5F4E0" stroke="#3B3C3D" stroke-width="0.9317" stroke-linecap="round" stroke-linejoin="round" stroke-miterlimit="10" cx="39.8" cy="7.2" r="2.3"/>
	<path fill="#CE4845" stroke="#3B3C3D" stroke-width="0.9317" stroke-miterlimit="10" d="M12.5,11.3h-1c-2,0-3.7-1.7-3.7-3.7v-1
		c0-2,1.7-3.7,3.7-3.7h1c2,0,3.7,1.7,3.7,3.7v1C16.2,9.6,14.5,11.3,12.5,11.3z"/>
	
		<circle fill="#F5F4E0" stroke="#3B3C3D" stroke-width="0.9317" stroke-linecap="round" stroke-linejoin="round" stroke-miterlimit="10" cx="12.1" cy="7.2" r="2.3"/>
	<path fill="#CE4845" stroke="#3B3C3D" stroke-linecap="round" stroke-linejoin="round" stroke-miterlimit="10" d="M42.1,25.6
		c0,0,6,7.8,6,10c0,2.1-7.3-0.6-7.3-0.6"/>
	<path fill="#CE4845" stroke="#3B3C3D" stroke-linecap="round" stroke-linejoin="round" stroke-miterlimit="10" d="M13.2,26.1
		c0,0-9-4.1-11.1-3.7c-2.1,0.4,8,13.1,8,13.1"/>
	<path fill="#CE4845" d="M41.6,58.6c-2.6,0.1-5.3-4.3-6.7-5.2c-0.3-0.2-0.5-0.3-0.8-0.4c-3.4-1.8-6.6-1.7-10.3-1.3
		c-0.9,0.1-1.6,0.4-2.2,0.8c-1.3,0.9-1.9,2.5-2.8,3.8c-0.6,0.9-1.5,1.6-2.5,2c-1.1,0.4-2.2,0.7-3.3,0.3c-1.2-0.5-1.9-1.8-2.2-3.1
		c-0.7-3-0.7-6.2-0.8-9.3c-0.1-4.2,0-8.5,0.2-12.7c0.2-4,0.5-8,0.8-12c0.2-2.5,0.5-4.9,0.7-7.4c0-0.3,0.1-0.5,0.1-0.8
		C12.3,4.9,18,6.6,26,6.4C39,6.1,40.6,6.5,41.7,19.6C43.8,46.5,45.1,58.4,41.6,58.6z"/>
	<path fill="none" stroke="#3B3C3D" stroke-miterlimit="10" d="M11.8,13.1c0,0-4.8,45.6,1.2,45.7c7.5,0.2,5.2-6.4,10.7-7.1
		c4-0.5,7.5-0.5,11.1,1.7c1.4,0.9,4.1,5.3,6.7,5.2c3.5-0.2,2.2-12.1,0-39.1C40.6,6.5,39,6.1,26,6.4C18,6.6,12.3,4.9,11.8,13.1z"/>
	<path fill="#FA5855" d="M31,23.6c0,0-0.5-1.1-1.4-1.3s-4.4-0.3-5.2,0.4c-0.9,0.7-1,1.1-1,1.1s2.1,1.4,3.6,1.3
		C28.4,24.9,30.4,24.6,31,23.6z"/>
	<path fill="#7A1F35" d="M21.2,20.6c0,0,0.9,2.7,2.4,3.4c0,0,0.3-1.5,0.8-1.5s4.2-1.1,5.4-0.2c1.2,0.9,1.5,1.2,1.5,1.2s2.3-2,1.5-3
		c0,0-4.9,0.5-6-0.8C26.8,19.6,22.6,21.1,21.2,20.6z"/>
	<circle fill="#3B3C3D" cx="18.8" cy="17" r="1.8"/>
	<circle fill="#3B3C3D" cx="34.2" cy="17" r="1.8"/>
	
		<path fill="none" stroke="#3B3C3D" stroke-width="0.6522" stroke-linecap="round" stroke-linejoin="round" stroke-miterlimit="10" d="
		M20.3,12.6c0,0-1.9-1.9-4.6,0.1"/>
	
		<path fill="none" stroke="#3B3C3D" stroke-width="0.6522" stroke-linecap="round" stroke-linejoin="round" stroke-miterlimit="10" d="
		M31.2,11.2c0,0,1.5-2.6,4.5-0.9"/>
	<path fill="#3B3C3D" d="M29.2,17.6c0,0.5-1,1.9-2.3,1.9s-2.3-1.4-2.3-1.9s1-0.9,2.3-0.9S29.2,17.1,29.2,17.6z"/>
	
		<path fill="none" stroke="#3B3C3D" stroke-width="0.4659" stroke-linecap="round" stroke-linejoin="round" stroke-miterlimit="10" d="
		M23.5,23.7c0.4-1.1,2-1.9,3.9-1.9c1.8,0,3.2,0.7,3.8,1.6"/>
	<path fill="#F5F4E0" d="M26.8,19.5c0,0-1.2,0.8-2.3,0.9c0,0-0.1,1.5,0.2,1.8c0.3,0.3,0.5,0.7,1.2,0.8c0.7,0.1,2.3,0.1,2.7-0.1
		c0.4-0.2,0.8-0.6,0.8-1s-0.2-1.5-0.2-1.5S27.3,20.1,26.8,19.5z"/>
	<path fill="#F5F4E0" d="M37.5,42.1c0,4.1-1.1,7.9-3,10.5l-0.3,0c-3.4-1.8-6.6-1.7-10.3-1.3c-0.9,0.1-1.6,0.4-2.2,0.8l-0.3,0
		c-1.6-2.6-2.6-6.1-2.6-10c0-7.9,4.2-14.3,9.4-14.3C33.3,27.7,37.5,34.2,37.5,42.1z"/>
	
		<path fill="none" stroke="#3B3C3D" stroke-width="0.4659" stroke-linecap="round" stroke-linejoin="round" stroke-miterlimit="10" d="
		M20.2,20.4c0,0,5.2,0.7,6.7-1"/>
	
		<path fill="none" stroke="#3B3C3D" stroke-width="0.4659" stroke-linecap="round" stroke-linejoin="round" stroke-miterlimit="10" d="
		M33.4,20.4c0,0-5.2,0.7-6.7-1"/>
	<path fill="none" stroke="#3B3C3D" stroke-width="0.4659" stroke-miterlimit="10" d="M32.9,20.5c-0.3,2.4-2.8,4.4-5.8,4.4
		c-3,0-5.5-1.9-5.8-4.4"/>
	
		<path fill="none" stroke="#3B3C3D" stroke-width="0.4659" stroke-linecap="round" stroke-linejoin="round" stroke-miterlimit="10" d="
		M29.2,20.5l0,1.3c0,0.7-0.6,1.2-1.2,1.2h-2.2c-0.7,0-1.2-0.6-1.2-1.2l0-1.3"/>
	
		<line fill="none" stroke="#3B3C3D" stroke-width="0.4659" stroke-linecap="round" stroke-linejoin="round" stroke-miterlimit="10" x1="26.8" y1="19.7" x2="26.8" y2="22.2"/>
	
		<path fill="none" stroke="#3B3C3D" stroke-width="0.4659" stroke-linecap="round" stroke-linejoin="round" stroke-miterlimit="10" d="
		M27.4,26.5"/>
	
		<path fill="#CE4845" stroke="#3B3C3D" stroke-width="0.7315" stroke-linecap="round" stroke-linejoin="round" stroke-miterlimit="10" d="
		M29.6,6.9c0,0-5-2.7-7.4-3.3c-6.8-1.8-4.3,1.9,0.3,1.8c0,0-3.5,0.3-3.5,0.9c0.1,1.1,2.2,1.1,3.8,0.8"/>
	<g>
		<g>
			<defs>
				<path id="SVGID_1_" d="M27.2,39.8l-1.8,0l0-1.8c0-0.1-0.1-0.2-0.2-0.2l-0.9,0c-0.1,0-0.2,0.1-0.2,0.2l0,1.8l-1.8,0
					c-0.1,0-0.2,0.1-0.2,0.2l0,0.9c0,0.1,0.1,0.2,0.2,0.2l1.8,0l0,1.8c0,0.1,0.1,0.2,0.2,0.2l0.9,0c0.1,0,0.2-0.1,0.2-0.2l0-1.8
					l1.8,0c0.1,0,0.2-0.1,0.2-0.2l0-1C27.4,39.9,27.3,39.8,27.2,39.8z"/>
			</defs>
			<clipPath id="SVGID_2_">
				<use xlink:href="#SVGID_1_"  overflow="visible"/>
			</clipPath>
			<g clip-path="url(#SVGID_2_)">
				<g>
					<rect x="24" y="37.8" fill="#00B4AC" width="0.7" height="2.7"/>
					<rect x="24" y="40.5" fill="#00B4AC" width="0.7" height="2.7"/>
					<rect x="24.7" y="37.8" fill="#00B4AC" width="0.7" height="2.7"/>
					<rect x="24.7" y="40.5" fill="#00B4AC" width="0.7" height="2.7"/>
					<rect x="24.7" y="39.8" fill="#00B4AC" width="2.7" height="0.7"/>
					<rect x="22" y="39.8" fill="#00B4AC" width="2.7" height="0.7"/>
					<rect x="24.7" y="40.5" fill="#00B4AC" width="2.7" height="0.7"/>
					<rect x="22" y="40.5" fill="#00B4AC" width="2.7" height="0.7"/>
				</g>
			</g>
		</g>
		<path fill="#00B4AC" d="M28.7,37.6l-2.1,0c0-0.2-0.1-0.5-0.1-0.7c0-0.2,0-0.5,0.1-0.7l5.8,0c0,0.2,0.1,0.5,0.1,0.7
			c0,0.3,0,0.5-0.1,0.7l-2.1,0l0,6.8c-0.1,0-0.3,0-0.4,0c-0.1,0-0.3,0-0.4,0c-0.1,0-0.3,0-0.4,0c-0.1,0-0.3,0-0.5,0L28.7,37.6z"/>
	</g>
	
		<path fill="none" stroke="#3B3C3D" stroke-width="0.9317" stroke-linecap="round" stroke-linejoin="round" stroke-miterlimit="10" d="
		M16.9,54.3c0,0,3.3-2.4,7.9-2.7"/>
	
		<path fill="none" stroke="#3B3C3D" stroke-width="0.9317" stroke-linecap="round" stroke-linejoin="round" stroke-miterlimit="10" d="
		M30.8,51.7c0,0,3,0.2,7.1,2.4"/>
	<path fill="#525456" d="M28.9,17.2c-0.2,0.5-0.8,0.9-1.4,0.9h-1.2c-0.6,0-1.2-0.4-1.4-0.9c0.4-0.3,1.2-0.5,2-0.5
		C27.7,16.7,28.5,16.9,28.9,17.2z"/>
	<path fill="none" stroke="#00B4AC" stroke-width="1.5" stroke-linecap="round" stroke-linejoin="round" stroke-miterlimit="10" d="
		M10.6,18.6c0,0-3.9-5.3,15.3-5.2c19.8,0.1,16.4,4.7,16.4,4.7"/>
	
		<path fill="none" stroke="#00B4AC" stroke-width="0.9317" stroke-linecap="round" stroke-linejoin="round" stroke-miterlimit="10" d="
		M25.3,13.4c0,0,0.8,1.7-1.3,3.5"/>
	
		<path fill="none" stroke="#00B4AC" stroke-width="0.9317" stroke-linecap="round" stroke-linejoin="round" stroke-miterlimit="10" d="
		M28.6,13.5c0,0-1,1.9,1.1,3.5"/>
	<path fill="#00B4AC" d="M15.3,16.9l-2.5,0.4c-0.4,0.1-0.8-0.2-0.8-0.6L11.9,16c-0.1-0.4,0.2-0.8,0.6-0.8l2.5-0.4L15.3,16.9z"/>
	<path opacity="0.4" fill="#F5F4E0" d="M18.7,15.6c0.1,0.4-0.2,0.8-0.6,0.8l-2.8,0.5L15,14.7l2.8-0.5c0.4-0.1,0.8,0.2,0.8,0.6
		L18.7,15.6z"/>
	<circle fill="#2A7F6F" cx="13.6" cy="16.1" r="0.6"/>
	
		<line fill="none" stroke="#F5F4E0" stroke-width="0.2" stroke-linecap="round" stroke-linejoin="round" stroke-miterlimit="10" x1="16.1" y1="14.7" x2="15.5" y2="15.8"/>
	
		<line fill="none" stroke="#F5F4E0" stroke-width="0.2" stroke-linecap="round" stroke-linejoin="round" stroke-miterlimit="10" x1="16.5" y1="14.9" x2="16" y2="15.6"/>
</g>
<path opacity="0.3" fill="#515151" d="M10.4,27.6c0,0-2.2,3.5-3.8,2.9L10,35L10.4,27.6z"/>
<path opacity="0.3" fill="#515151" d="M16.8,54.8c0,0,1.2,1.2,1.2,1.7l2.4-3.4C20.4,53.1,19.4,53.2,16.8,54.8z"/>
<path opacity="0.3" fill="#515151" d="M38.3,54.4c0,0-0.3,0.8,0.3,2L36,53.7C36,53.7,37.8,54.7,38.3,54.4z"/>
</svg>
