<?xml version="1.0" encoding="utf-8"?>
<!-- Generator: Adobe Illustrator 18.1.1, SVG Export Plug-In . SVG Version: 6.00 Build 0)  -->
<svg version="1.1" id="Capa_1" xmlns="http://www.w3.org/2000/svg" xmlns:xlink="http://www.w3.org/1999/xlink" x="0px" y="0px"
	 viewBox="0 0 82.6 65.6" enable-background="new 0 0 82.6 65.6" xml:space="preserve">
<g>
	<path fill="#EAEAEA" d="M18.8,28.8H3c-1,0-1.9-0.8-1.9-1.9V3.2c0-1,0.8-1.9,1.9-1.9h15.8c1,0,1.9,0.8,1.9,1.9V27
		C20.7,28,19.9,28.8,18.8,28.8z"/>
	<path fill="none" stroke="#3B3C3D" stroke-miterlimit="10" d="M20.8,20.6v5.9c0,1.2-1,2.1-2.1,2.1H3.4c-1.2,0-2.1-1-2.1-2.1V3.2
		c0-1.2,1-2.1,2.1-2.1h15.3c1.2,0,2.1,1,2.1,2.1v16.5V20.6z"/>
	<polyline fill="none" stroke="#3B3C3D" stroke-linecap="round" stroke-linejoin="round" stroke-miterlimit="10" points="1.4,5.4 
		5,5.4 5,1.3 	"/>
</g>
<ellipse opacity="0.2" fill="#515151" cx="42.6" cy="62.2" rx="23.2" ry="2"/>
<g>
	
		<path fill="#41AC96" stroke="#3B3C3D" stroke-width="0.9317" stroke-linecap="round" stroke-linejoin="round" stroke-miterlimit="10" d="
		M55.9,43.3c0,0,20-6.3,22-4.2c2,2.2,4.9,8.5,0.2,15.7C73.4,62.2,47,52.1,47,52.1L55.9,43.3z"/>
	
		<line fill="none" stroke="#358776" stroke-width="0.9317" stroke-linecap="round" stroke-linejoin="round" stroke-miterlimit="10" x1="77.9" y1="42.9" x2="59.3" y2="44.1"/>
	
		<path fill="none" stroke="#358776" stroke-width="0.9317" stroke-linecap="round" stroke-linejoin="round" stroke-miterlimit="10" d="
		M54.9,53.5c0,0,4.7-7.5,4.1-9.1"/>
	
		<line fill="none" stroke="#358776" stroke-width="0.9317" stroke-linecap="round" stroke-linejoin="round" stroke-miterlimit="10" x1="78.3" y1="45.8" x2="57.2" y2="46.2"/>
	
		<path fill="none" stroke="#358776" stroke-width="0.9317" stroke-linecap="round" stroke-linejoin="round" stroke-miterlimit="10" d="
		M78.7,48.7c0,0-9.6,0.6-12.7,0.5c-2.7-0.1-10.6-1.2-10.6-1.2"/>
	
		<path fill="none" stroke="#358776" stroke-width="0.9317" stroke-linecap="round" stroke-linejoin="round" stroke-miterlimit="10" d="
		M77.6,52.3c0,0-10.4,0.4-13.9,0.2c-2.8-0.2-10.8-1.8-10.8-1.8"/>
	
		<path fill="none" stroke="#358776" stroke-width="0.9317" stroke-linecap="round" stroke-linejoin="round" stroke-miterlimit="10" d="
		M73.9,40.3c0,0,1.7,10.3-2,15.9"/>
	
		<path fill="none" stroke="#358776" stroke-width="0.9317" stroke-linecap="round" stroke-linejoin="round" stroke-miterlimit="10" d="
		M71.2,40.5c0,0,1.1,9.4-2.4,15.9"/>
	
		<path fill="none" stroke="#358776" stroke-width="0.9317" stroke-linecap="round" stroke-linejoin="round" stroke-miterlimit="10" d="
		M68.6,41.1c0,0,0.5,11.1-2.9,15.1"/>
	
		<path fill="none" stroke="#358776" stroke-width="0.9317" stroke-linecap="round" stroke-linejoin="round" stroke-miterlimit="10" d="
		M66,41.7c0,0-0.8,9.8-3.6,13.7"/>
	
		<path fill="none" stroke="#358776" stroke-width="0.9317" stroke-linecap="round" stroke-linejoin="round" stroke-miterlimit="10" d="
		M63.1,42.4c0,0-2.3,10.4-4.1,12.2"/>
</g>
<path fill="#C44844" stroke="#3B3C3D" stroke-miterlimit="10" d="M54.5,14.9h-1c-2,0-3.7-1.7-3.7-3.7v-1c0-2,1.7-3.7,3.7-3.7h1
	c2,0,3.7,1.7,3.7,3.7v1C58.2,13.3,56.5,14.9,54.5,14.9z"/>
<circle fill="#F3F2DE" stroke="#3B3C3D" stroke-width="0.9317" stroke-linecap="round" stroke-linejoin="round" stroke-miterlimit="10" cx="54.1" cy="10.8" r="2.3"/>
<path fill="#C44844" stroke="#3B3C3D" stroke-width="0.9317" stroke-miterlimit="10" d="M26.8,14.9h-1c-2,0-3.7-1.7-3.7-3.7v-1
	c0-2,1.7-3.7,3.7-3.7h1c2,0,3.7,1.7,3.7,3.7v1C30.5,13.3,28.8,14.9,26.8,14.9z"/>
<circle fill="#F3F2DE" stroke="#3B3C3D" stroke-width="0.9317" stroke-linecap="round" stroke-linejoin="round" stroke-miterlimit="10" cx="26.4" cy="10.8" r="2.3"/>
<path fill="#C44844" stroke="#3B3C3D" stroke-linecap="round" stroke-linejoin="round" stroke-miterlimit="10" d="M27.5,29.7
	c0,0-9-4.1-11.1-3.7c-2.1,0.4,8,13.1,8,13.1"/>
<path fill="#C44844" d="M56,62.3c-2.6,0.1-5.3-4.3-6.7-5.2c-0.3-0.2-0.5-0.3-0.8-0.4c-3.4-1.8-6.6-1.7-10.3-1.3
	c-0.9,0.1-1.6,0.4-2.2,0.8c-1.3,0.9-1.9,2.5-2.8,3.8c-0.6,0.9-1.5,1.6-2.5,2c-1.1,0.4-2.2,0.7-3.3,0.3c-1.2-0.5-1.9-1.8-2.2-3.1
	c-0.7-3-0.7-6.2-0.8-9.3c-0.1-4.2,0-8.5,0.2-12.7c0.2-4,0.5-8,0.8-12c0.2-2.5,0.5-4.9,0.7-7.4c0-0.3,0.1-0.5,0.1-0.8
	c0.4-8.3,6.2-6.5,14.2-6.7C53.4,9.7,54.9,10.1,56,23.2C58.1,50.2,59.5,62.1,56,62.3z"/>
<path fill="none" stroke="#3B3C3D" stroke-miterlimit="10" d="M26.1,16.8c0,0-4.8,45.6,1.2,45.7c7.5,0.2,5.2-6.4,10.7-7.1
	c4-0.5,7.5-0.5,11.1,1.7c1.4,0.9,4.1,5.3,6.7,5.2c3.5-0.2,2.2-12.1,0-39.1c-1-13.1-2.6-13.5-15.7-13.2C32.3,10.3,26.6,8.5,26.1,16.8
	z"/>
<path fill="#771F34" d="M40,29.3c0,0,3-1.5,1.5-4.8c0,0-2.4,0.5-3-1c0,0-1.4,1.6-2.2,1c0,0-2,3.2,0.8,4.6"/>
<circle fill="#3B3C3D" cx="31.7" cy="20.3" r="1.8"/>
<path fill="#E55854" stroke="#3B3C3D" stroke-width="0.4" stroke-miterlimit="10" d="M41.3,28.4c0,0-0.6-0.8-1.1-1.1s-2.5-0.4-3,0.4
	s-0.7,1-0.7,1s1.3,0.6,2.2,0.6C39.5,29.3,40.6,29.5,41.3,28.4z"/>
<circle fill="#3B3C3D" cx="46.4" cy="19.9" r="1.8"/>
<path fill="none" stroke="#3B3C3D" stroke-width="0.6522" stroke-linecap="round" stroke-linejoin="round" stroke-miterlimit="10" d="
	M34.6,16.3c0,0-1.9-1.9-4.6,0.1"/>
<path fill="none" stroke="#3B3C3D" stroke-width="0.6522" stroke-linecap="round" stroke-linejoin="round" stroke-miterlimit="10" d="
	M45.5,14.9c0,0,1.5-2.6,4.5-0.9"/>
<path fill="#3B3C3D" d="M41.5,21.3c0,0.5-1,1.9-2.3,1.9c-1.3,0-2.3-1.4-2.3-1.9s1-0.9,2.3-0.9C40.5,20.4,41.5,20.8,41.5,21.3z"/>
<path fill="#F3F2DE" d="M39.1,23.2c0,0-1.2,1-2.4,1.2c0,0,0,1.2,0.2,1.6c0.3,0.3,0.5,0.7,1.2,0.8c0.7,0.1,2.3,0.1,2.7-0.1
	c0.4-0.2,0.8-0.6,0.8-1s-0.2-1.2-0.2-1.2S39.7,23.8,39.1,23.2z"/>
<path fill="#F3F2DE" d="M51.8,45.8c0,4.1-1.1,7.9-3,10.5l-0.3,0c-3.4-1.8-6.6-1.7-10.3-1.3c-0.9,0.1-1.6,0.4-2.2,0.8l-0.3,0
	c-1.6-2.6-2.6-6.1-2.6-10c0-7.9,4.2-14.3,9.4-14.3C47.6,31.4,51.8,37.8,51.8,45.8z"/>
<path fill="none" stroke="#3B3C3D" stroke-width="0.4659" stroke-linecap="round" stroke-linejoin="round" stroke-miterlimit="10" d="
	M33.6,25.1c0,0,4.1-0.3,5.5-2"/>
<path fill="none" stroke="#3B3C3D" stroke-width="0.4659" stroke-linecap="round" stroke-linejoin="round" stroke-miterlimit="10" d="
	M45.5,25.3c0,0-5-0.5-6.5-2.2"/>
<path fill="none" stroke="#3B3C3D" stroke-width="0.466" stroke-linecap="round" stroke-linejoin="round" stroke-miterlimit="10" d="
	M41.5,24.5c1.2,1.2,0.6,3.1-0.1,4c-0.6,0.8-1.8,0.9-2.7,0.9c-0.3,0-1.8,0.1-2.4-0.7c-0.9-1.1-1.3-2.9,0.4-4.1"/>
<path fill="none" stroke="#3B3C3D" stroke-width="0.4659" stroke-linecap="round" stroke-linejoin="round" stroke-miterlimit="10" d="
	M41.5,24.6l0,0.9c0,0.7-0.6,1.2-1.2,1.2h-2.2c-0.7,0-1.2-0.6-1.2-1.2l0-1"/>
<line fill="none" stroke="#3B3C3D" stroke-width="0.4659" stroke-linecap="round" stroke-linejoin="round" stroke-miterlimit="10" x1="39.1" y1="23.4" x2="39.1" y2="25.8"/>
<path fill="none" stroke="#3B3C3D" stroke-width="0.4659" stroke-linecap="round" stroke-linejoin="round" stroke-miterlimit="10" d="
	M41.7,30.2"/>
<path fill="#C44844" stroke="#3B3C3D" stroke-width="0.7315" stroke-linecap="round" stroke-linejoin="round" stroke-miterlimit="10" d="
	M44,10.6c0,0-5-2.7-7.4-3.3c-6.8-1.8-4.3,1.9,0.3,1.8c0,0-3.5,0.3-3.5,0.9c0.1,1.1,2.2,1.1,3.8,0.8"/>
<g>
	<g>
		<defs>
			<path id="SVGID_1_" d="M41.5,43.5l-1.8,0l0-1.8c0-0.1-0.1-0.2-0.2-0.2l-0.9,0c-0.1,0-0.2,0.1-0.2,0.2l0,1.8l-1.8,0
				c-0.1,0-0.2,0.1-0.2,0.2l0,0.9c0,0.1,0.1,0.2,0.2,0.2l1.8,0l0,1.8c0,0.1,0.1,0.2,0.2,0.2l0.9,0c0.1,0,0.2-0.1,0.2-0.2l0-1.8
				l1.8,0c0.1,0,0.2-0.1,0.2-0.2l0-1C41.7,43.6,41.6,43.5,41.5,43.5z"/>
		</defs>
		<clipPath id="SVGID_2_">
			<use xlink:href="#SVGID_1_"  overflow="visible"/>
		</clipPath>
		<g clip-path="url(#SVGID_2_)">
			<g>
				<rect x="38.3" y="41.4" fill="#1AAAA3" width="0.7" height="2.7"/>
				<rect x="38.3" y="44.2" fill="#1AAAA3" width="0.7" height="2.7"/>
				<rect x="39" y="41.4" fill="#1AAAA3" width="0.7" height="2.7"/>
				<rect x="39" y="44.1" fill="#1AAAA3" width="0.7" height="2.7"/>
				<rect x="39" y="43.5" fill="#1AAAA3" width="2.7" height="0.7"/>
				<rect x="36.3" y="43.5" fill="#1AAAA3" width="2.7" height="0.7"/>
				<rect x="39" y="44.2" fill="#1AAAA3" width="2.7" height="0.7"/>
				<rect x="36.3" y="44.2" fill="#1AAAA3" width="2.7" height="0.7"/>
			</g>
		</g>
	</g>
	<path fill="#1AAAA3" d="M43,41.3l-2.1,0c0-0.2-0.1-0.5-0.1-0.7c0-0.2,0-0.5,0.1-0.7l5.8,0c0,0.2,0.1,0.5,0.1,0.7
		c0,0.3,0,0.5-0.1,0.7l-2.1,0l0,6.8c-0.1,0-0.3,0-0.4,0c-0.1,0-0.3,0-0.4,0c-0.1,0-0.3,0-0.4,0c-0.1,0-0.3,0-0.5,0L43,41.3z"/>
</g>
<path fill="none" stroke="#3B3C3D" stroke-width="0.9317" stroke-linecap="round" stroke-linejoin="round" stroke-miterlimit="10" d="
	M31.2,58c0,0,3.3-2.4,7.9-2.7"/>
<path fill="none" stroke="#3B3C3D" stroke-width="0.9317" stroke-linecap="round" stroke-linejoin="round" stroke-miterlimit="10" d="
	M45.1,55.4c0,0,3,0.2,7.1,2.4"/>
<path fill="#535456" d="M41.2,20.9c-0.2,0.5-0.8,0.9-1.4,0.9h-1.2c-0.6,0-1.2-0.4-1.4-0.9c0.4-0.3,1.2-0.5,2-0.5
	C40.1,20.4,40.8,20.6,41.2,20.9z"/>
<path fill="none" stroke="#1AAAA3" stroke-width="1.5" stroke-linecap="round" stroke-linejoin="round" stroke-miterlimit="10" d="
	M25,22.3c0,0-3.9-5.3,15.3-5.2c19.8,0.1,16.4,4.7,16.4,4.7"/>
<path fill="none" stroke="#1AAAA3" stroke-width="0.9317" stroke-linecap="round" stroke-linejoin="round" stroke-miterlimit="10" d="
	M37.6,17.1c0,0,0.8,1.7-1.3,3.5"/>
<path fill="none" stroke="#1AAAA3" stroke-width="0.9317" stroke-linecap="round" stroke-linejoin="round" stroke-miterlimit="10" d="
	M40.9,17.1c0,0-1,1.9,1.1,3.5"/>
<path fill="#1AAAA3" d="M29.6,20.6L27.1,21c-0.4,0.1-0.8-0.2-0.8-0.6l-0.1-0.8c-0.1-0.4,0.2-0.8,0.6-0.8l2.5-0.4L29.6,20.6z"/>
<path opacity="0.4" fill="#F3F2DE" d="M33,19.3c0.1,0.4-0.2,0.8-0.6,0.8l-2.8,0.5l-0.4-2.2l2.8-0.5c0.4-0.1,0.8,0.2,0.8,0.6L33,19.3
	z"/>
<circle fill="#2C7B6C" cx="27.9" cy="19.7" r="0.6"/>
<line fill="none" stroke="#F3F2DE" stroke-width="0.2" stroke-linecap="round" stroke-linejoin="round" stroke-miterlimit="10" x1="30.4" y1="18.4" x2="29.8" y2="19.5"/>
<line fill="none" stroke="#F3F2DE" stroke-width="0.2" stroke-linecap="round" stroke-linejoin="round" stroke-miterlimit="10" x1="30.8" y1="18.6" x2="30.4" y2="19.3"/>
<path opacity="0.3" fill="#515151" d="M24.7,31.2c0,0-2.2,3.5-3.8,2.9l3.4,4.5L24.7,31.2z"/>
<path opacity="0.3" fill="#515151" d="M31.1,58.4c0,0,1.2,1.2,1.2,1.7l2.4-3.4C34.7,56.8,33.7,56.9,31.1,58.4z"/>
<path opacity="0.3" fill="#515151" d="M52.6,58.1c0,0-0.3,0.8,0.3,2l-2.6-2.8C50.3,57.4,52.1,58.4,52.6,58.1z"/>
<path fill="#C44844" stroke="#3B3C3D" stroke-linecap="round" stroke-linejoin="round" stroke-miterlimit="10" d="M53.4,29
	c0,0-6,7.8-6,10c0,2.1,7.3-0.6,7.3-0.6"/>
<g>
	<path fill="#3B3C3D" d="M4.4,10.7V6.4h0.5v3.9h1.9v0.5H4.4z"/>
	<path fill="#3B3C3D" d="M12.1,10.7H9.7V6.4h2.4v0.5h-1.9v1.4H12v0.4h-1.8v1.6h1.9V10.7z"/>
	<path fill="#3B3C3D" d="M16.4,8.5l1.2-2.2h0.5L16.7,9v1.7h-0.5V9l-1.5-2.7h0.6L16.4,8.5z"/>
</g>
<g>
	<path fill="#3B3C3D" d="M10.9,18.2c0,0.5-0.1,0.9-0.4,1.1s-0.6,0.4-1.1,0.4H8.6v-2.9h0.9c0.5,0,0.8,0.1,1.1,0.4
		C10.8,17.4,10.9,17.7,10.9,18.2z M10.6,18.2c0-0.4-0.1-0.7-0.3-0.9C10.1,17.1,9.8,17,9.4,17H8.9v2.4h0.4c0.4,0,0.7-0.1,0.9-0.3
		C10.5,18.9,10.6,18.6,10.6,18.2z"/>
	<path fill="#3B3C3D" d="M13.1,19.7h-1.6v-2.9h1.6V17h-1.3V18H13v0.3h-1.2v1.1h1.3V19.7z"/>
</g>
<g>
	<path fill="#41AC96" d="M5.8,16.1H4.5v-2.5c0-0.3,0-0.6,0-0.8c-0.1,0.1-0.2,0.2-0.3,0.3l-0.5,0.4l-0.7-0.8l1.6-1.3h1.2V16.1z"/>
	<path fill="#41AC96" d="M10.3,16.1H6.9v-0.8L8,14.1c0.3-0.3,0.5-0.6,0.6-0.7c0.1-0.1,0.2-0.2,0.2-0.3s0.1-0.2,0.1-0.3
		c0-0.1,0-0.2-0.1-0.3c-0.1-0.1-0.2-0.1-0.3-0.1c-0.1,0-0.3,0-0.5,0.1c-0.2,0.1-0.3,0.2-0.5,0.4l-0.7-0.8c0.2-0.2,0.4-0.4,0.6-0.5
		c0.2-0.1,0.3-0.2,0.5-0.2c0.2,0,0.4-0.1,0.7-0.1c0.3,0,0.6,0.1,0.8,0.2c0.2,0.1,0.4,0.3,0.6,0.5s0.2,0.4,0.2,0.7
		c0,0.2,0,0.4-0.1,0.5c0,0.2-0.1,0.3-0.2,0.5s-0.2,0.3-0.4,0.5c-0.2,0.2-0.5,0.5-1,1v0h1.8V16.1z"/>
	<path fill="#41AC96" d="M14.2,16.1h-3.4v-0.8l1.2-1.2c0.3-0.3,0.5-0.6,0.6-0.7c0.1-0.1,0.2-0.2,0.2-0.3s0.1-0.2,0.1-0.3
		c0-0.1,0-0.2-0.1-0.3c-0.1-0.1-0.2-0.1-0.3-0.1c-0.1,0-0.3,0-0.5,0.1c-0.2,0.1-0.3,0.2-0.5,0.4l-0.7-0.8c0.2-0.2,0.4-0.4,0.6-0.5
		c0.2-0.1,0.3-0.2,0.5-0.2s0.4-0.1,0.7-0.1c0.3,0,0.6,0.1,0.8,0.2c0.2,0.1,0.4,0.3,0.6,0.5s0.2,0.4,0.2,0.7c0,0.2,0,0.4-0.1,0.5
		c0,0.2-0.1,0.3-0.2,0.5s-0.2,0.3-0.4,0.5c-0.2,0.2-0.5,0.5-1,1v0h1.8V16.1z"/>
	<path fill="#41AC96" d="M17.5,16.1h-1.3v-2.5c0-0.3,0-0.6,0-0.8c-0.1,0.1-0.2,0.2-0.3,0.3l-0.5,0.4l-0.7-0.8l1.6-1.3h1.2V16.1z"/>
</g>
<g>
	<g>
		<path fill="#3B3C3D" d="M7.2,24.8H3.7v-0.8l1.2-1.2c0.3-0.3,0.5-0.6,0.6-0.7c0.1-0.1,0.2-0.2,0.2-0.3s0.1-0.2,0.1-0.3
			c0-0.1,0-0.2-0.1-0.3c-0.1-0.1-0.2-0.1-0.3-0.1c-0.1,0-0.3,0-0.5,0.1c-0.2,0.1-0.3,0.2-0.5,0.4l-0.7-0.8c0.2-0.2,0.4-0.4,0.6-0.5
			c0.2-0.1,0.3-0.2,0.5-0.2S5.3,20,5.5,20c0.3,0,0.6,0.1,0.8,0.2c0.2,0.1,0.4,0.3,0.6,0.5s0.2,0.4,0.2,0.7c0,0.2,0,0.4-0.1,0.5
			c0,0.2-0.1,0.3-0.2,0.5s-0.2,0.3-0.4,0.5c-0.2,0.2-0.5,0.5-1,1v0h1.8V24.8z"/>
		<path fill="#3B3C3D" d="M11.1,22.4c0,0.8-0.1,1.5-0.4,1.8c-0.3,0.4-0.7,0.6-1.3,0.6c-0.6,0-1-0.2-1.3-0.6c-0.3-0.4-0.4-1-0.4-1.8
			c0-0.8,0.1-1.5,0.4-1.9C8.4,20.2,8.8,20,9.4,20c0.6,0,1,0.2,1.3,0.6C10.9,21,11.1,21.6,11.1,22.4z M8.9,22.4c0,0.5,0,0.9,0.1,1.1
			c0.1,0.2,0.2,0.3,0.3,0.3c0.2,0,0.3-0.1,0.3-0.3c0.1-0.2,0.1-0.6,0.1-1.1c0-0.5,0-0.9-0.1-1.1C9.6,21.1,9.5,21,9.4,21
			S9.1,21.1,9,21.3S8.9,21.9,8.9,22.4z"/>
		<path fill="#3B3C3D" d="M15,22.4c0,0.8-0.1,1.5-0.4,1.8c-0.3,0.4-0.7,0.6-1.3,0.6c-0.6,0-1-0.2-1.3-0.6c-0.3-0.4-0.4-1-0.4-1.8
			c0-0.8,0.1-1.5,0.4-1.9c0.3-0.4,0.7-0.6,1.3-0.6c0.6,0,1,0.2,1.3,0.6C14.8,21,15,21.6,15,22.4z M12.8,22.4c0,0.5,0,0.9,0.1,1.1
			c0.1,0.2,0.2,0.3,0.3,0.3c0.2,0,0.3-0.1,0.3-0.3c0.1-0.2,0.1-0.6,0.1-1.1c0-0.5,0-0.9-0.1-1.1c-0.1-0.2-0.2-0.3-0.3-0.3
			s-0.3,0.1-0.3,0.3S12.8,21.9,12.8,22.4z"/>
		<path fill="#3B3C3D" d="M17.2,20c0.5,0,0.9,0.1,1.2,0.3s0.4,0.5,0.4,0.9c0,0.3-0.1,0.5-0.2,0.7c-0.1,0.2-0.3,0.4-0.6,0.5
			c0.4,0.2,0.6,0.4,0.7,0.6c0.1,0.2,0.2,0.4,0.2,0.6c0,0.4-0.2,0.7-0.5,1c-0.3,0.2-0.7,0.3-1.3,0.3c-0.6,0-1-0.1-1.3-0.3
			c-0.3-0.2-0.4-0.6-0.4-1c0-0.3,0.1-0.5,0.2-0.7s0.4-0.4,0.7-0.5c-0.3-0.2-0.4-0.3-0.5-0.5c-0.1-0.2-0.2-0.4-0.2-0.6
			c0-0.4,0.1-0.6,0.4-0.8S16.7,20,17.2,20z M16.6,23.5c0,0.1,0,0.2,0.1,0.3s0.2,0.1,0.4,0.1c0.4,0,0.6-0.1,0.6-0.4
			c0-0.1,0-0.2-0.1-0.3c-0.1-0.1-0.2-0.2-0.4-0.3c-0.2,0.1-0.3,0.2-0.4,0.3C16.6,23.3,16.6,23.4,16.6,23.5z M17.2,20.9
			c-0.1,0-0.2,0-0.3,0.1s-0.1,0.1-0.1,0.2c0,0.2,0.1,0.3,0.4,0.5c0.2-0.1,0.3-0.2,0.3-0.2c0.1-0.1,0.1-0.2,0.1-0.2
			c0-0.1,0-0.2-0.1-0.2S17.3,20.9,17.2,20.9z"/>
	</g>
</g>
</svg>
