<?xml version="1.0" encoding="utf-8"?>
<!-- Generator: Adobe Illustrator 18.1.1, SVG Export Plug-In . SVG Version: 6.00 Build 0)  -->
<svg version="1.1" id="Capa_1" xmlns="http://www.w3.org/2000/svg" xmlns:xlink="http://www.w3.org/1999/xlink" x="0px" y="0px"
	 viewBox="0 0 49.1 81.9" enable-background="new 0 0 49.1 81.9" xml:space="preserve">
<g>
	<path fill="#CE4845" stroke="#3B3C3D" stroke-linecap="round" stroke-linejoin="round" stroke-miterlimit="10" d="M25.3,58.1
		L25.3,58.1c-0.8,0-1.5-0.7-1.5-1.5V46.1c0-0.8,0.7-1.5,1.5-1.5h0c0.8,0,1.5,0.7,1.5,1.5v10.4C26.8,57.4,26.1,58.1,25.3,58.1z"/>
	<path opacity="0.3" fill="#3FCAAF" stroke="#3B3C3D" stroke-linecap="round" stroke-linejoin="round" stroke-miterlimit="10" d="
		M41.9,25.9c0,9.7-7.9,17.6-17.6,17.6c-9.7,0-17.6-7.9-17.6-17.6S14.5,8.2,24.3,8.2C34,8.2,41.9,16.1,41.9,25.9z"/>
	<g>
		<defs>
			<path id="XMLID_2_" d="M24.3,5.1c-11.5,0-20.7,9.3-20.7,20.7c0,11.4,9.3,20.7,20.7,20.7c11.4,0,20.7-9.3,20.7-20.7
				C45,14.4,35.7,5.1,24.3,5.1z M24.3,43.5c-9.7,0-17.6-7.9-17.6-17.6S14.5,8.2,24.3,8.2c9.7,0,17.6,7.9,17.6,17.6
				S34,43.5,24.3,43.5z"/>
		</defs>
		<use xlink:href="#XMLID_2_"  overflow="visible" fill="#3FCAAF"/>
		<clipPath id="XMLID_3_">
			<use xlink:href="#XMLID_2_"  overflow="visible"/>
		</clipPath>
		<path opacity="0.3" clip-path="url(#XMLID_3_)" fill="#515151" d="M5.3,37.7c0,0,20.5,18.3,41-3.9l0.2,12.1l-26,2
			c0,0-15.3-2.7-15.3-3.2S5.3,37.7,5.3,37.7z"/>
		
			<use xlink:href="#XMLID_2_"  overflow="visible" fill="none" stroke="#3B3C3D" stroke-linecap="round" stroke-linejoin="round" stroke-miterlimit="10"/>
	</g>
	<circle fill="#3B3C3D" cx="18.7" cy="26.1" r="2.6"/>
	
		<line fill="#3B3C3D" stroke="#3B3C3D" stroke-linecap="round" stroke-linejoin="round" stroke-miterlimit="10" x1="17.4" y1="24.8" x2="14.4" y2="24.1"/>
	
		<line fill="#3B3C3D" stroke="#3B3C3D" stroke-linecap="round" stroke-linejoin="round" stroke-miterlimit="10" x1="17.6" y1="26" x2="14.6" y2="26.2"/>
	
		<line fill="#3B3C3D" stroke="#3B3C3D" stroke-linecap="round" stroke-linejoin="round" stroke-miterlimit="10" x1="17.6" y1="27.4" x2="15.8" y2="28.1"/>
	<circle fill="#3B3C3D" cx="31" cy="24.2" r="2.6"/>
	
		<line fill="#3B3C3D" stroke="#3B3C3D" stroke-linecap="round" stroke-linejoin="round" stroke-miterlimit="10" x1="31.9" y1="22.6" x2="34.4" y2="20.9"/>
	
		<line fill="#3B3C3D" stroke="#3B3C3D" stroke-linecap="round" stroke-linejoin="round" stroke-miterlimit="10" x1="32.1" y1="23.8" x2="34.9" y2="23"/>
	
		<line fill="#3B3C3D" stroke="#3B3C3D" stroke-linecap="round" stroke-linejoin="round" stroke-miterlimit="10" x1="32.5" y1="25.2" x2="34.5" y2="25.1"/>
	<path fill="none" stroke="#3B3C3D" stroke-linecap="round" stroke-linejoin="round" stroke-miterlimit="10" d="M27.8,28.2
		c0.3,1.1-0.4,2.1-1.4,2.4c-1.1,0.3-2.1-0.4-2.4-1.4"/>
	<circle opacity="0.6" fill="#3FCAAF" cx="14" cy="32.2" r="2.4"/>
	<circle opacity="0.6" fill="#3FCAAF" cx="37.9" cy="26" r="2.4"/>
	<path fill="#3FCAAF" stroke="#3B3C3D" stroke-linecap="round" stroke-linejoin="round" stroke-miterlimit="10" d="M26.6,76.7H24
		c-1.4,0-2.5-1.1-2.5-2.5V56.3c0-1.4,1.1-2.5,2.5-2.5h2.5c1.4,0,2.5,1.1,2.5,2.5v17.9C29,75.6,27.9,76.7,26.6,76.7z"/>
	<rect x="22.1" y="65" fill="#F5F4E0" width="6.5" height="2.9"/>
	<g opacity="0.6">
		<path fill="#F4F4F4" d="M8.9,26.9c-0.6,0-1-0.4-1-1c0-8.7,7.1-15.8,15.8-15.8c0.6,0,1,0.4,1,1s-0.4,1-1,1
			c-7.6,0-13.8,6.2-13.8,13.8C9.9,26.4,9.5,26.9,8.9,26.9z"/>
	</g>
	<circle opacity="0.6" fill="#F4F4F4" cx="9.3" cy="28.8" r="1"/>
</g>
</svg>
