<?xml version="1.0" encoding="utf-8"?>
<!-- Generator: Adobe Illustrator 18.0.0, SVG Export Plug-In . SVG Version: 6.00 Build 0)  -->
<!DOCTYPE svg PUBLIC "-//W3C//DTD SVG 1.1//EN" "http://www.w3.org/Graphics/SVG/1.1/DTD/svg11.dtd">
<svg version="1.1" id="Capa_1" xmlns="http://www.w3.org/2000/svg" xmlns:xlink="http://www.w3.org/1999/xlink" x="0px" y="0px"
	 viewBox="0 0 860 645" enable-background="new 0 0 860 645" xml:space="preserve">
<g>
	<g>
		<circle fill="#F15249" cx="541" cy="462.3" r="176.5"/>
		<path fill="#AD0E0E" d="M467,541.9l95.2,95.2c80.2-9.5,143.7-72.4,153.7-152.6l-95.8-95.8L467,541.9z"/>
		<path fill="#FFFFFF" d="M624.5,501.3c7.8,7.8,7.8,21.2,0,29l-15.6,15.6c-7.8,7.8-21.2,7.8-29,0L457.5,423.3
			c-7.8-7.8-7.8-21.2,0-29l16.1-16.1c7.8-7.8,21.2-7.8,29,0L624.5,501.3z"/>
		<path fill="#D6D6D6" d="M559.9,436.1l-45.1,45.1l65.1,64.6c7.8,7.8,21.2,7.8,29,0l16.1-16.1c7.8-7.8,7.8-21.2,0-29L559.9,436.1z"
			/>
		<path fill="#FFFFFF" d="M580,378.8c7.8-7.8,21.2-7.8,29,0l16.1,16.1c7.8,7.8,7.8,21.2,0,29L502,545.8c-7.8,7.8-21.2,7.8-29,0
			l-15.6-15.6c-7.8-7.8-7.8-21.2,0-29L580,378.8z"/>
	</g>
	
		<path fill="#CE4845" stroke="#3B3C3D" stroke-width="8.807" stroke-linecap="round" stroke-linejoin="round" stroke-miterlimit="10" d="
		M351.8,470.4l-23.4-9.9c-0.5-0.2-0.7-0.8-0.5-1.2l45.4-107.5c0.2-0.5,0.8-0.7,1.2-0.5l23.4,9.9c0.5,0.2,0.7,0.8,0.5,1.2L353,469.9
		C352.8,470.4,352.3,470.6,351.8,470.4z"/>
	
		<path opacity="0.3" fill="#3FCAAF" stroke="#3B3C3D" stroke-width="8.807" stroke-linecap="round" stroke-linejoin="round" stroke-miterlimit="10" d="
		M585.3,261.1c-33.3,79-124.3,115.9-203.2,82.6c-79-33.3-115.9-124.2-82.6-203.2S423.7,24.6,502.7,57.9
		C581.5,91.2,618.6,182.1,585.3,261.1z"/>
	<g>
		<defs>
			<path id="XMLID_18_" d="M513.3,32.6c-92.9-39.2-199.9,4.2-239.2,97.1c-39.2,92.8,4.4,199.9,97.3,239.1
				c92.8,39.2,199.9-4.4,239.1-97.2C649.7,178.8,606.1,71.8,513.3,32.6z M382.1,343.7c-79-33.3-115.9-124.2-82.6-203.2
				S423.7,24.6,502.7,57.9c78.9,33.3,115.9,124.2,82.6,203.2S460.9,376.9,382.1,343.7z"/>
		</defs>
		<use xlink:href="#XMLID_18_"  overflow="visible" fill="#3FCAAF"/>
		<clipPath id="XMLID_2_">
			<use xlink:href="#XMLID_18_"  overflow="visible"/>
		</clipPath>
		<path opacity="0.3" clip-path="url(#XMLID_2_)" fill="#515151" d="M248.1,232.2c0,0,103.9,218.4,346.3,108.8l-40.2,98.7
			l-217.7-73.2c0,0-115.1-74.4-113.3-78.7C225,283.5,248.1,232.2,248.1,232.2z"/>
		
			<use xlink:href="#XMLID_18_"  overflow="visible" fill="none" stroke="#3B3C3D" stroke-width="8.807" stroke-linecap="round" stroke-linejoin="round" stroke-miterlimit="10"/>
	</g>
	
		<path fill="none" stroke="#3B3C3D" stroke-width="8.807" stroke-linecap="round" stroke-linejoin="round" stroke-miterlimit="10" d="
		M426.5,243c1.6-9.4,10.4-15.8,19.8-14.2c9.4,1.6,15.8,10.4,14.2,19.8"/>
	<circle opacity="0.6" fill="#3FCAAF" cx="337" cy="217.1" r="21.2"/>
	<circle opacity="0.6" fill="#3FCAAF" cx="552.5" cy="248.2" r="21.2"/>
	
		<path fill="#3FCAAF" stroke="#3B3C3D" stroke-width="8.807" stroke-linecap="round" stroke-linejoin="round" stroke-miterlimit="10" d="
		M304.8,628.6l-56.4-23.8c-1.1-0.5-1.7-1.8-1.2-3l76.4-181.1c0.5-1.1,1.8-1.7,3-1.2l56.4,23.8c1.1,0.5,1.7,1.8,1.2,3l-76.4,181.1
		C307.3,628.5,306,629.1,304.8,628.6z"/>
	
		<rect x="283" y="521.1" transform="matrix(0.9213 0.3888 -0.3888 0.9213 232.0178 -79.1486)" fill="#F5F4E0" width="57.1" height="25.2"/>
	<g opacity="0.6">
		<path fill="#F4F4F4" d="M314.4,156.7c-4.5-1.9-6.6-7.1-4.7-11.5C339.5,74.4,421.3,41.2,492,71c4.5,1.9,6.6,7.1,4.7,11.5
			c-1.9,4.5-7.1,6.6-11.5,4.7c-61.7-26-133.1,3-159.2,64.7C324,156.5,318.9,158.5,314.4,156.7z"/>
	</g>
	<circle opacity="0.6" fill="#F4F4F4" cx="311" cy="173.4" r="8.9"/>
	<g>
		
			<line fill="none" stroke="#3B3C3D" stroke-width="8.807" stroke-linecap="round" stroke-linejoin="round" stroke-miterlimit="10" x1="526.2" y1="189.5" x2="553.2" y2="201.2"/>
		
			<line fill="none" stroke="#3B3C3D" stroke-width="8.807" stroke-linecap="round" stroke-linejoin="round" stroke-miterlimit="10" x1="523.3" y1="200.8" x2="542.1" y2="217.3"/>
		
			<line fill="none" stroke="#3B3C3D" stroke-width="8.807" stroke-linecap="round" stroke-linejoin="round" stroke-miterlimit="10" x1="515.5" y1="208.1" x2="523.7" y2="226.9"/>
		
			<path fill="none" stroke="#3B3C3D" stroke-width="8.3386" stroke-linecap="round" stroke-linejoin="round" stroke-miterlimit="10" d="
			M526,182.9c-0.1,13-11.7,24.1-26,24.8c-14.2,0.7-25.7-9.3-25.6-22.3"/>
	</g>
	<g>
		
			<line fill="none" stroke="#3B3C3D" stroke-width="8.807" stroke-linecap="round" stroke-linejoin="round" stroke-miterlimit="10" x1="378.6" y1="158.6" x2="349.2" y2="157.2"/>
		
			<line fill="none" stroke="#3B3C3D" stroke-width="8.807" stroke-linecap="round" stroke-linejoin="round" stroke-miterlimit="10" x1="376.2" y1="170" x2="352" y2="176.4"/>
		
			<line fill="none" stroke="#3B3C3D" stroke-width="8.807" stroke-linecap="round" stroke-linejoin="round" stroke-miterlimit="10" x1="380" y1="180" x2="364.3" y2="193.3"/>
		
			<path fill="none" stroke="#3B3C3D" stroke-width="8.3386" stroke-linecap="round" stroke-linejoin="round" stroke-miterlimit="10" d="
			M381.7,152.8c-5.7,11.7-0.2,26.8,12.3,33.8c12.4,7,27.1,3.1,32.8-8.6"/>
	</g>
</g>
</svg>
