<?xml version="1.0" encoding="utf-8"?>
<!-- Generator: Adobe Illustrator 18.1.1, SVG Export Plug-In . SVG Version: 6.00 Build 0)  -->
<svg version="1.1" id="Capa_1" xmlns="http://www.w3.org/2000/svg" xmlns:xlink="http://www.w3.org/1999/xlink" x="0px" y="0px"
	 viewBox="0 0 2000 2000" enable-background="new 0 0 2000 2000" xml:space="preserve">
<g>
	<g>
		<path fill="#3EB49D" d="M1191.8,1414.3c0,0,514.4-162.7,565.9-106.8c51.5,55.9,125.1,217.5,4.6,403.7
			c-120.5,186.1-798.9-71.6-798.9-71.6L1191.8,1414.3z"/>
		<path fill="#3B3C3D" d="M1571.7,1790.7c-241.5,0-608.8-138.5-612.5-139.9c-3.8-1.5-6.6-4.7-7.5-8.7c-0.8-4,0.4-8.1,3.3-11
			l228.4-225.3c1.3-1.3,3-2.3,4.8-2.9c15.4-4.9,377.9-119,520-119c30,0,48.5,4.9,58.3,15.6c56.2,61,129.7,226.9,5.8,418.3
			C1741,1766.2,1673.5,1790.7,1571.7,1790.7z M985.3,1634.9c75.7,27.3,379.3,131.9,586.4,131.9c93.1,0,153.9-20.9,180.5-62
			c115.9-179.1,48.5-332.8-3.4-389.1c-1.7-1.8-9.6-7.8-40.7-7.8c-132.1,0-475.8,106.4-510.1,117.1L985.3,1634.9z"/>
	</g>
	<g>
		<path fill="#348C7B" d="M1280,1446.5c-6.2,0-11.5-4.8-11.9-11.2c-0.4-6.6,4.6-12.3,11.1-12.7l478.6-31.6
			c6.7-0.7,12.3,4.6,12.7,11.2c0.4,6.6-4.6,12.3-11.1,12.7l-478.6,31.6C1280.5,1446.5,1280.2,1446.5,1280,1446.5z"/>
	</g>
	<g>
		<path fill="#348C7B" d="M1167.2,1687.9c-2.2,0-4.4-0.6-6.4-1.9c-5.6-3.5-7.2-10.9-3.7-16.5c56.8-89.8,112.8-200,104.1-221.5
			c-2.5-6.1,0.5-13.1,6.6-15.6c6.1-2.4,13.1,0.5,15.6,6.6c17.3,42.9-76.9,197-106.1,243.3C1175,1686,1171.1,1687.9,1167.2,1687.9z"
			/>
	</g>
	<g>
		<path fill="#348C7B" d="M1225.7,1499.3c-6.5,0-11.8-5.2-12-11.7c-0.1-6.6,5.1-12.1,11.7-12.2l543-9.8c0.1,0,0.2,0,0.2,0
			c6.5,0,11.8,5.2,12,11.7c0.1,6.6-5.1,12.1-11.7,12.2l-543,9.8C1225.9,1499.3,1225.8,1499.3,1225.7,1499.3z"/>
	</g>
	<g>
		<path fill="#348C7B" d="M1470.5,1577.6c-6.9,0-13.2-0.1-18.7-0.2c-69.7-2-264.6-28.9-272.9-30.1c-6.5-0.9-11.1-7-10.2-13.5
			c0.9-6.5,6.9-11.1,13.5-10.2c2,0.3,201.9,28,270.3,29.9c78.1,2.2,323.1-13.1,325.6-13.2c6.8-0.4,12.3,4.6,12.7,11.2
			c0.4,6.6-4.6,12.3-11.2,12.7C1770.2,1564.8,1563.2,1577.6,1470.5,1577.6z"/>
	</g>
	<g>
		<path fill="#348C7B" d="M1481.2,1663.1c-35.8,0-67.5-0.7-89-2.4c-70.8-5.7-269.5-45.6-277.9-47.3c-6.5-1.3-10.7-7.6-9.4-14.1
			c1.3-6.5,7.6-10.6,14.1-9.4c2.1,0.4,205.7,41.3,275.1,46.9c86.3,6.9,351.5-4.1,354.2-4.3c6.3,0.1,12.2,4.8,12.5,11.5
			c0.3,6.6-4.8,12.2-11.4,12.5C1741.1,1656.9,1591.7,1663.1,1481.2,1663.1z"/>
	</g>
	<g>
		<path fill="#348C7B" d="M1604.8,1755.9c-2.2,0-4.5-0.6-6.5-1.9c-5.5-3.6-7.1-11-3.5-16.6c90.7-139.2,49.2-397.8,48.8-400.4
			c-1.1-6.5,3.3-12.7,9.8-13.8c6.5-1,12.7,3.3,13.8,9.9c1.8,11,43.5,270.5-52.3,417.4C1612.5,1753.9,1608.7,1755.9,1604.8,1755.9z"
			/>
	</g>
	<g>
		<path fill="#348C7B" d="M1524,1760.9c-1.9,0-3.9-0.5-5.7-1.5c-5.8-3.2-7.9-10.4-4.8-16.2c87.3-160.5,59.8-398.4,59.5-400.8
			c-0.8-6.5,3.9-12.5,10.4-13.3c6.5-0.7,12.5,3.9,13.3,10.5c1.2,10,28.6,247.9-62.3,415.1C1532.3,1758.7,1528.2,1760.9,1524,1760.9z
			"/>
	</g>
	<g>
		<path fill="#348C7B" d="M1445.4,1754.2c-2.7,0-5.4-0.9-7.6-2.8c-5.1-4.2-5.8-11.8-1.6-16.9c81.6-98.2,70.6-375.8,70.4-378.6
			c-0.3-6.6,4.8-12.2,11.4-12.5c6.6,0.2,12.2,4.8,12.5,11.4c0.5,11.8,11.5,289.7-75.9,394.9
			C1452.2,1752.8,1448.8,1754.2,1445.4,1754.2z"/>
	</g>
	<g>
		<path fill="#348C7B" d="M1361.7,1737.2c-2.4,0-4.8-0.7-6.8-2.2c-5.4-3.8-6.7-11.2-3-16.7c68.1-97.6,89-344.7,89.2-347.2
			c0.5-6.6,6.3-12,12.9-10.9c6.6,0.5,11.5,6.3,10.9,12.9c-0.9,10.4-21.7,256.1-93.5,358.9
			C1369.2,1735.4,1365.5,1737.2,1361.7,1737.2z"/>
	</g>
	<g>
		<path fill="#348C7B" d="M1273.1,1715.8c-2.9,0-5.9-1.1-8.2-3.2c-4.8-4.5-5-12.1-0.5-16.9c34.5-36.7,84.7-235,101.2-308.4
			c1.5-6.4,7.7-10.6,14.3-9.1c6.4,1.4,10.5,7.8,9.1,14.3c-6.2,27.7-61.8,271.4-107.1,319.5
			C1279.4,1714.5,1276.2,1715.8,1273.1,1715.8z"/>
	</g>
</g>
<g>
	<path fill="#CE4845" d="M1162,685h-39.7c-48.8,0-88.7-39.9-88.7-88.7v-39.7c0-48.8,39.9-88.7,88.7-88.7h39.7
		c48.8,0,88.7,39.9,88.7,88.7v39.7C1250.7,645.1,1210.8,685,1162,685z"/>
	<path fill="#3B3C3D" d="M1155.5,697.8h-26.8c-59.6,0-108-48.5-108-108V563c0-59.6,48.5-108,108-108h26.8c59.6,0,108,48.5,108,108
		v26.8C1263.6,649.4,1215.1,697.8,1155.5,697.8z M1128.7,480.7c-45.4,0-82.4,36.9-82.4,82.4v26.8c0,45.4,37,82.4,82.4,82.4h26.8
		c45.4,0,82.4-36.9,82.4-82.4V563c0-45.4-37-82.4-82.4-82.4H1128.7z"/>
</g>
<g>
	<circle fill="#F5F4E0" cx="1147.5" cy="579.7" r="58.6"/>
	<path fill="#3B3C3D" d="M1147.5,650.3c-38.9,0-70.6-31.6-70.6-70.6s31.7-70.6,70.6-70.6c38.9,0,70.6,31.6,70.6,70.6
		S1186.4,650.3,1147.5,650.3z M1147.5,533.1c-25.7,0-46.6,20.9-46.6,46.6s20.9,46.6,46.6,46.6c25.7,0,46.7-20.9,46.7-46.6
		S1173.2,533.1,1147.5,533.1z"/>
</g>
<g>
	<path fill="#CE4845" d="M440.2,685h-17.4c-54.9,0-99.9-44.9-99.9-99.9v-17.4c0-54.9,44.9-99.9,99.9-99.9h17.4
		c54.9,0,99.9,44.9,99.9,99.9v17.4C540.1,640.1,495.1,685,440.2,685z"/>
	<path fill="#3B3C3D" d="M444.9,697h-26.8c-59.1,0-107.2-48.1-107.2-107.2V563c0-59.1,48.1-107.2,107.2-107.2h26.8
		C504,455.9,552,503.9,552,563v26.8C552,648.9,504,697,444.9,697z M418.1,479.8c-45.9,0-83.2,37.3-83.2,83.2v26.8
		c0,45.9,37.3,83.2,83.2,83.2h26.8c45.9,0,83.2-37.3,83.2-83.2V563c0-45.9-37.3-83.2-83.2-83.2H418.1z"/>
</g>
<g>
	<circle fill="#F5F4E0" cx="434.8" cy="579.7" r="58.6"/>
	<path fill="#3B3C3D" d="M434.8,650.3c-38.9,0-70.6-31.6-70.6-70.6s31.7-70.6,70.6-70.6c38.9,0,70.6,31.6,70.6,70.6
		S473.7,650.3,434.8,650.3z M434.8,533.1c-25.7,0-46.6,20.9-46.6,46.6s20.9,46.6,46.6,46.6c25.7,0,46.7-20.9,46.7-46.6
		S460.5,533.1,434.8,533.1z"/>
</g>
<g>
	<path fill="#CE4845" d="M464.3,1064.6c0,0-230.6-105-284-93.8c-53.5,11.2,205.2,337.3,205.2,337.3"/>
	<path fill="#3B3C3D" d="M385.5,1321c-3.8,0-7.5-1.7-10.1-4.9c-54.5-68.7-230.9-296.5-213.6-344.1c2.6-7.1,8.4-12.1,15.9-13.7
		c56-11.8,268,83.7,292,94.6c6.5,2.9,9.3,10.6,6.4,17c-2.9,6.5-10.6,9.3-17,6.4c-85.6-39-233-97.8-273.3-93.3
		c-0.4,32.1,106.8,187.2,209.8,317.2c4.4,5.5,3.5,13.6-2.1,18C391.1,1320.1,388.3,1321,385.5,1321z"/>
</g>
<g>
	<path fill="#CE4845" d="M1194.4,1901.1c-66.8,3.6-135.9-110.3-173-133.3c-6.7-4.3-13.6-8.1-20.3-11.5
		c-86.4-46.4-170.6-44.7-265.1-33.3c-24.2,2.9-42.3,10.3-57.2,20.3c-34.5,23.4-49.1,63.6-71.9,96.7c-16.1,23.4-38.5,41.3-65,51.6
		c-27.2,10.5-57.2,18.4-85.4,6.4c-31.4-13.3-49.3-47-56.9-80.2c-17.7-77.9-18.2-160.3-20.2-239.7c-2.8-109.1,0.7-218.3,6.2-327.2
		c5.2-102.7,12.7-205.2,21.6-307.6c5.5-63.3,11.6-126.6,18.4-189.8c0.8-6.9,1.9-14,2.3-20.9c11.5-212.2,158.9-168,364.2-173
		c335.2-8.4,375.9,2.4,402.7,338.6C1250.1,1589.3,1283.9,1896.3,1194.4,1901.1z"/>
</g>
<g>
	<path fill="#3B3C3D" d="M467.3,1919l-7.7-0.1c-13.2-0.3-25.1-6.4-35.3-18.1C306.8,1767,410.7,773.3,415.2,731.1
		C424.5,560,525.4,546,646.2,546c15.9,0,32.4,0.3,49.5,0.5c30.2,0.5,62.4,1,96,0.1c38.6-1,73.3-1.7,104.6-1.7
		c246.2,0,286.9,46,311.4,352l14.4,179.1c42.2,520.8,61.5,758.5,7.3,820.6c-9.3,10.7-20.9,16.5-34.3,17.2l-3.8,0.1
		c-49.6,0-96.4-51.8-134-93.4c-16.4-18.2-31.9-35.4-42.5-41.9c-55.4-34.4-111.9-49.7-183.2-49.7c-26.9,0-55.9,2.1-94.1,6.7
		c-58.1,7.1-78.6,41.3-102.3,80.8C606.3,1864.6,573.6,1919,467.3,1919z M646.2,571.7c-118.8,0-197.2,11.2-205.5,161.4
		c-37.6,354.6-85.4,1050.4,2.8,1150.8c5.4,6.1,10.8,9.2,16.7,9.3l7.1,0.1c91.8,0,118-43.7,145.8-90c24.9-41.5,50.7-84.4,121.2-93
		c39.3-4.8,69.3-6.9,97.2-6.9c75.2,0,137.8,17,196.7,53.6c13.6,8.5,29.6,26.1,48,46.5c34.2,37.8,76.8,84.9,115,84.9
		c8.8-0.4,14.1-3.1,18.8-8.5c47.1-54,25.6-319.5-13.5-801.6L1182.1,899c-23.3-291.6-55.3-328.4-285.8-328.4
		c-31,0-65.5,0.7-103.9,1.7c-34,0.8-66.5,0.4-97.1-0.1C678.4,572,662,571.7,646.2,571.7z"/>
</g>
<g>
	<path fill="#7A1F35" d="M785.1,1053.2c0,0,77.8-37.7,39.3-122c0,0-60.6,11.8-77.2-25.1c0,0-35.6,41-57.7,26.7
		c0,0-51.8,81.9,21.7,119.2"/>
</g>
<g>
	<circle fill="#3B3C3D" cx="571.1" cy="822.5" r="45.6"/>
</g>
<g>
	<path fill="#FA5855" d="M817.6,1030.3c0,0-14.7-21-29.3-27.7s-64.8-10-77.8,9.6c-13,19.6-17.8,25.8-17.8,25.8s33.4,15.5,55.5,15.5
		C770.3,1053.6,799.6,1058,817.6,1030.3z"/>
	<path fill="#3B3C3D" d="M765.3,1059L765.3,1059c-3.1,0-6.1-0.1-9.1-0.1c-2.7-0.1-5.4-0.1-7.9-0.1c-23,0-56.3-15.3-57.7-16l-5.8-2.7
		l3.9-5.1c0.1-0.1,4.9-6.4,17.6-25.5c9.9-14.9,34.7-17.1,48.7-17.1c14.1,0,28.1,2.2,35.6,5.7c15.7,7.2,30.7,28.5,31.4,29.4l2,2.8
		l-1.9,2.9C807.1,1055.9,784.9,1059,765.3,1059z M700.6,1035.9c10.3,4.3,32.1,12.5,47.6,12.5c2.6,0,5.4,0.1,8.2,0.1
		c2.9,0.1,5.8,0.1,8.8,0.1l0,0c19.4,0,34.8-3.2,46.1-18.3c-4.4-5.7-15-18.5-25.1-23.1c-5-2.3-16.9-4.7-31.3-4.7
		c-19.9,0-34.9,4.7-40.1,12.5C708,1025.3,703.5,1031.9,700.6,1035.9z"/>
</g>
<g>
	<circle fill="#3B3C3D" cx="949.4" cy="813.4" r="45.6"/>
</g>
<g>
	<path fill="#3B3C3D" d="M528.1,730.9c-2.5,0-5-1.1-6.7-3.3c-2.8-3.7-2.1-8.9,1.6-11.7c72.7-55.4,128.2-3.3,128.7-2.7
		c3.3,3.2,3.4,8.5,0.2,11.8c-3.2,3.3-8.5,3.5-11.8,0.3c-1.8-1.8-45.9-42.5-107,4C531.6,730.4,529.8,730.9,528.1,730.9z"/>
</g>
<g>
	<path fill="#3B3C3D" d="M925.6,692.6c-1.4,0-2.8-0.4-4.1-1.1c-4-2.3-5.4-7.4-3.2-11.4c0.7-1.3,17.7-30.8,51.9-39.9
		c23.3-6.4,48.5-1.6,74.9,14c4,2.4,5.3,7.5,3,11.5c-2.4,4-7.5,5.3-11.5,3c-22.4-13.2-43.3-17.4-62.1-12.3
		c-27.5,7.3-41.5,31.7-41.7,32C931.3,691.1,928.5,692.6,925.6,692.6z"/>
</g>
<g>
	<path fill="#3B3C3D" d="M822.5,848.4c0,13.4-26.5,49.6-59.1,49.6c-32.7,0-59.1-36.2-59.1-49.6s26.5-24.3,59.1-24.3
		C796,824.1,822.5,835,822.5,848.4z"/>
</g>
<g>
	<path fill="#F5F4E0" d="M760.8,896c0,0-30.8,26.8-61.1,31.6c0,0-1,31.5,6.1,40.1s11.8,17.6,29.6,19.3c17.9,1.6,59.4,3.5,68.7-2.1
		s21.7-16.1,19.8-25.8c-1.9-9.7-4.7-29.9-4.7-29.9S775.7,912.4,760.8,896z"/>
</g>
<g>
	<path fill="#F5F4E0" d="M1087.6,1476.4c0,106.2-29.2,201.7-75.8,268.9l-8.6-0.2c-86.4-46.4-170.6-44.7-265.1-33.3
		c-24.2,2.9-42.3,10.3-57.2,20.3l-7.2-0.2c-41.6-66.3-67.2-156.2-67.2-255.5c0-203.4,107.9-368.5,240.7-368.5
		C979.9,1107.9,1087.6,1273,1087.6,1476.4z"/>
</g>
<g>
	<path fill="#3B3C3D" d="M620.9,952.1c-3.1,0-5.7-2.4-6-5.5c-0.3-3.3,2.2-6.2,5.5-6.4c1-0.1,104-8.7,138.3-50.1
		c2.1-2.6,5.9-2.9,8.4-0.8c2.5,2.1,2.9,5.9,0.8,8.4c-37.5,45.3-142.1,54-146.5,54.4C621.2,952.1,621.1,952.1,620.9,952.1z"/>
</g>
<g>
	<path fill="#3B3C3D" d="M925.7,957.5c-0.2,0-0.4,0-0.7-0.1c-5.4-0.6-132.3-14.6-169.7-59.8c-2.1-2.5-1.8-6.3,0.8-8.4
		c2.5-2.1,6.3-1.8,8.4,0.8c34.4,41.5,160.5,55.4,161.8,55.5c3.3,0.4,5.7,3.3,5.3,6.6C931.3,955.2,928.7,957.5,925.7,957.5z"/>
</g>
<g>
	<path fill="#3B3C3D" d="M744.5,1061.7c-15.5,0-44.9-1.6-59.7-19.6c-16-19.5-23.8-42.8-21.3-63.9c2.3-19.7,13-36.8,31.6-50.8
		c2.6-2,6.4-1.5,8.4,1.2c2,2.6,1.5,6.4-1.2,8.4c-15.9,12-25,26.3-27,42.7c-2.1,17.9,4.7,37.9,18.7,54.9c13,15.8,44.9,15.5,55.2,15.2
		l2.3,0c22,0,51-3.8,64.7-21.8c16.9-22.3,29.3-67.7,2.1-94.2c-2.4-2.3-2.4-6.1-0.1-8.5c2.3-2.3,6.1-2.4,8.5-0.1
		c32.8,31.9,19.2,83.6-0.9,110c-16.6,21.9-49.5,26.5-74.2,26.5h-2.2C748,1061.7,746.3,1061.7,744.5,1061.7z"/>
</g>
<g>
	<path fill="#3B3C3D" d="M790.8,993h-55.3c-21,0-38-17.1-38-38l-0.1-24.4c0-3.3,2.7-6,6-6c0,0,0,0,0,0c3.3,0,6,2.7,6,6l0.1,24.4
		c0,14.4,11.7,26.1,26,26.1h55.3c14.4,0,26.1-11.7,26.1-26l-0.7-22.2c-0.1-3.3,2.5-6.1,5.8-6.2c3.2-0.2,6,2.5,6.2,5.8l0.7,22.4
		C828.8,976,811.7,993,790.8,993z"/>
</g>
<g>
	<path fill="#3B3C3D" d="M762.3,970.9c-3.3,0-6-2.7-6-6v-62.8c0-3.3,2.7-6,6-6c3.3,0,6,2.7,6,6v62.8
		C768.3,968.2,765.6,970.9,762.3,970.9z"/>
</g>
<g>
	
		<path fill="none" stroke="#3B3C3D" stroke-width="11.9632" stroke-linecap="round" stroke-linejoin="round" stroke-miterlimit="10" d="
		M827.2,1076.9"/>
</g>
<g>
	<path fill="#CE4845" d="M886.1,572.3c0,0-128.1-68.9-190.4-85.1c-174.3-45.5-110.9,50,8.4,46.3c0,0-90.6,7.5-89.7,23.2
		c1.5,27.7,55.8,29.2,98.3,20.6"/>
	<path fill="#3B3C3D" d="M668.3,591.2c-20.5,0-39.9-3.3-51.7-12.4c-7.2-5.6-11.3-13.1-11.7-21.7c-0.3-4.6-0.8-14.5,30.9-23
		c-27.9-8.6-48-22.1-54.6-35.5c-3.8-7.8-3.2-15.7,1.7-21.8c16-19.6,71.4-10.2,115.1,1.2c62.7,16.3,187.3,83.1,192.5,85.9
		c4.6,2.5,6.3,8.2,3.8,12.7c-2.5,4.6-8.2,6.3-12.7,3.8c-1.3-0.7-127.8-68.5-188.4-84.3c-72.1-18.8-93.9-10.6-95.8-7.4
		c0,0.3,0.7,2.6,4.2,6.2c12.1,12.5,48.9,30.7,102.1,29c5.7,0.1,9.4,3.8,9.7,8.9c0.3,5.1-3.5,9.5-8.6,9.9c-37,3.1-72.5,9.9-80.8,15.4
		c0.6,2.2,1.9,4,4.2,5.7c12.3,9.6,47.1,11.2,82.6,4c5-1,10,2.2,11.1,7.3c1,5.1-2.3,10-7.3,11.1C700.5,589.2,684.1,591.2,668.3,591.2
		z"/>
</g>
<g>
	<g>
		<defs>
			<path id="SVGID_1_" d="M823.5,1417.8l-46.9,0.1l-0.1-46.9c0-3-2.4-5.3-5.3-5.3l-24.4,0c-2.9,0-5.3,2.4-5.3,5.3l0.1,46.9
				l-46.9,0.1c-2.9,0-5.3,2.4-5.3,5.3l0.1,24.4c0,2.9,2.4,5.3,5.4,5.3l46.9-0.1l0.1,46.9c0,2.9,2.3,5.3,5.3,5.3l24.4-0.1
				c2.9,0,5.3-2.4,5.3-5.3l-0.1-46.9l46.9-0.1c3,0,5.3-2.4,5.3-5.3l0-24.4C828.8,1420.1,826.5,1417.8,823.5,1417.8z"/>
		</defs>
		<clipPath id="SVGID_2_">
			<use xlink:href="#SVGID_1_"  overflow="visible"/>
		</clipPath>
		<g clip-path="url(#SVGID_2_)">
			<g>
				<g>
					<polygon fill="#00B4AC" points="759.1,1435.1 741.6,1435.1 741.5,1365.7 759,1365.6 					"/>
				</g>
				<g>
					<polygon fill="#00B4AC" points="759.3,1505.2 741.8,1505.2 741.6,1435.1 759.1,1435.1 					"/>
				</g>
				<g>
					<polygon fill="#00B4AC" points="776.6,1435.1 759.1,1435.1 759,1365.6 776.5,1365.6 					"/>
				</g>
				<g>
					<polygon fill="#00B4AC" points="776.8,1505.1 759.3,1505.2 759.1,1435.1 776.6,1435.1 					"/>
				</g>
				<g>
					<polygon fill="#00B4AC" points="759.4,1435.4 759.3,1417.9 828.8,1417.7 828.9,1435.2 					"/>
				</g>
				<g>
					<polygon fill="#00B4AC" points="689.4,1435.6 689.3,1418.1 759.3,1417.9 759.4,1435.4 					"/>
				</g>
				<g>
					<polygon fill="#00B4AC" points="759.4,1452.9 759.4,1435.4 828.9,1435.2 828.9,1452.7 					"/>
				</g>
				<g>
					<polygon fill="#00B4AC" points="689.4,1453.1 689.4,1435.6 759.4,1435.4 759.4,1452.9 					"/>
				</g>
			</g>
		</g>
	</g>
	<g>
		<path fill="#00B4AC" d="M861.3,1361.5l-52.9,0c-1.2-5.9-1.8-12.1-1.7-18.6c0-6.1,0.6-12.1,1.8-18l149.2,0.1
			c1.2,5.9,1.8,11.9,1.8,18c0,6.5-0.6,12.7-1.8,18.6l-52.9,0l-0.1,175.9c-3.5,0.4-7.1,0.8-10.6,1c-3.5,0.3-7,0.4-10.4,0.4
			c-3.4,0-6.9-0.1-10.8-0.3c-3.8-0.2-7.7-0.6-11.7-1.2L861.3,1361.5z"/>
	</g>
</g>
<g>
	<path fill="#3B3C3D" d="M557.8,1802.3c-3.7,0-7.4-1.7-9.7-4.9c-3.9-5.4-2.7-12.8,2.7-16.7c3.6-2.6,89.5-63.9,208.6-71.7
		c6.9-0.4,12.3,4.6,12.7,11.2c0.4,6.6-4.6,12.3-11.1,12.7c-112.3,7.4-195.3,66.6-196.2,67.2C562.7,1801.6,560.3,1802.3,557.8,1802.3
		z"/>
</g>
<g>
	<path fill="#3B3C3D" d="M1098.1,1797.6c-1.9,0-3.8-0.4-5.6-1.4c-102.4-53.8-177.6-60.6-178.3-60.7c-6.6-0.6-11.5-6.3-10.9-12.9
		c0.5-6.6,6.3-11.8,12.9-10.9c3.2,0.3,80.4,7.1,187.5,63.3c5.8,3.1,8.1,10.3,5,16.2C1106.6,1795.2,1102.4,1797.6,1098.1,1797.6z"/>
</g>
<g>
	<path fill="#525456" d="M815.6,836.9c-6.4,14.1-20.5,23.9-37,23.9h-30.8c-16.2,0-30.3-9.8-36.7-23.6c9.8-7.7,29.5-13.1,52.4-13.1
		C786,824,805.8,829.4,815.6,836.9z"/>
</g>
<g>
	<path fill="#00B4AC" d="M398.1,892.4c-5.8,0-11.5-2.7-15.3-7.7c-8.9-12-19.9-40-5-69.5c32.1-63.6,168.2-95.9,404.4-95.9
		c3,0,6,0,9.1,0c260.1,0.9,408,33,439.5,95.3c12.5,24.7,3.8,47.6-3.2,57.2c-6.3,8.6-18.3,10.5-26.9,4.1c-8.6-6.3-10.4-18.3-4.2-26.9
		c0.6-1,4.7-8.2-0.5-17.7c-11.7-21.7-74.7-72.4-404.9-73.5c-3,0-6.1,0-9,0c-298.3,0-358,51.8-369.7,74.3
		c-8.1,15.3,0.5,28.4,1.5,29.8c6,8.7,4.1,20.6-4.5,26.8C405.9,891.2,402,892.4,398.1,892.4z"/>
</g>
<g>
	<path fill="#00B4AC" d="M688.8,841c-3.5,0-6.9-1.5-9.3-4.4c-4.2-5.1-3.5-12.6,1.6-16.8c45.6-37.6,31.4-73.2,30.8-74.7
		c-2.5-6,0.3-13.1,6.3-15.6c6-2.6,13,0.1,15.6,6c1,2.2,22.8,53.2-37.5,102.8C694.2,840.1,691.5,841,688.8,841z"/>
</g>
<g>
	<path fill="#00B4AC" d="M835.5,842.3c-2.4,0-4.8-0.7-6.9-2.2c-50.5-36.1-43-84.4-32-104.9c3.1-5.8,10.4-8,16.2-4.9
		c5.8,3.1,8,10.3,4.9,16.2c-2.2,4.3-20,42,24.8,74.1c5.4,3.8,6.6,11.3,2.8,16.7C842.9,840.6,839.2,842.3,835.5,842.3z"/>
</g>
<g>
	<path fill="#00B4AC" d="M518.2,829.8l-63.8,10.9c-10.3,1.7-20-5.1-21.7-15.4l-3.4-19.3c-1.7-10.3,5.1-20,15.1-21.7l64.6-11.1
		L518.2,829.8z"/>
</g>
<g opacity="0.4">
	<path fill="#F5F4E0" d="M605.1,795.8c1.7,10-5.3,19.7-15.4,21.7l-71.5,12.3l-9.2-56.6l71-12.3c10-1.7,19.7,5.1,21.7,15.4
		L605.1,795.8z"/>
</g>
<g>
	<circle fill="#2A7F6F" cx="473.5" cy="807.8" r="14.4"/>
</g>
<g>
	<path fill="#F5F4E0" d="M522,804.1c-0.5,0-0.9-0.1-1.3-0.4c-1.2-0.7-1.6-2.3-0.9-3.5l16.9-28.3c0.7-1.3,2.3-1.6,3.5-0.9
		c1.2,0.7,1.6,2.3,0.9,3.5l-16.9,28.3C523.7,803.6,522.9,804.1,522,804.1z"/>
</g>
<g>
	<path fill="#F5F4E0" d="M536.8,799.6c-0.5,0-0.9-0.1-1.3-0.4c-1.2-0.7-1.6-2.3-0.9-3.5l10.9-18.2c0.7-1.3,2.3-1.6,3.5-0.9
		c1.2,0.7,1.6,2.3,0.9,3.5L539,798.3C538.5,799.2,537.7,799.6,536.8,799.6z"/>
</g>
<g opacity="0.3">
	<path fill="#515151" d="M392.3,1103.2c0,0-55.4,90.8-97.9,75.5l86.1,116.7L392.3,1103.2z"/>
</g>
<g opacity="0.3">
	<path fill="#515151" d="M555.2,1801.7c0,0,30.4,29.6,30.4,43.5l62.6-86C648.2,1759.2,623.9,1762.6,555.2,1801.7z"/>
</g>
<g opacity="0.3">
	<path fill="#515151" d="M1107.6,1792.6c0,0-7.9,20.4,7.1,52.6l-65.7-70.8C1048.9,1774.4,1095.1,1801.3,1107.6,1792.6z"/>
</g>
<g>
	<path fill="#CE4845" d="M1129.7,1045.4c0,0-153.5,201.5-154.4,256.1s187.4-14.1,187.4-14.1"/>
	<path fill="#3B3C3D" d="M1012.3,1335.2c-15.6,0-28.8-2.4-37.4-8.6c-8.3-5.9-12.7-14.9-12.6-25.3c1-57.2,141.1-242.7,157.1-263.7
		c4.3-5.6,12.4-6.8,18-2.4c5.6,4.3,6.7,12.3,2.4,18c-58.4,76.6-151.2,211.9-151.8,248.6c-0.1,2.5,0.7,3.2,1.8,4
		c19.8,14.1,110.4-9.2,168.4-30.4c6.6-2.4,14,1,16.5,7.7c2.4,6.6-1,14-7.7,16.5C1147.3,1306.7,1065.8,1335.2,1012.3,1335.2z"/>
</g>
<g id="XMLID_7_">
	<g id="XMLID_8_">
		<path fill="#FFD400" d="M1139,415.6V669H457V415.6c8.2-30.1,20.3-58.6,35.8-85c3.5-5.8,7.1-11.6,10.8-17.2
			c3.8-5.6,7.7-11.1,11.8-16.5c4.1-5.4,8.3-10.7,12.7-15.8c37.2-43.7,85-78.3,139.1-99.9c0.1,0,0.1-0.1,0.2-0.1c0,0,0-0.1,0-0.1
			c0.4-4.1,1.2-8,2.6-11.9h255.1c1.4,3.8,2.4,7.8,2.8,12c0,0,0.1,0,0.1,0C1030.3,221.6,1109.3,308.5,1139,415.6
			C1139,415.5,1139,415.5,1139,415.6z"/>
		<path fill="#515151" d="M1139,415.6C1139,415.5,1139,415.5,1139,415.6c-29.7-107.1-108.7-193.9-210.9-234.5c0,0-0.1,0-0.1,0
			c-4.1-1.6-8.3-3.2-12.5-4.7c0,0,0,0,0,0c-6.1-2.2-12.4-4.2-18.6-6c0,0,0,0,0,0c-1.5-0.5-3-0.9-4.6-1.3c0,0,0,0-0.1,0
			c-8.8-2.4-17.7-4.5-26.7-6.3c0,0,0,0,0,0c-5.2-1-10.4-1.9-15.7-2.7c-4.2-0.6-8.5-1.2-12.8-1.7c-1.3-0.2-2.7-0.3-4-0.4
			c-2.9-0.3-5.9-0.5-8.8-0.8c-8.7-0.7-17.6-1-26.5-1c-8.9,0-17.7,0.4-26.4,1c-3,0.2-5.9,0.8-8.8,0.8h0c-1.3,0-2.7,0.2-4,0.4
			c-4.3,0.5-8.6,1.2-12.8,1.8c-5.3,0.8-10.5,1.8-15.7,2.8h0c-9,1-18,3.7-26.7,6.1c0,0-0.1-0.1-0.1-0.1c-1.5,0.4-2.9,0.8-4.3,1.2
			c-0.1,0-0.2,0-0.2,0.1c-6.3,1.8-12.5,3.8-18.7,6c-4.1,1.5-8.2,3-12.3,4.6c-0.1,0-0.2,0.1-0.2,0.1c0,0,0,0,0,0
			c-54.3,21.6-101.9,56.2-139.1,100c-4.4,5.1-8.6,10.4-12.7,15.8c-4.1,5.4-8,10.9-11.8,16.5c-3.8,5.6-7.4,11.4-10.8,17.2
			c-15.3,26-27.5,54.1-35.8,83.8c-0.1,0.4-0.2,0.8-0.3,1.2c-8.4,30.1-12.7,61.8-12.7,94.6V682h708V510.1
			C1152,477.4,1147.3,445.7,1139,415.6z M666.8,209c0.1,0,0.2-0.1,0.2-0.1c4.2-1.8,8.4-3.5,12.7-5.2c0,0,0.1,0,0.1,0
			c4.2-1.6,8.5-3.2,12.8-4.6c0.2-0.1,0.3-0.1,0.4-0.2c16.9-5.7,34.5-10,52.5-12.9c0,0,0,0,0,0h0c0.1,0,0.1-0.1,0.2-0.1
			c4.2-0.7,8.4-0.9,12.6-1.9h0c4.2,0,8.4-0.8,12.6-1.2c0,0,0.1,0,0.1,0c0,0,0.1,0,0.2,0c8.7-0.7,17.5-1,26.4-1
			c8.9,0,17.7,0.4,26.5,1.1c0,0,0.1,0,0.2,0c4.3,0.3,8.5,0.8,12.7,1.3c4.3,0.5,8.6,1.1,12.8,1.8c0,0,0,0,0,0
			c18.2,2.9,35.8,7.3,52.9,13.1c4.3,1.5,8.6,3,12.8,4.7c4.3,1.7,8.6,3.4,12.8,5.3c0,0,0,0,0,0c116.2,50.6,197.6,166.6,197.6,301.2
			V656H469V510.1C469,375.6,550.6,259.6,666.8,209z"/>
	</g>
	<g id="XMLID_3_">
		<path fill="#DD9300" d="M1143.3,699.5H435c-20.9,0-37.9-17-37.9-37.9v-2.8c0-20.9,17-37.9,37.9-37.9h708.3
			c20.9,0,37.9,17,37.9,37.9v2.8C1181.2,682.5,1164.3,699.5,1143.3,699.5z"/>
		<path fill="#515151" d="M1141.9,712.3H436.4c-28.8,0-52.1-23.4-52.1-52.1s23.4-52.1,52.1-52.1h705.5c28.8,0,52.1,23.4,52.1,52.1
			S1170.7,712.3,1141.9,712.3z M436.4,633.7c-14.6,0-26.5,11.9-26.5,26.5s11.9,26.5,26.5,26.5h705.5c14.6,0,26.5-11.9,26.5-26.5
			s-11.9-26.5-26.5-26.5H436.4z"/>
	</g>
	<g id="XMLID_4_">
		<path fill="#DD9300" d="M758.4,149.1v410.4c0,0.8-0.7,1.5-1.5,1.5h-75.5c-0.8,0-1.5-0.7-1.5-1.5V149.1c0-0.8,0.7-1.5,1.5-1.5h75.5
			C757.7,147.6,758.4,148.2,758.4,149.1z"/>
		<path fill="#515151" d="M771,182.9c-0.4-4.9-1.3-9.5-3-13.9c-1.4-3.9-3.3-7.7-5.6-11.1c-1.2-1.8-2.6-3.6-4-5.3
			c-1.6-1.8-3.3-3.5-5.1-5.1c-2.4-2.1-5-4-7.8-5.6c-7.8-4.6-16.8-7.2-26.5-7.2c-13.1,0-25.1,4.9-34.2,12.8c-1.8,1.6-3.5,3.3-5.1,5.1
			c-4.2,4.8-7.5,10.3-9.7,16.4c-1.4,3.8-2.3,7.9-2.8,12c-0.2,1.9-0.3,3.9-0.3,5.8v334.9c0,13.1,4.8,25.1,12.8,34.2
			c1.6,1.8,3.3,3.5,5.1,5.1c9.2,8,21.1,12.8,34.2,12.8s24.9-4.9,34-12.8c1.8-1.6,3.9-3.3,4.9-5.1v0c8-9.2,13-21.1,13-34.2V186.8
			C771,185.5,771.1,184.2,771,182.9z M719.5,548.2c-14.6,0-26.5-11.9-26.5-26.5V186.8c0-6.3,2-12,5.6-16.5c0.3-0.5,0.6-0.9,1-1.3
			c4.8-5.3,11.7-8.6,19.5-8.6c3.8,0,7.4,0.8,10.7,2.3c3.3,1.5,6.3,3.6,8.7,6.3c4.1,4.5,7,10.5,7.2,17c0,0.3,0.2,0.6,0.2,0.9v334.9
			C746,536.3,734.1,548.2,719.5,548.2z"/>
	</g>
	<g id="XMLID_6_">
		<path fill="#DD9300" d="M915.5,149.1v410.4c0,0.8-0.7,1.5-1.5,1.5h-75.5c-0.8,0-1.5-0.7-1.5-1.5V149.1c0-0.8,0.7-1.5,1.5-1.5H914
			C914.9,147.6,915.5,148.2,915.5,149.1z"/>
		<path fill="#515151" d="M927.9,181c-0.5-4.2-1.3-8.2-2.7-12c-2.2-6.1-5.5-11.6-9.6-16.4c-1.6-1.8-3.2-3.5-5.1-5.1
			c-9.2-8-21.1-12.8-34.2-12.8c-9.7,0-18.7,2.6-26.5,7.2c-2.8,1.6-5.4,3.5-7.8,5.6c-1.8,1.6-3.5,3.3-5.1,5.1c-1.5,1.7-2.8,3.4-4,5.3
			c-2.3,3.4-4.2,7.2-5.6,11.1c-1.6,4.4-2.7,9-3.1,13.9c-0.1,1.3-0.2,2.6-0.2,4v334.9c0,13.1,4.9,25,12.9,34.2c0,0,0,0,0,0
			c1.6,1.8,3.3,3.5,5.1,5.1c9.2,8,21.1,12.8,34.2,12.8c13.1,0,25.1-4.9,34.2-12.8c1.8-1.6,3.3-3.3,4.9-5.1
			c8-9.2,12.6-21.1,12.6-34.2V186.8C928,184.9,928.1,182.9,927.9,181z M850,186.8c0-0.3-0.1-0.6-0.1-0.9c0.2-6.5,2.7-12.5,6.9-17
			c2.4-2.7,5.4-4.8,8.7-6.3c0,0,0,0,0,0c3.3-1.5,6.9-2.3,10.7-2.3c7.7,0,14.7,3.3,19.5,8.6c0.4,0.4,0.9,0.8,1.3,1.3
			c3.6,4.5,6,10.3,6,16.5v334.9c0,14.6-11.9,26.5-26.5,26.5S850,536.3,850,521.7V186.8z"/>
	</g>
	<g id="XMLID_5_">
		<path fill="#FFD400" d="M837,95.9v463.6c0,0.8-0.7,1.5-1.5,1.5h-75.5c-0.8,0-1.5-0.7-1.5-1.5V95.9c0-0.8,0.7-1.5,1.5-1.5h75.5
			C836.3,94.4,837,95.1,837,95.9z"/>
		<path fill="#515151" d="M797.7,573.9c-28.8,0-52.1-23.4-52.1-52.1V133.7c0-28.7,23.4-52.1,52.1-52.1s52.1,23.4,52.1,52.1v388.1
			C849.8,550.5,826.4,573.9,797.7,573.9z M797.7,107.3c-14.6,0-26.5,11.9-26.5,26.4v388.1c0,14.6,11.9,26.5,26.5,26.5
			c14.6,0,26.5-11.9,26.5-26.5V133.7C824.1,119.1,812.2,107.3,797.7,107.3z"/>
	</g>
</g>
</svg>
