<svg xmlns="http://www.w3.org/2000/svg" viewBox="0 0 244.07 53.64"><defs><style>.cls-1{isolation:isolate;}.cls-2{fill:#fff;}</style></defs><title>logo-alt</title><g id="Layer_2" data-name="Layer 2"><g id="logo-alt"><g id="Layer_2-2" data-name="Layer 2"><g id="logo"><g class="cls-1"><g class="cls-1"><path class="cls-2" d="M4.21,18.29a4.52,4.52,0,0,1-1.7-1,3.79,3.79,0,0,1-.93-1.5A5.45,5.45,0,0,1,1.29,14V2.51C.49,2.41.06,2.24,0,2V.84H11.18c.43,0,.68.06.75.2a1.77,1.77,0,0,1,.11.75c0,.22,0,.41,0,.56a.92.92,0,0,1-.08.37.37.37,0,0,1-.25.2,1.69,1.69,0,0,1-.51.06H3.58V8.45H9.91c.43,0,.68.08.75.23a2,2,0,0,1,.11.78c0,.22,0,.41,0,.56a1,1,0,0,1-.09.37.4.4,0,0,1-.25.2,1.69,1.69,0,0,1-.51.06H3.58V14a2.54,2.54,0,0,0,.3,1.31,2.19,2.19,0,0,0,.81.79,3.37,3.37,0,0,0,1.21.38,11.63,11.63,0,0,0,1.5.09h3.78q.64,0,.75.21a1.77,1.77,0,0,1,.11.75c0,.22,0,.41,0,.56a.92.92,0,0,1-.08.37.39.39,0,0,1-.25.2,1.69,1.69,0,0,1-.51.06H6.85A7.76,7.76,0,0,1,4.21,18.29Z"/></g><g class="cls-1"><path class="cls-2" d="M18.77,8a2.78,2.78,0,0,0-2.11.44,1.6,1.6,0,0,0-.49,1.47A1.26,1.26,0,0,0,17.24,11c1,.22,1.93.42,2.78.57a7.08,7.08,0,0,1,2.17.74,2.79,2.79,0,0,1,1,1A3.7,3.7,0,0,1,23.5,15a7.49,7.49,0,0,1-.19,1.79,2.8,2.8,0,0,1-.73,1.2,3.21,3.21,0,0,1-1.4.8,8,8,0,0,1-2.51.22,12.09,12.09,0,0,1-1.58-.13,14.7,14.7,0,0,1-2-.45,2,2,0,0,1-.86-.38c-.13-.12-.13-.36,0-.71a5,5,0,0,1,.25-.6.65.65,0,0,1,.24-.29.57.57,0,0,1,.33,0,3.75,3.75,0,0,1,.54.09A16.88,16.88,0,0,0,19,17a2.94,2.94,0,0,0,1.83-.35,1.66,1.66,0,0,0,.55-1.19,2,2,0,0,0,0-.69,1.77,1.77,0,0,0-.12-.46A2.11,2.11,0,0,0,21,14a1.1,1.1,0,0,0-.33-.25,3.21,3.21,0,0,0-.58-.2,8.13,8.13,0,0,0-.88-.19c-.35-.08-.67-.15-.94-.19l-.76-.12c-1.94-.32-3-1.18-3.2-2.58a3.91,3.91,0,0,1,.79-3.3,3.86,3.86,0,0,1,3.13-1.14,20,20,0,0,1,2,.13,15.49,15.49,0,0,1,2,.34l.31.07A.46.46,0,0,1,23,7a2.74,2.74,0,0,1-.11.72l-.12.41a.79.79,0,0,1-.12.26.3.3,0,0,1-.2.1,1.16,1.16,0,0,1-.4-.06c-.51-.12-1-.23-1.57-.32A15.26,15.26,0,0,0,18.77,8Z"/></g><g class="cls-1"><path class="cls-2" d="M31,16.76a9.3,9.3,0,0,0,1.21-.13,7.06,7.06,0,0,0,1-.25,2.29,2.29,0,0,1,.54-.09.45.45,0,0,1,.34.13,1.19,1.19,0,0,1,.23.38c.08.17.16.38.25.63a2.47,2.47,0,0,1,.14.5.31.31,0,0,1-.17.28,2.25,2.25,0,0,1-.59.19l-1.07.25a6.26,6.26,0,0,1-1.21.19c-.43,0-.9.05-1.39.05a5.47,5.47,0,0,1-2.44-.46,4.35,4.35,0,0,1-1.6-1.28,6.53,6.53,0,0,1-1-2,8.49,8.49,0,0,1-.32-2.61,8.36,8.36,0,0,1,.84-3.68A5,5,0,0,1,28,6.57a5.8,5.8,0,0,1,2.8-.48,10.05,10.05,0,0,1,2.91.43l.57.19a.68.68,0,0,1,.31.17.23.23,0,0,1,.07.24,1.64,1.64,0,0,1-.12.4l-.27.62a.89.89,0,0,1-.24.35.44.44,0,0,1-.32.09,1.81,1.81,0,0,1-.53-.13,6.94,6.94,0,0,0-2.34-.4A4,4,0,0,0,29,8.38a2.44,2.44,0,0,0-1,.91,5.14,5.14,0,0,0-.56,1.43,10.45,10.45,0,0,0-.19,2.46,5.44,5.44,0,0,0,.64,2.68C28.35,16.56,29.36,16.86,31,16.76Z"/></g><g class="cls-1"><path class="cls-2" d="M48.71,17.46v1.05l-.64.18a4.88,4.88,0,0,1-1.61.1,1.38,1.38,0,0,1-.89-.31,1.2,1.2,0,0,1-.37-.57,3,3,0,0,1-.62.55,2.88,2.88,0,0,1-.65.29,4.85,4.85,0,0,1-.75.13c-.28,0-.59,0-.94,0a5.74,5.74,0,0,1-3.5-.76,3.11,3.11,0,0,1-1.09-2.68V8H36.27V6.83a3.35,3.35,0,0,1,.57-.41,6.88,6.88,0,0,1,.68-.27A2.92,2.92,0,0,1,38.46,6a1.25,1.25,0,0,1,1,.36,1.28,1.28,0,0,1,.37.69,1.41,1.41,0,0,0,0,.18c0,.07,0,.14,0,.22v7.38a1.76,1.76,0,0,0,.58,1.54,3.09,3.09,0,0,0,1.69.47,7.62,7.62,0,0,0,.82,0q.38,0,.72-.06a5.58,5.58,0,0,0,.69-.13l.77-.18V7a1.28,1.28,0,0,1,.13-.7c.07-.1.25-.16.52-.16h1c.28,0,.46.06.53.16a1.45,1.45,0,0,1,.11.7l0,4.25v6.17Z"/></g><g class="cls-1"><path class="cls-2" d="M55.9,16.93c.3,0,.67-.05,1.11-.11a15.32,15.32,0,0,0,1.54-.27,4.76,4.76,0,0,1,.56-.09.59.59,0,0,1,.34.08.57.57,0,0,1,.22.29q.11.23.24.6a.66.66,0,0,1,0,.53,1,1,0,0,1-.4.32,2.83,2.83,0,0,1-.69.2l-.88.17a16,16,0,0,1-2.94.24,5.87,5.87,0,0,1-2.58-.46,4.35,4.35,0,0,1-1.6-1.28,6.24,6.24,0,0,1-1-2,9.55,9.55,0,0,1-.33-2.65A7.75,7.75,0,0,1,50,9.93a7.08,7.08,0,0,1,1-2,4.66,4.66,0,0,1,1.75-1.36A7.44,7.44,0,0,1,56,6.07c.16,0,.37,0,.63.08a4.1,4.1,0,0,1,.86.23,3.85,3.85,0,0,1,1,.51,3.79,3.79,0,0,1,.87.94,5.51,5.51,0,0,1,.65,1.52,9.14,9.14,0,0,1,.31,2.23,1.59,1.59,0,0,1-.15.77.9.9,0,0,1-.35.35,1.21,1.21,0,0,1-.52.12H51.84v.6a4.53,4.53,0,0,0,.7,2.48C53,16.64,54.1,17,55.9,16.93Zm2-7.41a2.39,2.39,0,0,0-.59-.9,2.22,2.22,0,0,0-.82-.49,3.21,3.21,0,0,0-1-.15,3.39,3.39,0,0,0-1.72.33,3.12,3.12,0,0,0-1.06,1A4.38,4.38,0,0,0,52,10.7l0,.19h6.16A4.89,4.89,0,0,0,57.85,9.52Z"/></g><g class="cls-1"><path class="cls-2" d="M64.85,17.48h1.36v1.05l-.63.18a4.61,4.61,0,0,1-1.61.11,1.45,1.45,0,0,1-.85-.29,1.36,1.36,0,0,1-.38-.51,2.12,2.12,0,0,1-.11-.73V.86a2.13,2.13,0,0,1,0-.49.39.39,0,0,1,.14-.26.55.55,0,0,1,.32-.1h1.18a1,1,0,0,1,.35.08.4.4,0,0,1,.16.26,3.21,3.21,0,0,1,0,.51Z"/></g><g class="cls-1"><path class="cls-2" d="M72,18.87a5.51,5.51,0,0,1-.79-.16,5.85,5.85,0,0,1-.64-.23,4.39,4.39,0,0,1-2.16-2.19,8.38,8.38,0,0,1-.73-3.66,8,8,0,0,1,.4-2.58,7.57,7.57,0,0,1,1-2,4.22,4.22,0,0,1,1.36-1.19,5.72,5.72,0,0,1,1.24-.48,7.34,7.34,0,0,1,1.82-.21,10.49,10.49,0,0,1,1.38.07A1.9,1.9,0,0,1,76.07,7a3,3,0,0,1,0-.49.41.41,0,0,1,.14-.26.68.68,0,0,1,.33-.1h1.18a.73.73,0,0,1,.34.09.35.35,0,0,1,.16.25,3.3,3.3,0,0,1,0,.51V17.5h1.37v1.05l-.64.18a4.59,4.59,0,0,1-1.61.11,1.41,1.41,0,0,1-.94-.34,1.48,1.48,0,0,1-.35-.61c-.2.11-.42.21-.63.31l-.66.28a5.92,5.92,0,0,1-2.24.41h-.31ZM72.4,17a5.47,5.47,0,0,0,.94,0,4.53,4.53,0,0,0,1.42-.37A8.18,8.18,0,0,0,76.07,16V8.29a11.5,11.5,0,0,0-1.14-.23A9.88,9.88,0,0,0,73.47,8a4.1,4.1,0,0,0-1,.11,4,4,0,0,0-.66.24,3.24,3.24,0,0,0-1,1,4.61,4.61,0,0,0-.66,1.51A10.73,10.73,0,0,0,70,13.25a5.44,5.44,0,0,0,.69,2.7A2.4,2.4,0,0,0,72.4,17Z"/></g><g class="cls-1"><path class="cls-2" d="M93,18.87a5.51,5.51,0,0,1-.79-.16,6.06,6.06,0,0,1-.65-.23,4.47,4.47,0,0,1-2.16-2.19,8.53,8.53,0,0,1-.73-3.66A8,8,0,0,1,89,10.05a7.29,7.29,0,0,1,1-2,4.12,4.12,0,0,1,1.36-1.19,5.72,5.72,0,0,1,1.24-.48,7.28,7.28,0,0,1,1.82-.21,10.69,10.69,0,0,1,1.38.07A1.9,1.9,0,0,1,97,7V.88a2.19,2.19,0,0,1,0-.49.41.41,0,0,1,.14-.26A.55.55,0,0,1,97.54,0l.55,0,.63,0a.65.65,0,0,1,.35.08.38.38,0,0,1,.16.25,3.3,3.3,0,0,1,0,.51V17.5h1.36v1.05l-.63.18a4.61,4.61,0,0,1-1.61.11,1.22,1.22,0,0,1-1.29-.95l-.63.31-.66.28a6,6,0,0,1-2.25.41h-.31Zm.4-1.84a5.59,5.59,0,0,0,1,0,4.6,4.6,0,0,0,1.42-.37A9.15,9.15,0,0,0,97,16V8.29a11.14,11.14,0,0,0-1.15-.23A9.74,9.74,0,0,0,94.44,8a4,4,0,0,0-1,.11,4,4,0,0,0-.66.24,3.37,3.37,0,0,0-1,1,4.6,4.6,0,0,0-.65,1.51,9.68,9.68,0,0,0-.19,2.43,5.44,5.44,0,0,0,.69,2.7A2.36,2.36,0,0,0,93.36,17Z"/></g><g class="cls-1"><path class="cls-2" d="M108,16.93c.3,0,.67-.05,1.11-.11a15.32,15.32,0,0,0,1.54-.27,4.76,4.76,0,0,1,.56-.09.59.59,0,0,1,.34.08.63.63,0,0,1,.22.29q.11.23.24.6a.66.66,0,0,1,0,.53,1,1,0,0,1-.4.32,2.83,2.83,0,0,1-.69.2l-.89.17a15.84,15.84,0,0,1-2.93.24,5.87,5.87,0,0,1-2.58-.46,4.35,4.35,0,0,1-1.6-1.28,6.24,6.24,0,0,1-1-2,9.55,9.55,0,0,1-.33-2.65A7.75,7.75,0,0,1,102,9.93a7.08,7.08,0,0,1,1-2,4.66,4.66,0,0,1,1.75-1.36,7.44,7.44,0,0,1,3.22-.5c.16,0,.37,0,.63.08a4.1,4.1,0,0,1,.86.23,3.85,3.85,0,0,1,1,.51,3.79,3.79,0,0,1,.87.94A5.51,5.51,0,0,1,112,9.35a9.14,9.14,0,0,1,.31,2.23,1.59,1.59,0,0,1-.15.77.9.9,0,0,1-.35.35,1.21,1.21,0,0,1-.52.12h-7.36v.6a4.61,4.61,0,0,0,.69,2.48C105,16.64,106.15,17,108,16.93Zm2-7.41a2.39,2.39,0,0,0-.59-.9,2.22,2.22,0,0,0-.82-.49,3.21,3.21,0,0,0-1-.15,3.39,3.39,0,0,0-1.72.33,3.12,3.12,0,0,0-1.06,1,4.38,4.38,0,0,0-.64,1.37l0,.19h6.16A4.89,4.89,0,0,0,109.9,9.52Z"/></g></g><g class="cls-1"><g class="cls-1"><path class="cls-2" d="M9.84,25.89v27h-7v-27Z"/><path class="cls-2" d="M13.35,52.88v-27h7l13,16.51V25.89h7v27h-7l-13-16.5v16.5Z"/></g><g class="cls-1"><path class="cls-2" d="M43.82,52.88v-27h7l13,16.51V25.89h7v27h-7l-13-16.5v16.5Z"/></g><g class="cls-1"><path class="cls-2" d="M73.38,39.39a14.15,14.15,0,0,1,1.11-5.61,13.9,13.9,0,0,1,7.79-7.55,17.17,17.17,0,0,1,12,0,14.31,14.31,0,0,1,4.75,3,13.77,13.77,0,0,1,3.09,4.52,14.71,14.71,0,0,1,0,11.21,13.92,13.92,0,0,1-3.09,4.53,14.13,14.13,0,0,1-4.75,3,17,17,0,0,1-12,0,13.86,13.86,0,0,1-4.71-3,14,14,0,0,1-4.19-10.13Zm7.34,0a7.14,7.14,0,0,0,.61,3A7.28,7.28,0,0,0,83,44.72a7.36,7.36,0,0,0,2.41,1.56,8,8,0,0,0,5.84,0,7.56,7.56,0,0,0,2.43-1.56,7.16,7.16,0,0,0,2.27-5.33,7.23,7.23,0,0,0-.6-3,7.38,7.38,0,0,0-1.67-2.37,7.7,7.7,0,0,0-2.43-1.55,7.89,7.89,0,0,0-5.84,0A7.5,7.5,0,0,0,83,34.05a7.32,7.32,0,0,0-1.65,2.37A7.08,7.08,0,0,0,80.72,39.39Z"/></g><g class="cls-1"><path class="cls-2" d="M109.11,25.89l6.51,16.43,6.55-16.43h7.63l-11.39,27h-5.58l-11.35-27Z"/></g><g class="cls-1"><path class="cls-2" d="M144.87,48.19h-10l-1.61,4.69h-7.48l10.28-27h7.66l10.27,27h-7.48ZM143,42.86l-3.15-9-3.15,9Z"/></g><g class="cls-1"><path class="cls-2" d="M173.33,34.91a7.51,7.51,0,0,0-6-3,7.42,7.42,0,0,0-2.92.57,7.31,7.31,0,0,0-2.3,1.56,7.13,7.13,0,0,0-1.53,2.35,7.64,7.64,0,0,0-.55,2.93,7.74,7.74,0,0,0,.55,3,7.11,7.11,0,0,0,3.85,3.94,7.21,7.21,0,0,0,2.87.57A8.12,8.12,0,0,0,173.33,44v8.31l-.72.25a21,21,0,0,1-3,.84,14.47,14.47,0,0,1-2.75.27,14.17,14.17,0,0,1-9.87-4,14.81,14.81,0,0,1-3.13-4.55,14.59,14.59,0,0,1,0-11.45,14.06,14.06,0,0,1,7.65-7.41,14,14,0,0,1,5.4-1.06,14.59,14.59,0,0,1,3.17.34,19.42,19.42,0,0,1,3.28,1.06Z"/><path class="cls-2" d="M182.63,25.89v27h-7v-27Z"/><path class="cls-2" d="M184.92,39.39A14,14,0,0,1,186,33.78a13.72,13.72,0,0,1,3.07-4.52,14.24,14.24,0,0,1,4.71-3,17.2,17.2,0,0,1,12.05,0,14.17,14.17,0,0,1,4.74,3,13.65,13.65,0,0,1,3.1,4.52,14.71,14.71,0,0,1,0,11.21,13.8,13.8,0,0,1-3.1,4.53,14,14,0,0,1-4.74,3,17.05,17.05,0,0,1-12.05,0,14.06,14.06,0,0,1-4.71-3,14.14,14.14,0,0,1-4.19-10.13Zm7.34,0a7.3,7.3,0,0,0,.61,3,7.6,7.6,0,0,0,1.65,2.36,7.4,7.4,0,0,0,2.42,1.56,7.81,7.81,0,0,0,8.27-1.56,7.46,7.46,0,0,0,1.66-2.36,7.54,7.54,0,0,0,0-5.94,7.51,7.51,0,0,0-1.66-2.37,7.86,7.86,0,0,0-2.44-1.55,7.87,7.87,0,0,0-5.83,0,7.54,7.54,0,0,0-2.42,1.55,7.64,7.64,0,0,0-1.65,2.37A7.24,7.24,0,0,0,192.26,39.39ZM206.3,19l-6.88,4.72L196.7,21.2l5.84-5.58Z"/><path class="cls-2" d="M217.11,52.88v-27h7l13,16.51V25.89h7v27h-7l-13-16.5v16.5Z"/></g></g></g></g></g></g></svg>